<svg width="146" height="42" viewBox="0 0 146 42" fill="none" xmlns="http://www.w3.org/2000/svg">
<path d="M0.694336 36.157V22.8647L17.6951 15.5801H20.5843C24.7181 15.5801 26.7895 20.7524 23.8661 23.777L8.61701 39.5524C5.69359 42.577 0.694336 40.4355 0.694336 36.157Z" fill="url(#paint0_linear_6930_20272)"/>
<g style="mix-blend-mode:multiply">
<path opacity="0.1" d="M10.6056 28.7555L22.8346 15.5801H17.6941C15.5395 17.0032 5.22719 19.937 0.693359 21.4478V26.2262C0.693359 30.5047 7.68072 31.7801 10.6056 28.7555Z" fill="white"/>
<path opacity="0.103" d="M10.6017 28.7432L22.8203 15.5801H17.6931C15.534 17.0016 5.22324 19.937 0.692383 21.4478V26.2155C0.69387 30.497 7.67975 31.7678 10.6017 28.7432Z" fill="white"/>
<path opacity="0.106" d="M10.5967 28.7324L22.8064 15.5801H17.6941C15.5305 17.0016 5.22124 19.9355 0.693359 21.4478V26.2032C0.693359 30.4878 7.67626 31.7555 10.5967 28.7324Z" fill="#FFFEFF"/>
<path opacity="0.109" d="M10.5932 28.7181L22.7925 15.5781H17.6951C15.5271 16.9981 5.21776 19.9335 0.694336 21.4458V26.1904C0.692849 30.4781 7.67277 31.7427 10.5932 28.7181Z" fill="#FEFEFF"/>
<path opacity="0.112" d="M10.5893 28.7093L22.7781 15.5801H17.6941C15.5216 17.0001 5.2138 19.9355 0.693359 21.4478V26.1801C0.693359 30.4724 7.67031 31.7324 10.5893 28.7093Z" fill="#FEFEFF"/>
<path opacity="0.115" d="M10.5848 28.697L22.7632 15.5801H17.6941C15.5171 16.9985 5.21083 19.9355 0.693359 21.4478V26.1693C0.693359 30.4647 7.66882 31.7216 10.5848 28.697Z" fill="#FEFDFF"/>
<path opacity="0.1179" d="M10.5818 28.6862L22.7499 15.5801H17.6941C15.5127 16.9985 5.20786 19.9355 0.693359 21.4478V26.157C0.693359 30.457 7.66585 31.7093 10.5818 28.6862Z" fill="#FEFDFE"/>
<path opacity="0.1209" d="M10.5774 28.6735L22.735 15.5781H17.6941C15.5082 16.995 5.20488 19.9335 0.693359 21.4458V26.1443C0.693359 30.4474 7.66287 31.6981 10.5774 28.6735Z" fill="#FEFDFE"/>
<path opacity="0.1239" d="M10.5734 28.6632L22.7206 15.5801H17.6931C15.5028 16.997 5.20093 19.9355 0.692383 21.4478V26.1339C0.69387 30.4401 7.66041 31.6862 10.5734 28.6632Z" fill="#FDFCFE"/>
<path opacity="0.1269" d="M10.5699 28.6504L22.7067 15.5781H17.6941C15.4993 16.995 5.19745 19.932 0.693359 21.4458V26.1197C0.693359 30.432 7.65693 31.6735 10.5699 28.6504Z" fill="#FDFCFE"/>
<path opacity="0.1299" d="M10.566 28.6401L22.6924 15.5801H17.6931C15.4939 16.9955 5.1935 19.9339 0.692383 21.4478V26.1108C0.69387 30.4247 7.65595 31.6632 10.566 28.6401Z" fill="#FDFCFE"/>
<path opacity="0.1329" d="M10.5615 28.6274L22.6775 15.5781H17.6931C15.4894 16.9935 5.19053 19.932 0.692383 21.4458V26.0966C0.69387 30.4166 7.65298 31.6504 10.5615 28.6274Z" fill="#FDFBFE"/>
<path opacity="0.1359" d="M10.558 28.617L22.6651 15.5801H17.6941C15.4859 16.9939 5.18853 19.9339 0.693359 21.4478V26.0878C0.693359 30.4078 7.64949 31.6401 10.558 28.617Z" fill="#FCFBFE"/>
<path opacity="0.1389" d="M10.5536 28.6062L22.6502 15.5801H17.6941C15.4815 16.9939 5.18555 19.9339 0.693359 21.4478V26.0755C0.693359 30.4001 7.64652 31.6278 10.5536 28.6062Z" fill="#FCFBFE"/>
<path opacity="0.1419" d="M10.5506 28.5939L22.6369 15.5801H17.6941C15.477 16.9924 5.18258 19.9339 0.693359 21.4478V26.0647C0.693359 30.3924 7.64355 31.617 10.5506 28.5939Z" fill="#FCFAFE"/>
<path opacity="0.1449" d="M10.5461 28.5832L22.622 15.5801H17.6941C15.4725 16.9924 5.17961 19.9339 0.693359 21.4478V26.0524C0.693359 30.3847 7.64206 31.6047 10.5461 28.5832Z" fill="#FCFAFE"/>
<path opacity="0.1478" d="M10.5422 28.5708L22.6076 15.5801H17.6931C15.4671 16.9924 5.17417 19.9324 0.692383 21.4478V26.0416C0.69387 30.377 7.63959 31.5924 10.5422 28.5708Z" fill="#FCFAFE"/>
<path opacity="0.1508" d="M10.5387 28.5601L22.5937 15.5801H17.6941C15.4636 16.9908 5.17217 19.9324 0.693359 21.4478V26.0293C0.693359 30.3678 7.63611 31.5816 10.5387 28.5601Z" fill="#FBF9FD"/>
<path opacity="0.1538" d="M10.5348 28.5474L22.5794 15.5781H17.6931C15.4582 16.9889 5.16822 19.9304 0.692383 21.4458V26.0166C0.69387 30.3597 7.63365 31.5689 10.5348 28.5474Z" fill="#FBF9FD"/>
<path opacity="0.1568" d="M10.5303 28.537L22.5645 15.5801H17.6931C15.4537 16.9893 5.16525 19.9324 0.692383 21.4478V26.0062C0.69387 30.3524 7.63067 31.5585 10.5303 28.537Z" fill="#FBF8FD"/>
<path opacity="0.1598" d="M10.5268 28.5243L22.5506 15.5781H17.6941C15.4502 16.9874 5.16325 19.9304 0.693359 21.4458V25.9935C0.693359 30.3443 7.62867 31.5458 10.5268 28.5243Z" fill="#FBF8FD"/>
<path opacity="0.1628" d="M10.5224 28.5139L22.5372 15.5801H17.6941C15.4458 16.9878 5.16027 19.9324 0.693359 21.4478V25.9832C0.693359 30.3355 7.6257 31.5355 10.5224 28.5139Z" fill="#FBF8FD"/>
<path opacity="0.1658" d="M10.5179 28.5012L22.5223 15.5781H17.6941C15.4413 16.9858 5.15581 19.9304 0.693359 21.4458V25.9704C0.693359 30.3274 7.62273 31.5227 10.5179 28.5012Z" fill="#FAF7FD"/>
<path opacity="0.1688" d="M10.5149 28.4908L22.509 15.5801H17.6941C15.4368 16.9878 5.15284 19.9308 0.693359 21.4478V25.9601C0.693359 30.3201 7.61975 31.5108 10.5149 28.4908Z" fill="#FAF7FD"/>
<path opacity="0.1718" d="M10.5105 28.4801L22.4941 15.5801H17.6941C15.4324 16.9862 5.14987 19.9308 0.693359 21.4478V25.9493C0.693359 30.3124 7.61827 31.5001 10.5105 28.4801Z" fill="#FAF7FD"/>
<path opacity="0.1748" d="M10.5075 28.4678L22.4807 15.5801H17.6941C15.4279 16.9862 5.14689 19.9308 0.693359 21.4478V25.937C0.693359 30.3047 7.61529 31.4878 10.5075 28.4678Z" fill="#FAF6FD"/>
<path opacity="0.1777" d="M10.503 28.457L22.4658 15.5801H17.6941C15.4235 16.9847 5.14392 19.9308 0.693359 21.4478V25.9262C0.693359 30.2955 7.61231 31.477 10.503 28.457Z" fill="#F9F6FD"/>
<path opacity="0.1807" d="M10.4991 28.4447L22.4515 15.5801H17.6931C15.418 16.9847 5.13997 19.9308 0.692383 21.4478V25.9139C0.69387 30.2878 7.60986 31.4647 10.4991 28.4447Z" fill="#F9F6FD"/>
<path opacity="0.1837" d="M10.4956 28.4339L22.4376 15.5801H17.6941C15.4145 16.9832 5.13648 19.9308 0.693359 21.4478V25.9032C0.693359 30.2801 7.60637 31.4524 10.4956 28.4339Z" fill="#F9F5FC"/>
<path opacity="0.1867" d="M10.4916 28.4212L22.4232 15.5781H17.6931C15.4091 16.9812 5.13253 19.9289 0.692383 21.4458V25.8889C0.69387 30.272 7.60539 31.4412 10.4916 28.4212Z" fill="#F9F5FC"/>
<path opacity="0.1897" d="M10.4867 28.4108L22.4094 15.5801H17.6941C15.4041 16.9832 5.13054 19.9293 0.693359 21.4478V25.8785C0.693359 30.2647 7.60191 31.4293 10.4867 28.4108Z" fill="#F9F5FC"/>
<path opacity="0.1927" d="M10.4837 28.3981L22.3959 15.5781H17.6941C15.3997 16.9797 5.12756 19.9274 0.693359 21.4458V25.8658C0.693359 30.255 7.59893 31.4181 10.4837 28.3981Z" fill="#F8F4FC"/>
<path opacity="0.1957" d="M10.4792 28.3878L22.3811 15.5801H17.6941C15.3952 16.9816 5.12458 19.9293 0.693359 21.4478V25.8555C0.693359 30.2478 7.59596 31.4062 10.4792 28.3878Z" fill="#F8F4FC"/>
<path opacity="0.1987" d="M10.4753 28.375L22.3667 15.5781H17.6931C15.3898 16.9781 5.12064 19.9274 0.692383 21.4458V25.8427C0.69387 30.2397 7.5935 31.3951 10.4753 28.375Z" fill="#F8F4FC"/>
<path opacity="0.2017" d="M10.4718 28.3647L22.3528 15.5801H17.6941C15.3863 16.9801 5.11715 19.9293 0.693359 21.4478V25.8324C0.693359 30.2324 7.5915 31.3832 10.4718 28.3647Z" fill="#F8F3FC"/>
<path opacity="0.2047" d="M10.4673 28.3539L22.338 15.5801H17.6941C15.3818 16.9785 5.11417 19.9293 0.693359 21.4478V25.8216C0.693359 30.2247 7.58852 31.3708 10.4673 28.3539Z" fill="#F8F3FC"/>
<path opacity="0.2076" d="M10.4644 28.3416L22.3246 15.5801H17.6941C15.3774 16.9785 5.1112 19.9293 0.693359 21.4478V25.8093C0.693359 30.2155 7.58555 31.3601 10.4644 28.3416Z" fill="#F7F3FC"/>
<path opacity="0.2106" d="M10.4599 28.3308L22.3097 15.5801H17.6941C15.3729 16.9785 5.10823 19.9278 0.693359 21.4478V25.7985C0.693359 30.2078 7.58258 31.3478 10.4599 28.3308Z" fill="#F7F2FC"/>
<path opacity="0.2136" d="M10.456 28.3185L22.2954 15.5801H17.6931C15.3675 16.977 5.10428 19.9278 0.692383 21.4478V25.7862C0.69387 30.2001 7.58161 31.337 10.456 28.3185Z" fill="#F7F2FC"/>
<path opacity="0.2166" d="M10.452 28.3058L22.2824 15.5781H17.6951C15.365 16.975 5.10326 19.9258 0.694336 21.4458V25.7735C0.692849 30.1904 7.57761 31.3227 10.452 28.3058Z" fill="#F7F2FC"/>
<path opacity="0.2196" d="M10.448 28.2955L22.2681 15.5801H17.6941C15.3595 16.9755 5.09931 19.9278 0.693359 21.4478V25.7632C0.693359 30.1847 7.57514 31.3139 10.448 28.2955Z" fill="#F6F1FB"/>
<path opacity="0.2226" d="M10.4435 28.2847L22.2532 15.5801H17.6941C15.3551 16.9755 5.09484 19.9278 0.693359 21.4478V25.7524C0.693359 30.1755 7.57217 31.3016 10.4435 28.2847Z" fill="#F6F1FB"/>
<path opacity="0.2256" d="M10.4406 28.272L22.2398 15.5781H17.6941C15.3506 16.972 5.09187 19.9258 0.693359 21.4458V25.7381C0.693359 30.1674 7.5692 31.2889 10.4406 28.272Z" fill="#F6F1FB"/>
<path opacity="0.2286" d="M10.4361 28.2616L22.225 15.5801H17.6941C15.3462 16.9739 5.0889 19.9278 0.693359 21.4478V25.7293C0.693359 30.1601 7.56771 31.2785 10.4361 28.2616Z" fill="#F6F0FB"/>
<path opacity="0.2316" d="M10.4322 28.2489L22.2106 15.5781H17.6931C15.3407 16.9704 5.08495 19.9243 0.692383 21.4458V25.715C0.69387 30.152 7.56525 31.2658 10.4322 28.2489Z" fill="#F6F0FB"/>
<path opacity="0.2346" d="M10.4287 28.2385L22.1967 15.5801H17.6941C15.3372 16.9724 5.08295 19.9262 0.693359 21.4478V25.7062C0.693359 30.1447 7.56176 31.2555 10.4287 28.2385Z" fill="#F5F0FB"/>
<path opacity="0.2375" d="M10.4247 28.2258L22.1823 15.5781H17.6931C15.3318 16.9704 5.079 19.9243 0.692383 21.4458V25.692C0.69387 30.1351 7.5593 31.2427 10.4247 28.2258Z" fill="#F5EFFB"/>
<path opacity="0.2405" d="M10.4212 28.2155L22.1684 15.5801H17.6941C15.3283 16.9708 5.07551 19.9262 0.693359 21.4478V25.6832C0.693359 30.1278 7.55581 31.2324 10.4212 28.2155Z" fill="#F5EFFB"/>
<path opacity="0.2435" d="M10.4173 28.2047L22.1541 15.5801H17.6931C15.3229 16.9708 5.07157 19.9262 0.692383 21.4478V25.6708C0.69387 30.1201 7.55484 31.2201 10.4173 28.2047Z" fill="#F5EFFB"/>
<path opacity="0.2465" d="M10.4123 28.1924L22.1402 15.5801H17.6941C15.3194 16.9693 5.06957 19.9262 0.693359 21.4478V25.6601C0.693359 30.1124 7.55135 31.2078 10.4123 28.1924Z" fill="#F5EEFB"/>
<path opacity="0.2495" d="M10.4093 28.1816L22.1268 15.5801H17.6941C15.3149 16.9693 5.06659 19.9262 0.693359 21.4478V25.6478C0.693359 30.1047 7.54837 31.197 10.4093 28.1816Z" fill="#F4EEFB"/>
<path opacity="0.2525" d="M10.4049 28.1693L22.112 15.5801H17.6941C15.3105 16.9678 5.06362 19.9247 0.693359 21.4478V25.6355C0.693359 30.0955 7.54541 31.1847 10.4049 28.1693Z" fill="#F4EEFA"/>
<path opacity="0.2555" d="M10.4004 28.1585L22.0971 15.5801H17.6941C15.306 16.9678 5.06065 19.9247 0.693359 21.4478V25.6247C0.693359 30.0878 7.54243 31.1739 10.4004 28.1585Z" fill="#F4EDFA"/>
<path opacity="0.2585" d="M10.3974 28.1458L22.0837 15.5781H17.6941C15.3015 16.9658 5.05618 19.9227 0.693359 21.4458V25.6104C0.693359 30.0797 7.54094 31.1612 10.3974 28.1458Z" fill="#F4EDFA"/>
<path opacity="0.2615" d="M10.393 28.1355L22.0688 15.5801H17.6941C15.2971 16.9662 5.05321 19.9247 0.693359 21.4478V25.6016C0.693359 30.0724 7.53796 31.1508 10.393 28.1355Z" fill="#F4EDFA"/>
<path opacity="0.2645" d="M10.389 28.1227L22.0545 15.5781H17.6931C15.2916 16.9643 5.04926 19.9227 0.692383 21.4458V25.5874C0.69387 30.0643 7.5355 31.1381 10.389 28.1227Z" fill="#F3ECFA"/>
<path opacity="0.2674" d="M10.3856 28.1124L22.0406 15.5801H17.6941C15.2882 16.9647 5.04726 19.9247 0.693359 21.4478V25.5785C0.693359 30.0555 7.53202 31.1262 10.3856 28.1124Z" fill="#F3ECFA"/>
<path opacity="0.2704" d="M10.3816 28.0997L22.0262 15.5781H17.6931C15.2827 16.9627 5.04331 19.9227 0.692383 21.4458V25.5643C0.69387 30.0474 7.53105 31.1151 10.3816 28.0997Z" fill="#F3EBFA"/>
<path opacity="0.2734" d="M10.3766 28.0893L22.0123 15.5801H17.6941C15.2792 16.9632 5.04132 19.9232 0.693359 21.4478V25.5555C0.693359 30.0401 7.52756 31.1032 10.3766 28.0893Z" fill="#F3EBFA"/>
<path opacity="0.2764" d="M10.3737 28.0785L21.9989 15.5801H17.6941C15.2748 16.9632 5.03685 19.9232 0.693359 21.4478V25.5432C0.693359 30.0324 7.52458 31.0924 10.3737 28.0785Z" fill="#F2EBFA"/>
<path opacity="0.2794" d="M10.3692 28.0662L21.9841 15.5801H17.6941C15.2703 16.9632 5.03388 19.9232 0.693359 21.4478V25.5324C0.693359 30.0232 7.52161 31.0801 10.3692 28.0662Z" fill="#F2EAFA"/>
<path opacity="0.2824" d="M10.3662 28.0555L21.9707 15.5801H17.6941C15.2658 16.9616 5.0309 19.9232 0.693359 21.4478V25.5201C0.693359 30.0155 7.51864 31.0693 10.3662 28.0555Z" fill="#F2EAFA"/>
<path opacity="0.2854" d="M10.3618 28.0432L21.9558 15.5801H17.6941C15.2614 16.9616 5.02793 19.9232 0.693359 21.4478V25.5093C0.693359 30.0078 7.51715 31.057 10.3618 28.0432Z" fill="#F2EAF9"/>
<path opacity="0.2884" d="M10.3578 28.0324L21.9415 15.5801H17.6931C15.256 16.9601 5.02398 19.9232 0.692383 21.4478V25.497C0.69387 30.0001 7.51469 31.0447 10.3578 28.0324Z" fill="#F2E9F9"/>
<path opacity="0.2914" d="M10.3543 28.0197L21.9276 15.5781H17.6941C15.2525 16.9581 5.02198 19.9212 0.693359 21.4458V25.4843C0.693359 29.992 7.5112 31.0335 10.3543 28.0197Z" fill="#F1E9F9"/>
<path opacity="0.2944" d="M10.3504 28.0093L21.9132 15.5801H17.6931C15.247 16.9585 5.01804 19.9216 0.692383 21.4478V25.4739C0.69387 29.9832 7.50874 31.0216 10.3504 28.0093Z" fill="#F1E9F9"/>
<path opacity="0.2973" d="M10.3459 27.9966L21.8983 15.5781H17.6931C15.2426 16.9566 5.01357 19.9197 0.692383 21.4458V25.4612C0.69387 29.975 7.50577 31.0104 10.3459 27.9966Z" fill="#F1E8F9"/>
<path opacity="0.3003" d="M10.3424 27.9862L21.8859 15.5801H17.6941C15.2391 16.9585 5.01157 19.9216 0.693359 21.4478V25.4509C0.693359 29.9678 7.50377 30.9985 10.3424 27.9862Z" fill="#F1E8F9"/>
<path opacity="0.3033" d="M10.338 27.9735L21.871 15.5781H17.6941C15.2346 16.955 5.0086 19.9197 0.693359 21.4458V25.4381C0.693359 29.9597 7.50079 30.9874 10.338 27.9735Z" fill="#F1E8F9"/>
<path opacity="0.3063" d="M10.3335 27.9632L21.8562 15.5801H17.6941C15.2302 16.957 5.00563 19.9216 0.693359 21.4478V25.4278C0.693359 29.9524 7.49782 30.9755 10.3335 27.9632Z" fill="#F0E7F9"/>
<path opacity="0.3093" d="M10.3305 27.9524L21.8428 15.5801H17.6941C15.2257 16.9555 5.00265 19.9216 0.693359 21.4478V25.417C0.693359 29.9432 7.49485 30.9632 10.3305 27.9524Z" fill="#F0E7F9"/>
<path opacity="0.3123" d="M10.3261 27.9401L21.8279 15.5801H17.6941C15.2212 16.9555 4.99968 19.9201 0.693359 21.4478V25.4047C0.693359 29.9355 7.49187 30.9524 10.3261 27.9401Z" fill="#F0E7F9"/>
<path opacity="0.3153" d="M10.3231 27.9293L21.8146 15.5801H17.6941C15.2153 16.9539 4.99522 19.9201 0.693359 21.4478V25.3924C0.693359 29.9278 7.49039 30.9401 10.3231 27.9293Z" fill="#F0E6F9"/>
<path opacity="0.3183" d="M10.3186 27.917L21.7997 15.5801H17.6941C15.2108 16.9539 4.99224 19.9201 0.693359 21.4478V25.3816C0.693359 29.9201 7.48741 30.9293 10.3186 27.917Z" fill="#EFE6F8"/>
<path opacity="0.3213" d="M10.3147 27.9062L21.7853 15.5801H17.6931C15.2054 16.9539 4.98829 19.9201 0.692383 21.4478V25.3693C0.69387 29.9124 7.48495 30.917 10.3147 27.9062Z" fill="#EFE6F8"/>
<path opacity="0.3243" d="M10.3112 27.8939L21.7714 15.5801H17.6941C15.2019 16.9524 4.9863 19.9201 0.693359 21.4478V25.3585C0.693359 29.9032 7.48147 30.9047 10.3112 27.8939Z" fill="#EFE5F8"/>
<path opacity="0.3272" d="M10.3073 27.8832L21.7571 15.5801H17.6931C15.1965 16.9524 4.98235 19.9201 0.692383 21.4478V25.3462C0.69387 29.8955 7.48049 30.8939 10.3073 27.8832Z" fill="#EFE5F8"/>
<path opacity="0.3302" d="M10.3023 27.8704L21.7432 15.5781H17.6941C15.193 16.9489 4.98035 19.9181 0.693359 21.4458V25.3335C0.693359 29.8874 7.477 30.8812 10.3023 27.8704Z" fill="#EFE5F8"/>
<path opacity="0.3332" d="M10.2993 27.8601L21.7298 15.5801H17.6941C15.1885 16.9508 4.97589 19.9185 0.693359 21.4478V25.3232C0.693359 29.8801 7.47403 30.8709 10.2993 27.8601Z" fill="#EEE4F8"/>
<path opacity="0.3362" d="M10.2948 27.8474L21.7149 15.5781H17.6941C15.1841 16.9474 4.97291 19.9166 0.693359 21.4458V25.3104C0.693359 29.872 7.47105 30.8581 10.2948 27.8474Z" fill="#EEE4F8"/>
<path opacity="0.3392" d="M10.2909 27.837L21.7006 15.5801H17.6931C15.1786 16.9493 4.96896 19.9185 0.692383 21.4478V25.3001C0.69387 29.8632 7.46859 30.8478 10.2909 27.837Z" fill="#EEE4F8"/>
<path opacity="0.3422" d="M10.2874 27.8243L21.6867 15.5781H17.6941C15.1752 16.9474 4.96697 19.9166 0.693359 21.4458V25.2874C0.693359 29.8551 7.4666 30.8351 10.2874 27.8243Z" fill="#EEE3F8"/>
<path opacity="0.3452" d="M10.2835 27.8139L21.6723 15.5801H17.6931C15.1697 16.9478 4.96301 19.9185 0.692383 21.4478V25.277C0.69387 29.8478 7.46413 30.8232 10.2835 27.8139Z" fill="#EEE3F8"/>
<path opacity="0.3482" d="M10.28 27.8032L21.6584 15.5801H17.6941C15.1662 16.9478 4.96102 19.9185 0.693359 21.4478V25.2662C0.693359 29.8401 7.46064 30.8124 10.28 27.8032Z" fill="#EDE3F8"/>
<path opacity="0.3512" d="M10.276 27.7909L21.6441 15.5801H17.6931C15.1608 16.9462 4.95558 19.9185 0.692383 21.4478V25.2539C0.69387 29.8324 7.45818 30.8001 10.276 27.7909Z" fill="#EDE2F7"/>
<path opacity="0.3542" d="M10.2716 27.7801L21.6292 15.5801H17.6931C15.1563 16.9462 4.95261 19.917 0.692383 21.4478V25.2432C0.69387 29.8232 7.45521 30.7893 10.2716 27.7801Z" fill="#EDE2F7"/>
<path opacity="0.3571" d="M10.2676 27.7658L21.6163 15.5781H17.6951C15.1538 16.9427 4.95159 19.915 0.694336 21.4458V25.2289C0.692849 29.8135 7.4527 30.7751 10.2676 27.7658Z" fill="#EDE2F7"/>
<path opacity="0.3601" d="M10.2636 27.757L21.6019 15.5801H17.6941C15.1484 16.9447 4.94763 19.917 0.693359 21.4478V25.2201C0.693359 29.8078 7.45023 30.7662 10.2636 27.757Z" fill="#EDE1F7"/>
<path opacity="0.3631" d="M10.2592 27.7443L21.5871 15.5781H17.6941C15.1439 16.9412 4.94466 19.915 0.693359 21.4458V25.2058C0.693359 29.7997 7.44727 30.7535 10.2592 27.7443Z" fill="#ECE1F7"/>
<path opacity="0.3661" d="M10.2562 27.7339L21.5737 15.5801H17.6941C15.1395 16.9432 4.94169 19.917 0.693359 21.4478V25.197C0.693359 29.7924 7.44429 30.7416 10.2562 27.7339Z" fill="#ECE1F7"/>
<path opacity="0.3691" d="M10.2517 27.7212L21.5588 15.5781H17.6941C15.135 16.9412 4.93871 19.915 0.693359 21.4458V25.1827C0.693359 29.7827 7.4428 30.7304 10.2517 27.7212Z" fill="#ECE0F7"/>
<path opacity="0.3721" d="M10.2478 27.7109L21.5444 15.5801H17.6931C15.1296 16.9416 4.93328 19.917 0.692383 21.4478V25.1739C0.69387 29.7755 7.44034 30.7185 10.2478 27.7109Z" fill="#ECE0F7"/>
<path opacity="0.3751" d="M10.2443 27.6981L21.5305 15.5781H17.6941C15.1261 16.9397 4.93128 19.9135 0.693359 21.4458V25.1597C0.693359 29.7674 7.43685 30.7074 10.2443 27.6981Z" fill="#EBE0F7"/>
<path opacity="0.3781" d="M10.2403 27.6878L21.5162 15.5801H17.6931C15.1206 16.9401 4.92733 19.9155 0.692383 21.4478V25.1508C0.69387 29.7601 7.43439 30.6955 10.2403 27.6878Z" fill="#EBDFF7"/>
<path opacity="0.3811" d="M10.2369 27.677L21.5023 15.5801H17.6941C15.1172 16.9401 4.92533 19.9155 0.693359 21.4478V25.1385C0.693359 29.7524 7.43091 30.6847 10.2369 27.677Z" fill="#EBDFF7"/>
<path opacity="0.3841" d="M10.2324 27.6647L21.4889 15.5801H17.6941C15.1127 16.9385 4.92236 19.9155 0.693359 21.4478V25.1262C0.693359 29.7432 7.42942 30.6724 10.2324 27.6647Z" fill="#EBDEF6"/>
<path opacity="0.387" d="M10.2279 27.6539L21.474 15.5801H17.6941C15.1082 16.9385 4.91938 19.9155 0.693359 21.4478V25.1155C0.693359 29.7355 7.42644 30.6601 10.2279 27.6539Z" fill="#EBDEF6"/>
<path opacity="0.39" d="M10.225 27.6416L21.4606 15.5801H17.6941C15.1038 16.9385 4.91492 19.9155 0.693359 21.4478V25.1032C0.693359 29.7278 7.42347 30.6493 10.225 27.6416Z" fill="#EADEF6"/>
<path opacity="0.393" d="M10.2205 27.6308L21.4458 15.5801H17.6941C15.0993 16.937 4.91195 19.9155 0.693359 21.4478V25.0924C0.693359 29.7201 7.4205 30.637 10.2205 27.6308Z" fill="#EADDF6"/>
<path opacity="0.396" d="M10.2165 27.6185L21.4314 15.5801H17.6931C15.0939 16.937 4.908 19.9139 0.692383 21.4478V25.0801C0.69387 29.7124 7.41804 30.6262 10.2165 27.6185Z" fill="#EADDF6"/>
<path opacity="0.399" d="M10.2131 27.6078L21.4175 15.5801H17.6941C15.0904 16.9355 4.906 19.9139 0.693359 21.4478V25.0693C0.693359 29.7032 7.41604 30.6139 10.2131 27.6078Z" fill="#EADDF6"/>
<path opacity="0.402" d="M10.2091 27.595L21.4032 15.5781H17.6931C15.0849 16.9335 4.90205 19.912 0.692383 21.4458V25.055C0.69387 29.695 7.41357 30.6027 10.2091 27.595Z" fill="#EADCF6"/>
<path opacity="0.405" d="M10.2046 27.5847L21.3883 15.5801H17.6931C15.0805 16.9339 4.89907 19.9139 0.692383 21.4478V25.0462C0.69387 29.6878 7.4106 30.5908 10.2046 27.5847Z" fill="#E9DCF6"/>
<path opacity="0.408" d="M10.2012 27.572L21.3744 15.5781H17.6941C15.077 16.932 4.89559 19.912 0.693359 21.4458V25.032C0.693359 29.6797 7.40711 30.5781 10.2012 27.572Z" fill="#E9DCF6"/>
<path opacity="0.411" d="M10.1967 27.5616L21.361 15.5801H17.6941C15.0725 16.9339 4.89261 19.9139 0.693359 21.4478V25.0232C0.693359 29.6708 7.40414 30.5678 10.1967 27.5616Z" fill="#E9DBF6"/>
<path opacity="0.414" d="M10.1932 27.5489L21.3471 15.5781H17.6951C15.069 16.9304 4.89062 19.912 0.694336 21.4458V25.0089C0.692849 29.6612 7.40214 30.5535 10.1932 27.5489Z" fill="#E9DBF6"/>
<path opacity="0.4169" d="M10.1893 27.5385L21.3328 15.5801H17.6941C15.0636 16.9324 4.88667 19.9124 0.693359 21.4478V25.0001C0.693359 29.6555 7.39968 30.5447 10.1893 27.5385Z" fill="#E8DBF5"/>
<path opacity="0.4199" d="M10.1848 27.5278L21.3179 15.5801H17.6941C15.0592 16.9308 4.8837 19.9124 0.693359 21.4478V24.9878C0.693359 29.6478 7.39671 30.5324 10.1848 27.5278Z" fill="#E8DAF5"/>
<path opacity="0.4229" d="M10.1818 27.5155L21.3045 15.5801H17.6941C15.0547 16.9308 4.88072 19.9124 0.693359 21.4478V24.977C0.693359 29.6401 7.39374 30.5216 10.1818 27.5155Z" fill="#E8DAF5"/>
<path opacity="0.4259" d="M10.1774 27.5047L21.2896 15.5801H17.6941C15.0502 16.9293 4.87626 19.9124 0.693359 21.4478V24.9647C0.693359 29.6309 7.39225 30.5093 10.1774 27.5047Z" fill="#E8DAF5"/>
<path opacity="0.4289" d="M10.1734 27.4924L21.2753 15.5801H17.6931C15.0448 16.9293 4.87231 19.9124 0.692383 21.4478V24.9539C0.69387 29.6232 7.38978 30.497 10.1734 27.4924Z" fill="#E8D9F5"/>
<path opacity="0.4319" d="M10.1699 27.4816L21.2614 15.5801H17.6941C15.0413 16.9293 4.87031 19.9124 0.693359 21.4478V24.9416C0.693359 29.6155 7.38629 30.4862 10.1699 27.4816Z" fill="#E7D9F5"/>
<path opacity="0.4349" d="M10.166 27.4689L21.247 15.5781H17.6931C15.0359 16.9258 4.86636 19.9104 0.692383 21.4458V24.9289C0.69387 29.6074 7.38383 30.4735 10.166 27.4689Z" fill="#E7D9F5"/>
<path opacity="0.4379" d="M10.1615 27.4585L21.2322 15.5801H17.6931C15.0299 16.9278 4.86339 19.9108 0.692383 21.4478V24.9185C0.69387 29.6001 7.38086 30.4632 10.1615 27.4585Z" fill="#E7D8F5"/>
<path opacity="0.4409" d="M10.158 27.4458L21.2198 15.5781H17.6941C15.0265 16.9243 4.86139 19.9089 0.693359 21.4458V24.9058C0.693359 29.5904 7.37887 30.4504 10.158 27.4458Z" fill="#E7D8F5"/>
<path opacity="0.4439" d="M10.1536 27.4355L21.2049 15.5801H17.6941C15.022 16.9262 4.85842 19.9108 0.693359 21.4478V24.8955C0.693359 29.5832 7.37589 30.4401 10.1536 27.4355Z" fill="#E7D8F5"/>
<path opacity="0.4468" d="M10.1496 27.4227L21.1905 15.5781H17.6931C15.0165 16.9227 4.85298 19.9089 0.692383 21.4458V24.8812C0.69387 29.575 7.37342 30.4274 10.1496 27.4227Z" fill="#E6D7F5"/>
<path opacity="0.4498" d="M10.1461 27.4124L21.1766 15.5801H17.6941C15.0131 16.9247 4.85098 19.9108 0.693359 21.4478V24.8724C0.693359 29.5678 7.36994 30.4155 10.1461 27.4124Z" fill="#E6D7F5"/>
<path opacity="0.4528" d="M10.1417 27.4016L21.1618 15.5801H17.6941C15.0086 16.9247 4.84801 19.9108 0.693359 21.4478V24.8601C0.693359 29.5601 7.36697 30.4047 10.1417 27.4016Z" fill="#E6D7F4"/>
<path opacity="0.4558" d="M10.1387 27.3893L21.1484 15.5801H17.6941C15.0041 16.9232 4.84503 19.9108 0.693359 21.4478V24.8493C0.693359 29.5508 7.36548 30.3924 10.1387 27.3893Z" fill="#E6D6F4"/>
<path opacity="0.4588" d="M10.1343 27.3785L21.1335 15.5801H17.6941C14.9997 16.9232 4.84206 19.9093 0.693359 21.4478V24.837C0.693359 29.5432 7.3625 30.3816 10.1343 27.3785Z" fill="#E5D6F4"/>
<path opacity="0.4618" d="M10.1303 27.3662L21.1192 15.5801H17.6931C14.9942 16.9216 4.83811 19.9093 0.692383 21.4478V24.8262C0.69387 29.5355 7.36004 30.3693 10.1303 27.3662Z" fill="#E5D6F4"/>
<path opacity="0.4648" d="M10.1268 27.3555L21.1053 15.5801H17.6941C14.9908 16.9216 4.83462 19.9093 0.693359 21.4478V24.8139C0.693359 29.5278 7.35656 30.3585 10.1268 27.3555Z" fill="#E5D5F4"/>
<path opacity="0.4678" d="M10.1224 27.3427L21.0919 15.5781H17.6941C14.9863 16.9181 4.83165 19.9074 0.693359 21.4458V24.8012C0.693359 29.5197 7.35507 30.3458 10.1224 27.3427Z" fill="#E5D5F4"/>
<path opacity="0.4708" d="M10.1179 27.3324L21.077 15.5801H17.6941C14.9818 16.9201 4.82867 19.9093 0.693359 21.4478V24.7909C0.693359 29.5109 7.35209 30.3339 10.1179 27.3324Z" fill="#E5D5F4"/>
<path opacity="0.4738" d="M10.1149 27.3197L21.0636 15.5781H17.6941C14.9774 16.9166 4.8257 19.9074 0.693359 21.4458V24.7781C0.693359 29.5027 7.34912 30.3227 10.1149 27.3197Z" fill="#E4D4F4"/>
<path opacity="0.4767" d="M10.1105 27.3093L21.0487 15.5801H17.6941C14.9729 16.9185 4.82273 19.9093 0.693359 21.4478V24.7678C0.693359 29.4955 7.34615 30.3108 10.1105 27.3093Z" fill="#E4D4F4"/>
<path opacity="0.4797" d="M10.1065 27.2966L21.0344 15.5781H17.6931C14.9675 16.9166 4.81878 19.9058 0.692383 21.4458V24.755C0.69387 29.4874 7.34369 30.2997 10.1065 27.2966Z" fill="#E4D4F4"/>
<path opacity="0.4827" d="M10.103 27.2862L21.0205 15.5801H17.6941C14.964 16.917 4.81529 19.9078 0.693359 21.4478V24.7447C0.693359 29.4801 7.34169 30.2878 10.103 27.2862Z" fill="#E4D3F4"/>
<path opacity="0.4857" d="M10.0991 27.2755L21.0061 15.5801H17.6931C14.9585 16.917 4.81134 19.9078 0.692383 21.4478V24.7339C0.69387 29.4708 7.33922 30.2755 10.0991 27.2755Z" fill="#E4D3F3"/>
<path opacity="0.4887" d="M10.0956 27.2632L20.9922 15.5801H17.6941C14.9551 16.9155 4.80934 19.9078 0.693359 21.4478V24.7216C0.693359 29.4632 7.33573 30.2647 10.0956 27.2632Z" fill="#E3D3F3"/>
<path opacity="0.4917" d="M10.0916 27.2524L20.9779 15.5801H17.6931C14.9496 16.9155 4.80539 19.9078 0.692383 21.4478V24.7108C0.69387 29.4555 7.33327 30.2524 10.0916 27.2524Z" fill="#E3D2F3"/>
<path opacity="0.4947" d="M10.0867 27.2401L20.964 15.5801H17.6941C14.9461 16.9139 4.8034 19.9078 0.693359 21.4478V24.6985C0.693359 29.4478 7.32979 30.2416 10.0867 27.2401Z" fill="#E3D2F3"/>
<path opacity="0.4977" d="M10.0837 27.2293L20.9506 15.5801H17.6941C14.9417 16.9139 4.80042 19.9078 0.693359 21.4478V24.6878C0.693359 29.4401 7.32831 30.2293 10.0837 27.2293Z" fill="#E3D1F3"/>
<path opacity="0.5007" d="M10.0792 27.217L20.9357 15.5801H17.6941C14.9372 16.9139 4.79596 19.9062 0.693359 21.4478V24.6755C0.693359 29.4309 7.32533 30.2185 10.0792 27.217Z" fill="#E3D1F3"/>
<path opacity="0.5037" d="M10.0748 27.2062L20.9209 15.5801H17.6941C14.9328 16.9124 4.79299 19.9062 0.693359 21.4478V24.6647C0.693359 29.4232 7.32235 30.2062 10.0748 27.2062Z" fill="#E2D1F3"/>
<path opacity="0.5066" d="M10.0718 27.1935L20.9075 15.5781H17.6941C14.9283 16.9104 4.79001 19.9043 0.693359 21.4458V24.6504C0.693359 29.4151 7.31938 30.1935 10.0718 27.1935Z" fill="#E2D0F3"/>
<path opacity="0.5096" d="M10.0673 27.1832L20.8926 15.5801H17.6941C14.9239 16.9108 4.78704 19.9062 0.693359 21.4478V24.6401C0.693359 29.4078 7.31641 30.1832 10.0673 27.1832Z" fill="#E2D0F3"/>
<path opacity="0.5126" d="M10.0634 27.1704L20.8782 15.5781H17.6931C14.9184 16.9089 4.78309 19.9043 0.692383 21.4458V24.6274C0.69387 29.3981 7.31543 30.1704 10.0634 27.1704Z" fill="#E2D0F3"/>
<path opacity="0.5156" d="M10.0599 27.1601L20.8644 15.5801H17.6941C14.9149 16.9093 4.78109 19.9062 0.693359 21.4478V24.617C0.693359 29.3908 7.31195 30.1601 10.0599 27.1601Z" fill="#E1CFF3"/>
<path opacity="0.5186" d="M10.056 27.1474L20.85 15.5781H17.6931C14.9095 16.9074 4.77714 19.9043 0.692383 21.4458V24.6043C0.69387 29.3827 7.30949 30.1474 10.056 27.1474Z" fill="#E1CFF2"/>
<path opacity="0.5216" d="M10.0525 27.137L20.8361 15.5801H17.6941C14.906 16.9093 4.77366 19.9047 0.693359 21.4478V24.5939C0.693359 29.3755 7.306 30.137 10.0525 27.137Z" fill="#E1CFF2"/>
<path opacity="0.5246" d="M10.048 27.1262L20.8227 15.5801H17.6941C14.9015 16.9078 4.77068 19.9047 0.693359 21.4478V24.5832C0.693359 29.3678 7.30451 30.1247 10.048 27.1262Z" fill="#E1CEF2"/>
<path opacity="0.5276" d="M10.0435 27.1139L20.8079 15.5801H17.6941C14.8971 16.9078 4.76771 19.9047 0.693359 21.4478V24.5708C0.693359 29.3585 7.30154 30.1124 10.0435 27.1139Z" fill="#E1CEF2"/>
<path opacity="0.5306" d="M10.0406 27.1032L20.7945 15.5801H17.6941C14.8926 16.9062 4.76473 19.9047 0.693359 21.4478V24.5601C0.693359 29.3508 7.29856 30.1016 10.0406 27.1032Z" fill="#E0CEF2"/>
<path opacity="0.5336" d="M10.0361 27.0908L20.7796 15.5801H17.6941C14.8882 16.9062 4.76176 19.9047 0.693359 21.4478V24.5478C0.693359 29.3432 7.29559 30.0893 10.0361 27.0908Z" fill="#E0CDF2"/>
<path opacity="0.5365" d="M10.0322 27.0801L20.7653 15.5801H17.6931C14.8827 16.9047 4.75781 19.9047 0.692383 21.4478V24.537C0.69387 29.3355 7.29313 30.0785 10.0322 27.0801Z" fill="#E0CDF2"/>
<path opacity="0.5395" d="M10.0287 27.0674L20.7513 15.5781H17.6941C14.8792 16.9027 4.75433 19.9027 0.693359 21.4458V24.5227C0.693359 29.3274 7.29113 30.0658 10.0287 27.0674Z" fill="#E0CDF2"/>
<path opacity="0.5425" d="M10.0247 27.057L20.737 15.5801H17.6931C14.8738 16.9047 4.75038 19.9032 0.692383 21.4478V24.5139C0.69387 29.3185 7.28867 30.0555 10.0247 27.057Z" fill="#E0CCF2"/>
<path opacity="0.5455" d="M10.0203 27.0443L20.7221 15.5781H17.6931C14.8693 16.9012 4.7474 19.9012 0.692383 21.4458V24.4997C0.69387 29.3104 7.28569 30.0427 10.0203 27.0443Z" fill="#DFCCF2"/>
<path opacity="0.5485" d="M10.0173 27.0339L20.7087 15.5801H17.6931C14.8649 16.9032 4.74443 19.9032 0.692383 21.4478V24.4908C0.69387 29.3032 7.28272 30.0309 10.0173 27.0339Z" fill="#DFCCF2"/>
<path opacity="0.5515" d="M10.0123 27.0212L20.6949 15.5781H17.6941C14.8614 16.8997 4.74243 19.9012 0.693359 21.4458V24.4766C0.693359 29.295 7.27924 30.0197 10.0123 27.0212Z" fill="#DFCBF1"/>
<path opacity="0.5545" d="M10.0088 27.0089L20.681 15.5781H17.6951C14.8579 16.8997 4.74043 19.9012 0.694336 21.4458V24.4658C0.692849 29.2858 7.27724 30.0058 10.0088 27.0089Z" fill="#DFCBF1"/>
<path opacity="0.5575" d="M10.0049 27.0001L20.6666 15.5801H17.6941C14.8525 16.9001 4.735 19.9032 0.693359 21.4478V24.4555C0.693359 29.2785 7.27477 29.997 10.0049 27.0001Z" fill="#DECBF1"/>
<path opacity="0.5605" d="M10.0004 26.9878L20.6517 15.5801H17.6941C14.848 16.9001 4.73202 19.9032 0.693359 21.4478V24.4447C0.693359 29.2708 7.2718 29.9847 10.0004 26.9878Z" fill="#DECAF1"/>
<path opacity="0.5635" d="M9.99745 26.977L20.6383 15.5801H17.6941C14.8421 16.9001 4.72905 19.9016 0.693359 21.4478V24.4324C0.693359 29.2632 7.26882 29.9739 9.99745 26.977Z" fill="#DECAF1"/>
<path opacity="0.5664" d="M9.99299 26.9647L20.6235 15.5801H17.6941C14.8376 16.8985 4.72607 19.9016 0.693359 21.4478V24.4216C0.693359 29.2555 7.26585 29.9616 9.99299 26.9647Z" fill="#DECAF1"/>
<path opacity="0.5694" d="M9.98903 26.9539L20.6091 15.5801H17.6931C14.8322 16.8985 4.72212 19.9016 0.692383 21.4478V24.4093C0.69387 29.2478 7.26487 29.9493 9.98903 26.9539Z" fill="#DEC9F1"/>
<path opacity="0.5724" d="M9.98556 26.9416L20.5952 15.5801H17.6941C14.8287 16.897 4.72013 19.9016 0.693359 21.4478V24.397C0.693359 29.2385 7.26139 29.9385 9.98556 26.9416Z" fill="#DDC9F1"/>
<path opacity="0.5754" d="M9.9816 26.9308L20.5809 15.5801H17.6931C14.8232 16.897 4.71469 19.9016 0.692383 21.4478V24.3862C0.69387 29.2308 7.25893 29.9262 9.9816 26.9308Z" fill="#DDC9F1"/>
<path opacity="0.5784" d="M9.97663 26.9181L20.567 15.5781H17.6941C14.8197 16.8935 4.71269 19.8997 0.693359 21.4458V24.372C0.693359 29.2227 7.25544 29.915 9.97663 26.9181Z" fill="#DDC8F1"/>
<path opacity="0.5814" d="M9.97366 26.9078L20.5536 15.5801H17.6941C14.8153 16.8955 4.70972 19.9016 0.693359 21.4478V24.3632C0.693359 29.2155 7.25395 29.9032 9.97366 26.9078Z" fill="#DDC8F1"/>
<path opacity="0.5844" d="M9.96919 26.8951L20.5387 15.5781H17.6941C14.8108 16.892 4.70674 19.8981 0.693359 21.4458V24.3489C0.693359 29.2074 7.25098 29.892 9.96919 26.8951Z" fill="#DDC8F0"/>
<path opacity="0.5874" d="M9.96621 26.8847L20.5253 15.5801H17.6941C14.8064 16.8939 4.70377 19.9001 0.693359 21.4478V24.3401C0.693359 29.1985 7.248 29.8801 9.96621 26.8847Z" fill="#DCC7F0"/>
<path opacity="0.5904" d="M9.96176 26.8739L20.5105 15.5801H17.6941C14.8019 16.8939 4.7008 19.9001 0.693359 21.4478V24.3278C0.693359 29.1908 7.24503 29.8678 9.96176 26.8739Z" fill="#DCC7F0"/>
<path opacity="0.5934" d="M9.95781 26.8616L20.4961 15.5801H17.6931C14.7965 16.8924 4.69684 19.9001 0.692383 21.4478V24.317C0.69387 29.1832 7.24257 29.857 9.95781 26.8616Z" fill="#DCC7F0"/>
<path opacity="0.5963" d="M9.95432 26.8509L20.4822 15.5801H17.6941C14.793 16.8924 4.69336 19.9001 0.693359 21.4478V24.3047C0.693359 29.1755 7.24057 29.8447 9.95432 26.8509Z" fill="#DCC6F0"/>
<path opacity="0.5993" d="M9.95038 26.8385L20.4679 15.5801H17.6931C14.7876 16.8908 4.68941 19.9001 0.692383 21.4478V24.2939C0.69387 29.1678 7.23811 29.8339 9.95038 26.8385Z" fill="#DBC6F0"/>
<path opacity="0.6023" d="M9.94591 26.8278L20.453 15.5801H17.6931C14.7831 16.8908 4.68643 19.9001 0.692383 21.4478V24.2816C0.69387 29.1585 7.23513 29.8216 9.94591 26.8278Z" fill="#DBC6F0"/>
<path opacity="0.6053" d="M9.94192 26.8135L20.4401 15.5781H17.6951C14.7806 16.8874 4.68542 19.8966 0.694336 21.4458V24.2689C0.692849 29.1489 7.23114 29.8089 9.94192 26.8135Z" fill="#DBC5F0"/>
<path opacity="0.6083" d="M9.93797 26.8047L20.4257 15.5801H17.6941C14.7752 16.8893 4.68147 19.8985 0.693359 21.4478V24.2585C0.693359 29.1431 7.22868 29.7985 9.93797 26.8047Z" fill="#DBC5F0"/>
<path opacity="0.6113" d="M9.93351 26.792L20.4108 15.5781H17.6941C14.7707 16.8874 4.67849 19.8966 0.693359 21.4458V24.2458C0.693359 29.135 7.22719 29.7858 9.93351 26.792Z" fill="#DBC4F0"/>
<path opacity="0.6143" d="M9.93053 26.7816L20.3974 15.5801H17.6941C14.7662 16.8878 4.67403 19.8985 0.693359 21.4478V24.2355C0.693359 29.1278 7.22421 29.7755 9.93053 26.7816Z" fill="#DAC4F0"/>
<path opacity="0.6173" d="M9.92607 26.7689L20.3826 15.5781H17.6941C14.7618 16.8858 4.67105 19.8966 0.693359 21.4458V24.2227C0.693359 29.1181 7.22124 29.7627 9.92607 26.7689Z" fill="#DAC4EF"/>
<path opacity="0.6203" d="M9.92212 26.7585L20.3682 15.5801H17.6931C14.7563 16.8862 4.6671 19.8985 0.692383 21.4478V24.2124C0.69387 29.1108 7.21878 29.7524 9.92212 26.7585Z" fill="#DAC3EF"/>
<path opacity="0.6233" d="M9.91863 26.7458L20.3543 15.5781H17.6941C14.7528 16.8843 4.6651 19.8966 0.693359 21.4458V24.1997C0.693359 29.1027 7.21678 29.7397 9.91863 26.7458Z" fill="#DAC3EF"/>
<path opacity="0.6262" d="M9.91469 26.7355L20.34 15.5801H17.6931C14.7474 16.8847 4.66116 19.897 0.692383 21.4478V24.1893C0.69387 29.0955 7.21432 29.7278 9.91469 26.7355Z" fill="#DAC3EF"/>
<path opacity="0.6292" d="M9.9112 26.7247L20.3261 15.5801H17.6941C14.7439 16.8847 4.65916 19.897 0.693359 21.4478V24.1785C0.693359 29.0862 7.21083 29.717 9.9112 26.7247Z" fill="#D9C2EF"/>
<path opacity="0.6322" d="M9.90726 26.7124L20.3117 15.5801H17.6931C14.7385 16.8847 4.65372 19.897 0.692383 21.4478V24.1662C0.69387 29.0785 7.20837 29.7047 9.90726 26.7124Z" fill="#D9C2EF"/>
<path opacity="0.6352" d="M9.90228 26.7016L20.2978 15.5801H17.6941C14.735 16.8832 4.65172 19.897 0.693359 21.4478V24.1539C0.693359 29.0708 7.20489 29.6939 9.90228 26.7016Z" fill="#D9C2EF"/>
<path opacity="0.6382" d="M9.8993 26.6893L20.2844 15.5801H17.6941C14.7305 16.8832 4.64875 19.897 0.693359 21.4478V24.1432C0.693359 29.0632 7.20339 29.6816 9.8993 26.6893Z" fill="#D9C1EF"/>
<path opacity="0.6412" d="M9.89484 26.6785L20.2696 15.5801H17.6941C14.7261 16.8816 4.64577 19.897 0.693359 21.4478V24.1308C0.693359 29.0555 7.20042 29.6708 9.89484 26.6785Z" fill="#D9C1EF"/>
<path opacity="0.6442" d="M9.8909 26.6658L20.2552 15.5781H17.6931C14.7206 16.8797 4.64183 19.8935 0.692383 21.4458V24.1181C0.69387 29.0458 7.19796 29.6581 9.8909 26.6658Z" fill="#D8C1EF"/>
<path opacity="0.6472" d="M9.88741 26.6555L20.2413 15.5801H17.6941C14.7172 16.8801 4.63983 19.8955 0.693359 21.4478V24.1078C0.693359 29.0385 7.19448 29.6462 9.88741 26.6555Z" fill="#D8C0EF"/>
<path opacity="0.6502" d="M9.88295 26.6427L20.2264 15.5781H17.6941C14.7127 16.8781 4.63537 19.8935 0.693359 21.4458V24.095C0.693359 29.0304 7.1915 29.635 9.88295 26.6427Z" fill="#D8C0EE"/>
<path opacity="0.6532" d="M9.879 26.6324L20.2121 15.5801H17.6931C14.7073 16.8801 4.63142 19.8955 0.692383 21.4478V24.0847C0.69387 29.0231 7.19053 29.6232 9.879 26.6324Z" fill="#D8C0EE"/>
<path opacity="0.6561" d="M9.87551 26.6197L20.1982 15.5781H17.6941C14.7038 16.8766 4.62942 19.8935 0.693359 21.4458V24.072C0.693359 29.015 7.18704 29.612 9.87551 26.6197Z" fill="#D7BFEE"/>
<path opacity="0.6591" d="M9.87156 26.6093L20.1838 15.5801H17.6931C14.6983 16.8785 4.62547 19.8955 0.692383 21.4478V24.0616C0.69387 29.0062 7.18457 29.6001 9.87156 26.6093Z" fill="#D7BFEE"/>
<path opacity="0.6621" d="M9.86757 26.5966L20.1709 15.5781H17.6951C14.6958 16.875 4.62445 19.8935 0.694336 21.4458V24.0489C0.692849 28.9966 7.18058 29.5874 9.86757 26.5966Z" fill="#D7BFEE"/>
<path opacity="0.6651" d="M9.86362 26.5862L20.1566 15.5801H17.6941C14.6904 16.877 4.6205 19.8939 0.693359 21.4478V24.0385C0.693359 28.9908 7.17812 29.577 9.86362 26.5862Z" fill="#D7BEEE"/>
<path opacity="0.6681" d="M9.85916 26.5755L20.1417 15.5801H17.6941C14.6859 16.8755 4.61604 19.8939 0.693359 21.4478V24.0278C0.693359 28.9832 7.17663 29.5647 9.85916 26.5755Z" fill="#D7BEEE"/>
<path opacity="0.6711" d="M9.85619 26.5632L20.1283 15.5801H17.6941C14.6815 16.8755 4.61306 19.8939 0.693359 21.4478V24.0155C0.693359 28.9755 7.17366 29.5539 9.85619 26.5632Z" fill="#D6BEEE"/>
<path opacity="0.6741" d="M9.85172 26.5524L20.1134 15.5801H17.6941C14.677 16.8755 4.61009 19.8939 0.693359 21.4478V24.0047C0.693359 28.9662 7.17068 29.5416 9.85172 26.5524Z" fill="#D6BDEE"/>
<path opacity="0.6771" d="M9.84777 26.5401L20.0991 15.5801H17.6931C14.6716 16.8739 4.60614 19.8939 0.692383 21.4478V23.9924C0.69387 28.9585 7.16822 29.5308 9.84777 26.5401Z" fill="#D6BDEE"/>
<path opacity="0.6801" d="M9.84429 26.5293L20.0852 15.5801H17.6941C14.6681 16.8739 4.60414 19.8939 0.693359 21.4478V23.9816C0.693359 28.9508 7.16622 29.5185 9.84429 26.5293Z" fill="#D6BDEE"/>
<path opacity="0.6831" d="M9.84034 26.5166L20.0708 15.5781H17.6931C14.6626 16.8704 4.60019 19.892 0.692383 21.4458V23.9674C0.69387 28.9427 7.16376 29.5074 9.84034 26.5166Z" fill="#D6BCEE"/>
<path opacity="0.686" d="M9.83588 26.5062L20.0559 15.5801H17.6931C14.6567 16.8724 4.59721 19.8924 0.692383 21.4478V23.9585C0.69387 28.9355 7.16078 29.4955 9.83588 26.5062Z" fill="#D5BCED"/>
<path opacity="0.689" d="M9.8324 26.4935L20.0436 15.5781H17.6941C14.6532 16.8689 4.59373 19.8904 0.693359 21.4458V23.9443C0.693359 28.9258 7.1573 29.4827 9.8324 26.4935Z" fill="#D5BCED"/>
<path opacity="0.692" d="M9.82793 26.4832L20.0287 15.5801H17.6941C14.6488 16.8708 4.59076 19.8924 0.693359 21.4478V23.9355C0.693359 28.9185 7.15433 29.4724 9.82793 26.4832Z" fill="#D5BBED"/>
<path opacity="0.695" d="M9.82495 26.4724L20.0153 15.5801H17.6941C14.6443 16.8693 4.58778 19.8924 0.693359 21.4478V23.9232C0.693359 28.9109 7.15284 29.4601 9.82495 26.4724Z" fill="#D5BBED"/>
<path opacity="0.698" d="M9.8205 26.4601L20.0004 15.5801H17.6941C14.6398 16.8693 4.58481 19.8924 0.693359 21.4478V23.9108C0.693359 28.9032 7.14987 29.4493 9.8205 26.4601Z" fill="#D4BBED"/>
<path opacity="0.701" d="M9.81604 26.4493L19.9856 15.5801H17.6941C14.6354 16.8693 4.58184 19.8924 0.693359 21.4478V23.9001C0.693359 28.8955 7.14689 29.437 9.81604 26.4493Z" fill="#D4BAED"/>
<path opacity="0.704" d="M9.81306 26.437L19.9722 15.5801H17.6941C14.6309 16.8678 4.57886 19.8924 0.693359 21.4478V23.8878C0.693359 28.8862 7.14392 29.4262 9.81306 26.437Z" fill="#D4BAED"/>
<path opacity="0.707" d="M9.8086 26.4262L19.9573 15.5801H17.6941C14.6264 16.8678 4.5744 19.8908 0.693359 21.4478V23.877C0.693359 28.8785 7.14094 29.4139 9.8086 26.4262Z" fill="#D4BAED"/>
<path opacity="0.71" d="M9.80465 26.4139L19.9429 15.5801H17.6931C14.621 16.8662 4.57045 19.8908 0.692383 21.4478V23.8647C0.69387 28.8708 7.13997 29.4016 9.80465 26.4139Z" fill="#D4B9ED"/>
<path opacity="0.713" d="M9.80117 26.4032L19.929 15.5801H17.6941C14.6175 16.8662 4.56845 19.8908 0.693359 21.4478V23.8539C0.693359 28.8632 7.13648 29.3909 9.80117 26.4032Z" fill="#D3B9ED"/>
<path opacity="0.7159" d="M9.79722 26.3904L19.9147 15.5781H17.6931C14.6121 16.8627 4.5645 19.8889 0.692383 21.4458V23.8397C0.69387 28.8551 7.13402 29.3781 9.79722 26.3904Z" fill="#D3B9ED"/>
<path opacity="0.7189" d="M9.79225 26.3801L19.9008 15.5801H17.6941C14.6086 16.8647 4.56251 19.8908 0.693359 21.4478V23.8309C0.693359 28.8462 7.13054 29.3678 9.79225 26.3801Z" fill="#D3B8EC"/>
<path opacity="0.7219" d="M9.78927 26.3674L19.8874 15.5781H17.6941C14.6041 16.8627 4.55953 19.8889 0.693359 21.4458V23.8166C0.693359 28.8381 7.12756 29.3551 9.78927 26.3674Z" fill="#D3B8EC"/>
<path opacity="0.7249" d="M9.78481 26.357L19.8725 15.5801H17.6941C14.5997 16.8632 4.55507 19.8908 0.693359 21.4478V23.8078C0.693359 28.8308 7.12607 29.3447 9.78481 26.357Z" fill="#D3B7EC"/>
<path opacity="0.7279" d="M9.78184 26.3443L19.8592 15.5781H17.6941C14.5952 16.8612 4.5521 19.8874 0.693359 21.4458V23.7935C0.693359 28.8227 7.1231 29.332 9.78184 26.3443Z" fill="#D2B7EC"/>
<path opacity="0.7309" d="M9.77737 26.3339L19.8443 15.5801H17.6941C14.5908 16.8616 4.54912 19.8893 0.693359 21.4478V23.7847C0.693359 28.8155 7.12012 29.3201 9.77737 26.3339Z" fill="#D2B7EC"/>
<path opacity="0.7339" d="M9.77343 26.3232L19.8299 15.5801H17.6931C14.5853 16.8616 4.54517 19.8893 0.692383 21.4478V23.7724C0.69387 28.8062 7.11766 29.3093 9.77343 26.3232Z" fill="#D2B6EC"/>
<path opacity="0.7369" d="M9.76994 26.3108L19.816 15.5801H17.6941C14.5818 16.8601 4.54317 19.8893 0.693359 21.4478V23.7616C0.693359 28.7985 7.11566 29.297 9.76994 26.3108Z" fill="#D2B6EC"/>
<path opacity="0.7399" d="M9.76599 26.3001L19.8017 15.5801H17.6931C14.5764 16.8601 4.53922 19.8893 0.692383 21.4478V23.7493C0.69387 28.7908 7.1132 29.2862 9.76599 26.3001Z" fill="#D1B6EC"/>
<path opacity="0.7429" d="M9.76153 26.2878L19.7868 15.5801H17.6931C14.5719 16.8601 4.53476 19.8893 0.692383 21.4478V23.7385C0.69387 28.7832 7.11022 29.2739 9.76153 26.2878Z" fill="#D1B5EC"/>
<path opacity="0.7458" d="M9.75804 26.277L19.7744 15.5801H17.6941C14.5684 16.8585 4.53276 19.8893 0.693359 21.4478V23.7262C0.693359 28.7739 7.10674 29.2616 9.75804 26.277Z" fill="#D1B5EC"/>
<path opacity="0.7488" d="M9.75358 26.2643L19.7595 15.5781H17.6941C14.564 16.8566 4.52979 19.8858 0.693359 21.4458V23.7135C0.693359 28.7658 7.10377 29.2504 9.75358 26.2643Z" fill="#D1B5EC"/>
<path opacity="0.7518" d="M9.74912 26.2539L19.7447 15.5801H17.6941C14.5595 16.857 4.52682 19.8878 0.693359 21.4478V23.7032C0.693359 28.7585 7.10228 29.2385 9.74912 26.2539Z" fill="#D1B4EB"/>
<path opacity="0.7548" d="M9.74615 26.2412L19.7313 15.5781H17.6941C14.5551 16.855 4.52384 19.8858 0.693359 21.4458V23.6904C0.693359 28.7504 7.09931 29.2274 9.74615 26.2412Z" fill="#D0B4EB"/>
<path opacity="0.7578" d="M9.74168 26.2308L19.7164 15.5801H17.6941C14.5506 16.8555 4.52087 19.8878 0.693359 21.4478V23.6801C0.693359 28.7432 7.09633 29.2155 9.74168 26.2308Z" fill="#D0B4EB"/>
<path opacity="0.7608" d="M9.73871 26.2181L19.703 15.5781H17.6941C14.5461 16.8535 4.51789 19.8858 0.693359 21.4458V23.6658C0.693359 28.7335 7.09336 29.2043 9.73871 26.2181Z" fill="#D0B3EB"/>
<path opacity="0.7638" d="M9.73425 26.2078L19.6882 15.5801H17.6941C14.5417 16.8555 4.51343 19.8878 0.693359 21.4478V23.657C0.693359 28.7262 7.09039 29.1924 9.73425 26.2078Z" fill="#D0B3EB"/>
<path opacity="0.7668" d="M9.7303 26.197L19.6738 15.5801H17.6931C14.5362 16.8539 4.50948 19.8878 0.692383 21.4478V23.6447C0.69387 28.7185 7.08941 29.1801 9.7303 26.197Z" fill="#D0B3EB"/>
<path opacity="0.7698" d="M9.72681 26.1847L19.6599 15.5801H17.6941C14.5328 16.8539 4.50748 19.8862 0.693359 21.4478V23.6339C0.693359 28.7109 7.08592 29.1693 9.72681 26.1847Z" fill="#CFB2EB"/>
<path opacity="0.7728" d="M9.72236 26.1739L19.6465 15.5801H17.6941C14.5283 16.8524 4.50451 19.8862 0.693359 21.4478V23.6216C0.693359 28.7032 7.08295 29.157 9.72236 26.1739Z" fill="#CFB2EB"/>
<path opacity="0.7757" d="M9.71789 26.1616L19.6316 15.5801H17.6941C14.5238 16.8524 4.50154 19.8862 0.693359 21.4478V23.6108C0.693359 28.6939 7.07998 29.1462 9.71789 26.1616Z" fill="#CFB2EB"/>
<path opacity="0.7787" d="M9.71492 26.1508L19.6183 15.5801H17.6941C14.5194 16.8508 4.49857 19.8862 0.693359 21.4478V23.5985C0.693359 28.6862 7.07849 29.1339 9.71492 26.1508Z" fill="#CFB1EB"/>
<path opacity="0.7817" d="M9.71046 26.1385L19.6034 15.5801H17.6941C14.5149 16.8508 4.4941 19.8862 0.693359 21.4478V23.5878C0.693359 28.6785 7.07552 29.1232 9.71046 26.1385Z" fill="#CFB1EB"/>
<path opacity="0.7847" d="M9.7065 26.1278L19.589 15.5801H17.6931C14.5095 16.8508 4.49015 19.8862 0.692383 21.4478V23.5755C0.69387 28.6708 7.07305 29.1108 9.7065 26.1278Z" fill="#CEB1EA"/>
<path opacity="0.7877" d="M9.70302 26.1151L19.5751 15.5781H17.6941C14.506 16.8474 4.48815 19.8843 0.693359 21.4458V23.5627C0.693359 28.6627 7.06957 29.0981 9.70302 26.1151Z" fill="#CEB0EA"/>
<path opacity="0.7907" d="M9.69908 26.1047L19.5608 15.5801H17.6931C14.5006 16.8493 4.4842 19.8847 0.692383 21.4478V23.5524C0.69387 28.6539 7.06711 29.0878 9.69908 26.1047Z" fill="#CEB0EA"/>
<path opacity="0.7937" d="M9.69462 26.092L19.5459 15.5781H17.6931C14.4961 16.8458 4.48123 19.8827 0.692383 21.4458V23.5397C0.69387 28.6458 7.06562 29.075 9.69462 26.092Z" fill="#CEB0EA"/>
<path opacity="0.7967" d="M9.69164 26.0816L19.5325 15.5801H17.6931C14.4916 16.8478 4.47826 19.8847 0.692383 21.4478V23.5293C0.69387 28.6385 7.06265 29.0647 9.69164 26.0816Z" fill="#CDAFEA"/>
<path opacity="0.7997" d="M9.68667 26.0689L19.5186 15.5781H17.6941C14.4882 16.8443 4.47477 19.8827 0.693359 21.4458V23.5166C0.693359 28.6304 7.05916 29.052 9.68667 26.0689Z" fill="#CDAFEA"/>
<path opacity="0.8027" d="M9.68318 26.0566L19.5047 15.5781H17.6951C14.4847 16.8443 4.47278 19.8827 0.694336 21.4458V23.5043C0.692849 28.6212 7.05568 29.0397 9.68318 26.0566Z" fill="#CDAFEA"/>
<path opacity="0.8056" d="M9.67923 26.0478L19.4904 15.5801H17.6941C14.4792 16.8462 4.46882 19.8847 0.693359 21.4478V23.4955C0.693359 28.6139 7.05321 29.0293 9.67923 26.0478Z" fill="#CDAEEA"/>
<path opacity="0.8086" d="M9.67478 26.0355L19.4755 15.5801H17.6941C14.4748 16.8447 4.46585 19.8847 0.693359 21.4478V23.4832C0.693359 28.6062 7.05173 29.017 9.67478 26.0355Z" fill="#CDAEEA"/>
<path opacity="0.8116" d="M9.6718 26.0247L19.4621 15.5801H17.6941C14.4688 16.8447 4.46288 19.8832 0.693359 21.4478V23.4724C0.693359 28.5985 7.04875 29.0062 9.6718 26.0247Z" fill="#CCAEEA"/>
<path opacity="0.8146" d="M9.66734 26.0124L19.4473 15.5801H17.6941C14.4644 16.8432 4.4599 19.8832 0.693359 21.4478V23.4601C0.693359 28.5909 7.04577 28.9939 9.66734 26.0124Z" fill="#CCADEA"/>
<path opacity="0.8176" d="M9.66339 26.0016L19.4329 15.5801H17.6931C14.4589 16.8432 4.45447 19.8832 0.692383 21.4478V23.4493C0.69387 28.5832 7.04331 28.9832 9.66339 26.0016Z" fill="#CCADE9"/>
<path opacity="0.8206" d="M9.6599 25.9889L19.419 15.5781H17.6941C14.4554 16.8397 4.45247 19.8812 0.693359 21.4458V23.435C0.693359 28.5735 7.03983 28.9704 9.6599 25.9889Z" fill="#CCADE9"/>
<path opacity="0.8236" d="M9.65595 25.9785L19.4046 15.5801H17.6931C14.45 16.8416 4.44852 19.8832 0.692383 21.4478V23.4262C0.69387 28.5662 7.03885 28.9601 9.65595 25.9785Z" fill="#CCACE9"/>
<path opacity="0.8266" d="M9.65149 25.9658L19.3898 15.5781H17.6931C14.4455 16.8381 4.44554 19.8812 0.692383 21.4458V23.412C0.69387 28.5581 7.03588 28.9474 9.65149 25.9658Z" fill="#CBACE9"/>
<path opacity="0.8296" d="M9.648 25.9555L19.3774 15.5801H17.6941C14.4421 16.8401 4.44354 19.8832 0.693359 21.4478V23.4016C0.693359 28.5508 7.03239 28.9355 9.648 25.9555Z" fill="#CBACE9"/>
<path opacity="0.8326" d="M9.64354 25.9427L19.3625 15.5781H17.6941C14.4376 16.8381 4.44057 19.8797 0.693359 21.4458V23.3889C0.693359 28.5427 7.02942 28.9243 9.64354 25.9427Z" fill="#CBABE9"/>
<path opacity="0.8355" d="M9.64057 25.9324L19.3491 15.5801H17.6941C14.4331 16.8385 4.4376 19.8816 0.693359 21.4478V23.3785C0.693359 28.5339 7.02793 28.9124 9.64057 25.9324Z" fill="#CBABE9"/>
<path opacity="0.8385" d="M9.63611 25.9216L19.3343 15.5801H17.6941C14.4287 16.8385 4.43314 19.8816 0.693359 21.4478V23.3678C0.693359 28.5262 7.02496 28.9016 9.63611 25.9216Z" fill="#CAAAE9"/>
<path opacity="0.8415" d="M9.63216 25.9093L19.3199 15.5801H17.6931C14.4232 16.837 4.42918 19.8816 0.692383 21.4478V23.3555C0.69387 28.5185 7.02249 28.8893 9.63216 25.9093Z" fill="#CAAAE9"/>
<path opacity="0.8445" d="M9.62868 25.8985L19.306 15.5801H17.6941C14.4198 16.837 4.42719 19.8816 0.693359 21.4478V23.3447C0.693359 28.5109 7.01901 28.8785 9.62868 25.8985Z" fill="#CAAAE9"/>
<path opacity="0.8475" d="M9.62472 25.8862L19.2916 15.5801H17.6931C14.4143 16.8355 4.42324 19.8816 0.692383 21.4478V23.3324C0.69387 28.5032 7.01655 28.8662 9.62472 25.8862Z" fill="#CAA9E9"/>
<path opacity="0.8505" d="M9.62027 25.8755L19.2768 15.5801H17.6931C14.4099 16.8355 4.42026 19.8816 0.692383 21.4478V23.3216C0.69387 28.4939 7.01506 28.8539 9.62027 25.8755Z" fill="#CAA9E8"/>
<path opacity="0.8535" d="M9.61678 25.8627L19.2629 15.5781H17.6941C14.4064 16.8335 4.41827 19.8781 0.693359 21.4458V23.3074C0.693359 28.4858 7.01157 28.8427 9.61678 25.8627Z" fill="#C9A9E8"/>
<path opacity="0.8565" d="M9.61232 25.8524L19.2495 15.5801H17.6941C14.4019 16.8339 4.41381 19.8801 0.693359 21.4478V23.2985C0.693359 28.4785 7.0086 28.8308 9.61232 25.8524Z" fill="#C9A8E8"/>
<path opacity="0.8595" d="M9.60786 25.8397L19.2346 15.5781H17.6941C14.3974 16.832 4.41083 19.8781 0.693359 21.4458V23.2843C0.693359 28.4704 7.00563 28.8197 9.60786 25.8397Z" fill="#C9A8E8"/>
<path opacity="0.8625" d="M9.60489 25.8293L19.2212 15.5801H17.6941C14.393 16.8324 4.40786 19.8801 0.693359 21.4478V23.2755C0.693359 28.4632 7.00265 28.8078 9.60489 25.8293Z" fill="#C9A8E8"/>
<path opacity="0.8654" d="M9.60043 25.8166L19.2064 15.5781H17.6941C14.3885 16.8304 4.40488 19.8781 0.693359 21.4458V23.2612C0.693359 28.4535 7.00117 28.7966 9.60043 25.8166Z" fill="#C9A7E8"/>
<path opacity="0.8684" d="M9.59744 25.8062L19.193 15.5801H17.6941C14.3841 16.8308 4.40191 19.8801 0.693359 21.4478V23.2524C0.693359 28.4462 6.99819 28.7847 9.59744 25.8062Z" fill="#C8A7E8"/>
<path opacity="0.8714" d="M9.59299 25.7955L19.1781 15.5801H17.6941C14.3796 16.8308 4.39893 19.8801 0.693359 21.4478V23.2401C0.693359 28.4385 6.99522 28.7724 9.59299 25.7955Z" fill="#C8A7E8"/>
<path opacity="0.8744" d="M9.58904 25.7832L19.1638 15.5801H17.6931C14.3742 16.8308 4.3935 19.8785 0.692383 21.4478V23.2293C0.69387 28.4308 6.99276 28.7616 9.58904 25.7832Z" fill="#C8A6E8"/>
<path opacity="0.8774" d="M9.58555 25.7724L19.1499 15.5801H17.6941C14.3707 16.8293 4.3915 19.8785 0.693359 21.4478V23.217C0.693359 28.4216 6.98927 28.7493 9.58555 25.7724Z" fill="#C8A6E8"/>
<path opacity="0.8804" d="M9.58161 25.7601L19.1355 15.5801H17.6931C14.3653 16.8293 4.38755 19.8785 0.692383 21.4478V23.2062C0.69387 28.4139 6.9883 28.7385 9.58161 25.7601Z" fill="#C8A6E8"/>
<path opacity="0.8834" d="M9.57663 25.7493L19.1216 15.5801H17.6941C14.3618 16.8278 4.38555 19.8785 0.693359 21.4478V23.1939C0.693359 28.4062 6.98481 28.7262 9.57663 25.7493Z" fill="#C7A5E7"/>
<path opacity="0.8864" d="M9.57365 25.737L19.1082 15.5801H17.6941C14.3573 16.8278 4.38258 19.8785 0.693359 21.4478V23.1832C0.693359 28.3985 6.98183 28.7139 9.57365 25.737Z" fill="#C7A5E7"/>
<path opacity="0.8894" d="M9.5692 25.7262L19.0934 15.5801H17.6941C14.3528 16.8262 4.37961 19.8785 0.693359 21.4478V23.1708C0.693359 28.3908 6.97886 28.7032 9.5692 25.7262Z" fill="#C7A5E7"/>
<path opacity="0.8924" d="M9.56525 25.7135L19.079 15.5781H17.6931C14.3474 16.8243 4.37417 19.8766 0.692383 21.4458V23.1597C0.69387 28.3812 6.97788 28.6904 9.56525 25.7135Z" fill="#C7A4E7"/>
<path opacity="0.8953" d="M9.56176 25.7032L19.0651 15.5801H17.6941C14.3439 16.8262 4.37217 19.877 0.693359 21.4478V23.1478C0.693359 28.3739 6.9744 28.6801 9.56176 25.7032Z" fill="#C6A4E7"/>
<path opacity="0.8983" d="M9.5573 25.6904L19.0502 15.5781H17.6941C14.3395 16.8227 4.36919 19.875 0.693359 21.4458V23.1335C0.693359 28.3658 6.97142 28.6674 9.5573 25.6904Z" fill="#C6A4E7"/>
<path opacity="0.9013" d="M9.55433 25.6801L19.0369 15.5801H17.6941C14.335 16.8247 4.36622 19.877 0.693359 21.4478V23.1247C0.693359 28.3585 6.96845 28.657 9.55433 25.6801Z" fill="#C6A3E7"/>
<path opacity="0.9043" d="M9.54987 25.6674L19.022 15.5781H17.6941C14.3305 16.8212 4.36325 19.875 0.693359 21.4458V23.1104C0.693359 28.3504 6.96548 28.6443 9.54987 25.6674Z" fill="#C6A3E7"/>
<path opacity="0.9073" d="M9.54592 25.657L19.0076 15.5801H17.6931C14.3251 16.8232 4.3593 19.877 0.692383 21.4478V23.1016C0.69387 28.3416 6.96451 28.6324 9.54592 25.657Z" fill="#C6A3E7"/>
<path opacity="0.9103" d="M9.54192 25.6443L18.9947 15.5781H17.6951C14.3226 16.8197 4.35828 19.875 0.694336 21.4458V23.0874C0.692849 28.332 6.96051 28.6197 9.54192 25.6443Z" fill="#C5A2E7"/>
<path opacity="0.9133" d="M9.53797 25.6339L18.9803 15.5801H17.6941C14.3171 16.8216 4.35284 19.877 0.693359 21.4478V23.0785C0.693359 28.3262 6.95804 28.6093 9.53797 25.6339Z" fill="#C5A2E7"/>
<path opacity="0.9163" d="M9.53351 25.6232L18.9655 15.5801H17.6941C14.3127 16.8216 4.34987 19.8755 0.693359 21.4478V23.0662C0.693359 28.3185 6.95507 28.5985 9.53351 25.6232Z" fill="#C5A2E7"/>
<path opacity="0.9193" d="M9.53054 25.6108L18.9521 15.5801H17.6941C14.3082 16.8201 4.34689 19.8755 0.693359 21.4478V23.0555C0.693359 28.3109 6.9521 28.5862 9.53054 25.6108Z" fill="#C5A1E6"/>
<path opacity="0.9223" d="M9.52607 25.6001L18.9372 15.5801H17.6941C14.3038 16.8201 4.34392 19.8755 0.693359 21.4478V23.0432C0.693359 28.3016 6.95061 28.5755 9.52607 25.6001Z" fill="#C5A1E6"/>
<path opacity="0.9252" d="M9.52212 25.5874L18.9229 15.5781H17.6931C14.2983 16.8166 4.33997 19.8735 0.692383 21.4458V23.0304C0.69387 28.2935 6.94815 28.5627 9.52212 25.5874Z" fill="#C4A1E6"/>
<path opacity="0.9282" d="M9.51864 25.577L18.909 15.5801H17.6941C14.2948 16.8185 4.33797 19.8755 0.693359 21.4478V23.0201C0.693359 28.2862 6.94466 28.5508 9.51864 25.577Z" fill="#C4A0E6"/>
<path opacity="0.9312" d="M9.51469 25.5643L18.8946 15.5781H17.6931C14.2894 16.815 4.33253 19.8735 0.692383 21.4458V23.0074C0.69387 28.2781 6.9422 28.5397 9.51469 25.5643Z" fill="#C4A0E6"/>
<path opacity="0.9342" d="M9.5112 25.5539L18.8807 15.5801H17.6941C14.2844 16.817 4.33053 19.8755 0.693359 21.4478V22.997C0.693359 28.2709 6.9402 28.5278 9.5112 25.5539Z" fill="#C4A0E6"/>
<path opacity="0.9372" d="M9.50725 25.5412L18.8664 15.5781H17.6931C14.279 16.815 4.32658 19.872 0.692383 21.4458V22.9843C0.69387 28.2612 6.93774 28.5166 9.50725 25.5412Z" fill="#C39FE6"/>
<path opacity="0.9402" d="M9.50228 25.5308L18.8525 15.5801H17.6941C14.2755 16.8155 4.32459 19.8739 0.693359 21.4478V22.9739C0.693359 28.2539 6.93425 28.5047 9.50228 25.5308Z" fill="#C39FE6"/>
<path opacity="0.9432" d="M9.49931 25.5201L18.8391 15.5801H17.6941C14.2711 16.8155 4.32161 19.8739 0.693359 21.4478V22.9632C0.693359 28.2462 6.93128 28.4939 9.49931 25.5201Z" fill="#C39FE6"/>
<path opacity="0.9462" d="M9.49485 25.5078L18.8242 15.5801H17.6941C14.2666 16.8139 4.31864 19.8739 0.693359 21.4478V22.9508C0.693359 28.2385 6.9283 28.4816 9.49485 25.5078Z" fill="#C39EE6"/>
<path opacity="0.9492" d="M9.49039 25.497L18.8094 15.5801H17.6941C14.2621 16.8139 4.31418 19.8739 0.693359 21.4478V22.9401C0.693359 28.2309 6.92682 28.4693 9.49039 25.497Z" fill="#C39EE6"/>
<path opacity="0.9522" d="M9.48741 25.4847L18.796 15.5801H17.6941C14.2577 16.8124 4.3112 19.8739 0.693359 21.4478V22.9278C0.693359 28.2216 6.92384 28.4585 9.48741 25.4847Z" fill="#C29DE5"/>
<path opacity="0.9552" d="M9.48295 25.4739L18.7811 15.5801H17.6941C14.2532 16.8124 4.30823 19.8739 0.693359 21.4478V22.9155C0.693359 28.2139 6.92087 28.4462 9.48295 25.4739Z" fill="#C29DE5"/>
<path opacity="0.9581" d="M9.479 25.4616L18.7667 15.5801H17.6931C14.2478 16.8108 4.30428 19.8724 0.692383 21.4478V22.9047C0.69387 28.2062 6.9184 28.4355 9.479 25.4616Z" fill="#C29DE5"/>
<path opacity="0.9611" d="M9.47552 25.4508L18.7528 15.5801H17.6941C14.2443 16.8108 4.30228 19.8724 0.693359 21.4478V22.8924C0.693359 28.1985 6.91492 28.4232 9.47552 25.4508Z" fill="#C29CE5"/>
<path opacity="0.9641" d="M9.47157 25.4381L18.7385 15.5781H17.6931C14.2389 16.8089 4.29833 19.8704 0.692383 21.4458V22.8797C0.69387 28.1904 6.91395 28.412 9.47157 25.4381Z" fill="#C29CE5"/>
<path opacity="0.9671" d="M9.46659 25.4278L18.7246 15.5801H17.6941C14.2354 16.8093 4.29485 19.8724 0.693359 21.4478V22.8693C0.693359 28.1816 6.91046 28.4001 9.46659 25.4278Z" fill="#C19CE5"/>
<path opacity="0.9701" d="M9.46362 25.415L18.7112 15.5781H17.6941C14.2309 16.8074 4.29187 19.8704 0.693359 21.4458V22.8566C0.693359 28.1735 6.90748 28.3874 9.46362 25.415Z" fill="#C19BE5"/>
<path opacity="0.9731" d="M9.45916 25.4047L18.6963 15.5801H17.6941C14.2264 16.8078 4.2889 19.8724 0.693359 21.4478V22.8462C0.693359 28.1662 6.90451 28.377 9.45916 25.4047Z" fill="#C19BE5"/>
<path opacity="0.9761" d="M9.45618 25.3939L18.683 15.5801H17.6941C14.222 16.8078 4.28592 19.8724 0.693359 21.4478V22.8355C0.693359 28.1585 6.90154 28.3647 9.45618 25.3939Z" fill="#C19BE5"/>
<path opacity="0.9791" d="M9.45172 25.3816L18.6681 15.5801H17.6941C14.2175 16.8062 4.28295 19.8708 0.693359 21.4478V22.8232C0.693359 28.1508 6.90005 28.3539 9.45172 25.3816Z" fill="#C09AE5"/>
<path opacity="0.9821" d="M9.44777 25.3709L18.6537 15.5801H17.6931C14.2121 16.8062 4.279 19.8708 0.692383 21.4478V22.8124C0.69387 28.1416 6.89759 28.3416 9.44777 25.3709Z" fill="#C09AE5"/>
<path opacity="0.9851" d="M9.44429 25.3585L18.6398 15.5801H17.6941C14.2086 16.8062 4.277 19.8708 0.693359 21.4478V22.8001C0.693359 28.1339 6.8941 28.3308 9.44429 25.3585Z" fill="#C09AE4"/>
<path opacity="0.988" d="M9.44034 25.3478L18.6255 15.5801H17.6931C14.2032 16.8047 4.27157 19.8708 0.692383 21.4478V22.7893C0.69387 28.1262 6.89164 28.3185 9.44034 25.3478Z" fill="#C099E4"/>
<path opacity="0.991" d="M9.43588 25.3355L18.6106 15.5801H17.6931C14.1987 16.8047 4.26859 19.8708 0.692383 21.4478V22.777C0.69387 28.1185 6.89015 28.3062 9.43588 25.3355Z" fill="#C099E4"/>
<path opacity="0.994" d="M9.43239 25.3247L18.5982 15.5801H17.6941C14.1952 16.8032 4.26659 19.8708 0.693359 21.4478V22.7662C0.693359 28.1093 6.88666 28.2955 9.43239 25.3247Z" fill="#BF99E4"/>
<path opacity="0.997" d="M9.42793 25.312L18.5833 15.5781H17.6941C14.1908 16.8012 4.26362 19.8674 0.693359 21.4458V22.752C0.693359 28.1012 6.88369 28.2827 9.42793 25.312Z" fill="#BF98E4"/>
<path d="M9.42347 25.3016L18.5685 15.5801H17.6941C14.1863 16.8016 4.26065 19.8693 0.693359 21.4478V22.7432C0.693359 28.0939 6.88072 28.2724 9.42347 25.3016Z" fill="#BF98E4"/>
</g>
<path fill-rule="evenodd" clip-rule="evenodd" d="M0.693359 7.40154V21.5769C0.693359 24.1832 2.54977 25.997 4.66162 26.332C4.70393 26.3387 4.74633 26.3449 4.78883 26.3504C6.10631 26.5216 7.51008 26.1171 8.6165 24.9724L17.6946 15.5801H17.694L23.8636 9.19692C26.787 6.17231 24.7157 1 20.5818 1H6.88072C3.46362 1 0.693359 3.86615 0.693359 7.40154Z" fill="url(#paint1_linear_6930_20272)"/>
<path d="M38.8963 32V10.1818H53.3423V13.9851H43.5092V19.1839H52.3835V22.9872H43.5092V32H38.8963ZM56.3599 32V15.6364H60.8983V32H56.3599ZM58.6397 13.527C57.965 13.527 57.3862 13.3033 56.9032 12.8558C56.4274 12.4013 56.1895 11.858 56.1895 11.2259C56.1895 10.6009 56.4274 10.0646 56.9032 9.61719C57.3862 9.16264 57.965 8.93537 58.6397 8.93537C59.3145 8.93537 59.8897 9.16264 60.3656 9.61719C60.8485 10.0646 61.09 10.6009 61.09 11.2259C61.09 11.858 60.8485 12.4013 60.3656 12.8558C59.8897 13.3033 59.3145 13.527 58.6397 13.527ZM69.0721 22.5398V32H64.5337V15.6364H68.859V18.5234H69.0508C69.413 17.5717 70.0202 16.8189 70.8725 16.2649C71.7248 15.7038 72.7582 15.4233 73.9727 15.4233C75.109 15.4233 76.0998 15.6719 76.945 16.169C77.7901 16.6662 78.4471 17.3764 78.9158 18.2997C79.3846 19.2159 79.619 20.3097 79.619 21.581V32H75.0806V22.3906C75.0877 21.3892 74.832 20.608 74.3136 20.0469C73.7951 19.4787 73.0813 19.1946 72.1722 19.1946C71.5614 19.1946 71.0217 19.326 70.5529 19.5888C70.0913 19.8516 69.729 20.2351 69.4663 20.7393C69.2106 21.2365 69.0792 21.8366 69.0721 22.5398ZM87.862 32.3089C86.818 32.3089 85.8876 32.1278 85.0708 31.7656C84.2541 31.3963 83.6078 30.853 83.1319 30.1357C82.6632 29.4112 82.4288 28.5092 82.4288 27.4297C82.4288 26.5206 82.5957 25.7571 82.9295 25.1392C83.2633 24.5213 83.7179 24.0241 84.2931 23.6477C84.8684 23.2713 85.5218 22.9872 86.2534 22.7955C86.992 22.6037 87.7662 22.4688 88.5758 22.3906C89.5275 22.2912 90.2946 22.1989 90.877 22.1136C91.4593 22.0213 91.8819 21.8864 92.1447 21.7088C92.4075 21.5312 92.5389 21.2685 92.5389 20.9205V20.8565C92.5389 20.1818 92.3258 19.6598 91.8997 19.2905C91.4806 18.9212 90.8841 18.7365 90.1099 18.7365C89.2931 18.7365 88.6433 18.9176 88.1603 19.2798C87.6774 19.6349 87.3578 20.0824 87.2015 20.6222L83.0041 20.2812C83.2172 19.2869 83.6362 18.4276 84.2612 17.7031C84.8862 16.9716 85.6923 16.4105 86.6795 16.0199C87.6738 15.6222 88.8244 15.4233 90.1312 15.4233C91.0403 15.4233 91.9103 15.5298 92.7413 15.7429C93.5794 15.956 94.3216 16.2862 94.9679 16.7337C95.6213 17.1811 96.1362 17.7564 96.5126 18.4595C96.889 19.1555 97.0772 19.9901 97.0772 20.9631V32H92.7733V29.7308H92.6454C92.3826 30.2422 92.0311 30.6932 91.5907 31.0838C91.1504 31.4673 90.6213 31.7692 90.0034 31.9893C89.3855 32.2024 88.6717 32.3089 87.862 32.3089ZM89.1618 29.1768C89.8294 29.1768 90.4189 29.0455 90.9302 28.7827C91.4416 28.5128 91.8429 28.1506 92.1341 27.696C92.4252 27.2415 92.5708 26.7266 92.5708 26.1513V24.4148C92.4288 24.5071 92.2335 24.5923 91.9849 24.6705C91.7434 24.7415 91.47 24.8089 91.1646 24.8729C90.8592 24.9297 90.5538 24.983 90.2484 25.0327C89.943 25.0753 89.666 25.1143 89.4174 25.1499C88.8848 25.228 88.4196 25.3523 88.0218 25.5227C87.6241 25.6932 87.3152 25.924 87.095 26.2152C86.8748 26.4993 86.7647 26.8544 86.7647 27.2805C86.7647 27.8984 86.9885 28.3707 87.4359 28.6974C87.8904 29.017 88.4657 29.1768 89.1618 29.1768ZM109.302 15.6364V19.0455H99.4476V15.6364H109.302ZM101.685 11.7159H106.223V26.9716C106.223 27.3906 106.287 27.7173 106.415 27.9517C106.543 28.179 106.72 28.3388 106.948 28.4311C107.182 28.5234 107.452 28.5696 107.757 28.5696C107.97 28.5696 108.183 28.5518 108.396 28.5163C108.61 28.4737 108.773 28.4418 108.887 28.4205L109.6 31.7976C109.373 31.8686 109.053 31.9503 108.642 32.0426C108.23 32.142 107.729 32.2024 107.139 32.2237C106.046 32.2663 105.087 32.1207 104.263 31.7869C103.446 31.4531 102.811 30.9347 102.356 30.2315C101.901 29.5284 101.678 28.6406 101.685 27.5682V11.7159ZM119.54 32.3196C117.857 32.3196 116.408 31.9787 115.193 31.2969C113.986 30.608 113.056 29.6349 112.402 28.3778C111.749 27.1136 111.422 25.6186 111.422 23.8928C111.422 22.2095 111.749 20.7322 112.402 19.4609C113.056 18.1896 113.975 17.1989 115.161 16.4886C116.355 15.7784 117.754 15.4233 119.359 15.4233C120.438 15.4233 121.443 15.5973 122.374 15.9453C123.311 16.2862 124.128 16.8011 124.824 17.4901C125.527 18.179 126.074 19.0455 126.465 20.0895C126.855 21.1264 127.051 22.3409 127.051 23.733V24.9794H113.233V22.1669H122.779C122.779 21.5135 122.637 20.9347 122.352 20.4304C122.068 19.9261 121.674 19.532 121.17 19.2479C120.673 18.9567 120.094 18.8111 119.433 18.8111C118.744 18.8111 118.134 18.9709 117.601 19.2905C117.075 19.603 116.664 20.0256 116.365 20.5582C116.067 21.0838 115.914 21.6697 115.907 22.3161V24.9901C115.907 25.7997 116.056 26.4993 116.355 27.0888C116.66 27.6783 117.09 28.1328 117.644 28.4524C118.198 28.772 118.855 28.9318 119.615 28.9318C120.119 28.9318 120.58 28.8608 120.999 28.7188C121.419 28.5767 121.777 28.3636 122.075 28.0795C122.374 27.7955 122.601 27.4474 122.757 27.0355L126.955 27.3125C126.742 28.321 126.305 29.2017 125.644 29.9545C124.991 30.7003 124.146 31.2827 123.109 31.7017C122.079 32.1136 120.889 32.3196 119.54 32.3196ZM133.512 15.6364L136.516 21.3572L139.595 15.6364H144.251L139.51 23.8182L144.378 32H139.744L136.516 26.343L133.341 32H128.654L133.512 23.8182L128.824 15.6364H133.512Z" fill="white"/>
<defs>
<linearGradient id="paint0_linear_6930_20272" x1="24.2944" y1="28.2739" x2="0.673101" y2="28.2739" gradientUnits="userSpaceOnUse">
<stop stop-color="#9676F2"/>
<stop offset="1" stop-color="#377AFB"/>
</linearGradient>
<linearGradient id="paint1_linear_6930_20272" x1="9.19376" y1="15.7347" x2="9.19376" y2="26.4344" gradientUnits="userSpaceOnUse">
<stop stop-color="#18CCF0"/>
<stop offset="1" stop-color="#01A9F6"/>
</linearGradient>
</defs>
</svg>
