<svg width="156" height="40" viewBox="0 0 156 40" fill="none" xmlns="http://www.w3.org/2000/svg">
<path d="M7.69434 35.157V21.8647L24.6951 14.5801H27.5843C31.7181 14.5801 33.7895 19.7524 30.8661 22.777L15.617 38.5524C12.6936 41.577 7.69434 39.4355 7.69434 35.157Z" fill="url(#paint0_linear_6257_11508)"/>
<g style="mix-blend-mode:multiply">
<path opacity="0.1" d="M17.6056 27.7547L29.8346 14.5793H24.6941C22.5395 16.0024 12.2272 18.9363 7.69336 20.447V25.2255C7.69336 29.504 14.6807 30.7793 17.6056 27.7547Z" fill="white"/>
<path opacity="0.103" d="M17.6017 27.7424L29.8203 14.5793H24.6931C22.534 16.0009 12.2232 18.9363 7.69238 20.447V25.2147C7.69387 29.4963 14.6797 30.767 17.6017 27.7424Z" fill="white"/>
<path opacity="0.106" d="M17.5967 27.7317L29.8064 14.5793H24.6941C22.5305 16.0009 12.2212 18.9347 7.69336 20.447V25.2024C7.69336 29.487 14.6763 30.7547 17.5967 27.7317Z" fill="#FFFEFF"/>
<path opacity="0.109" d="M17.5932 27.7191L29.7925 14.5791H24.6951C22.5271 15.9991 12.2178 18.9345 7.69434 20.4468V25.1914C7.69285 29.4791 14.6728 30.7437 17.5932 27.7191Z" fill="#FEFEFF"/>
<path opacity="0.112" d="M17.5893 27.7086L29.7781 14.5793H24.6941C22.5216 15.9993 12.2138 18.9347 7.69336 20.447V25.1793C7.69336 29.4717 14.6703 30.7317 17.5893 27.7086Z" fill="#FEFEFF"/>
<path opacity="0.115" d="M17.5848 27.6963L29.7632 14.5793H24.6941C22.5171 15.9978 12.2108 18.9347 7.69336 20.447V25.1686C7.69336 29.464 14.6688 30.7209 17.5848 27.6963Z" fill="#FEFDFF"/>
<path opacity="0.1179" d="M17.5818 27.6855L29.7499 14.5793H24.6941C22.5127 15.9978 12.2079 18.9347 7.69336 20.447V25.1563C7.69336 29.4563 14.6659 30.7086 17.5818 27.6855Z" fill="#FEFDFE"/>
<path opacity="0.1209" d="M17.5774 27.6735L29.735 14.5781H24.6941C22.5082 15.995 12.2049 18.9335 7.69336 20.4458V25.1443C7.69336 29.4474 14.6629 30.6981 17.5774 27.6735Z" fill="#FEFDFE"/>
<path opacity="0.1239" d="M17.5734 27.6624L29.7206 14.5793H24.6931C22.5028 15.9963 12.2009 18.9347 7.69238 20.447V25.1332C7.69387 29.4393 14.6604 30.6855 17.5734 27.6624Z" fill="#FDFCFE"/>
<path opacity="0.1269" d="M17.5699 27.6504L29.7067 14.5781H24.6941C22.4993 15.995 12.1974 18.932 7.69336 20.4458V25.1197C7.69336 29.432 14.6569 30.6735 17.5699 27.6504Z" fill="#FDFCFE"/>
<path opacity="0.1299" d="M17.566 27.6393L29.6924 14.5793H24.6931C22.4939 15.9947 12.1935 18.9332 7.69238 20.447V25.1101C7.69387 29.424 14.6559 30.6624 17.566 27.6393Z" fill="#FDFCFE"/>
<path opacity="0.1329" d="M17.5615 27.6274L29.6775 14.5781H24.6931C22.4894 15.9935 12.1905 18.932 7.69238 20.4458V25.0966C7.69387 29.4166 14.653 30.6504 17.5615 27.6274Z" fill="#FDFBFE"/>
<path opacity="0.1359" d="M17.558 27.6163L29.6651 14.5793H24.6941C22.4859 15.9932 12.1885 18.9332 7.69336 20.447V25.087C7.69336 29.407 14.6495 30.6393 17.558 27.6163Z" fill="#FCFBFE"/>
<path opacity="0.1389" d="M17.5536 27.6055L29.6502 14.5793H24.6941C22.4815 15.9932 12.1856 18.9332 7.69336 20.447V25.0747C7.69336 29.3993 14.6465 30.627 17.5536 27.6055Z" fill="#FCFBFE"/>
<path opacity="0.1419" d="M17.5506 27.5932L29.6369 14.5793H24.6941C22.477 15.9917 12.1826 18.9332 7.69336 20.447V25.064C7.69336 29.3917 14.6435 30.6163 17.5506 27.5932Z" fill="#FCFAFE"/>
<path opacity="0.1449" d="M17.5461 27.5824L29.622 14.5793H24.6941C22.4725 15.9917 12.1796 18.9332 7.69336 20.447V25.0517C7.69336 29.384 14.6421 30.604 17.5461 27.5824Z" fill="#FCFAFE"/>
<path opacity="0.1478" d="M17.5422 27.5701L29.6076 14.5793H24.6931C22.4671 15.9917 12.1742 18.9317 7.69238 20.447V25.0409C7.69387 29.3763 14.6396 30.5917 17.5422 27.5701Z" fill="#FCFAFE"/>
<path opacity="0.1508" d="M17.5387 27.5593L29.5937 14.5793H24.6941C22.4636 15.9901 12.1722 18.9317 7.69336 20.447V25.0286C7.69336 29.367 14.6361 30.5809 17.5387 27.5593Z" fill="#FBF9FD"/>
<path opacity="0.1538" d="M17.5348 27.5474L29.5794 14.5781H24.6931C22.4582 15.9889 12.1682 18.9304 7.69238 20.4458V25.0166C7.69387 29.3597 14.6336 30.5689 17.5348 27.5474Z" fill="#FBF9FD"/>
<path opacity="0.1568" d="M17.5303 27.5363L29.5645 14.5793H24.6931C22.4537 15.9886 12.1652 18.9317 7.69238 20.447V25.0055C7.69387 29.3517 14.6307 30.5578 17.5303 27.5363Z" fill="#FBF8FD"/>
<path opacity="0.1598" d="M17.5268 27.5243L29.5506 14.5781H24.6941C22.4502 15.9874 12.1632 18.9304 7.69336 20.4458V24.9935C7.69336 29.3443 14.6287 30.5458 17.5268 27.5243Z" fill="#FBF8FD"/>
<path opacity="0.1628" d="M17.5224 27.5132L29.5372 14.5793H24.6941C22.4458 15.987 12.1603 18.9317 7.69336 20.447V24.9824C7.69336 29.3347 14.6257 30.5347 17.5224 27.5132Z" fill="#FBF8FD"/>
<path opacity="0.1658" d="M17.5179 27.5012L29.5223 14.5781H24.6941C22.4413 15.9858 12.1558 18.9304 7.69336 20.4458V24.9704C7.69336 29.3274 14.6227 30.5227 17.5179 27.5012Z" fill="#FAF7FD"/>
<path opacity="0.1688" d="M17.5149 27.4901L29.509 14.5793H24.6941C22.4368 15.987 12.1528 18.9301 7.69336 20.447V24.9593C7.69336 29.3193 14.6197 30.5101 17.5149 27.4901Z" fill="#FAF7FD"/>
<path opacity="0.1718" d="M17.5105 27.4793L29.4941 14.5793H24.6941C22.4324 15.9855 12.1499 18.9301 7.69336 20.447V24.9486C7.69336 29.3117 14.6183 30.4993 17.5105 27.4793Z" fill="#FAF7FD"/>
<path opacity="0.1748" d="M17.5075 27.467L29.4807 14.5793H24.6941C22.4279 15.9855 12.1469 18.9301 7.69336 20.447V24.9363C7.69336 29.304 14.6153 30.487 17.5075 27.467Z" fill="#FAF6FD"/>
<path opacity="0.1777" d="M17.503 27.4563L29.4658 14.5793H24.6941C22.4235 15.984 12.1439 18.9301 7.69336 20.447V24.9255C7.69336 29.2947 14.6123 30.4763 17.503 27.4563Z" fill="#F9F6FD"/>
<path opacity="0.1807" d="M17.4991 27.444L29.4515 14.5793H24.6931C22.418 15.984 12.14 18.9301 7.69238 20.447V24.9132C7.69387 29.287 14.6099 30.464 17.4991 27.444Z" fill="#F9F6FD"/>
<path opacity="0.1837" d="M17.4956 27.4332L29.4376 14.5793H24.6941C22.4145 15.9824 12.1365 18.9301 7.69336 20.447V24.9024C7.69336 29.2794 14.6064 30.4517 17.4956 27.4332Z" fill="#F9F5FC"/>
<path opacity="0.1867" d="M17.4916 27.4212L29.4232 14.5781H24.6931C22.4091 15.9812 12.1325 18.9289 7.69238 20.4458V24.8889C7.69387 29.272 14.6054 30.4412 17.4916 27.4212Z" fill="#F9F5FC"/>
<path opacity="0.1897" d="M17.4867 27.4101L29.4094 14.5793H24.6941C22.4041 15.9824 12.1305 18.9286 7.69336 20.447V24.8778C7.69336 29.264 14.6019 30.4286 17.4867 27.4101Z" fill="#F9F5FC"/>
<path opacity="0.1927" d="M17.4837 27.3981L29.3959 14.5781H24.6941C22.3997 15.9797 12.1276 18.9274 7.69336 20.4458V24.8658C7.69336 29.255 14.5989 30.4181 17.4837 27.3981Z" fill="#F8F4FC"/>
<path opacity="0.1957" d="M17.4792 27.387L29.3811 14.5793H24.6941C22.3952 15.9809 12.1246 18.9286 7.69336 20.447V24.8547C7.69336 29.247 14.596 30.4055 17.4792 27.387Z" fill="#F8F4FC"/>
<path opacity="0.1987" d="M17.4753 27.375L29.3667 14.5781H24.6931C22.3898 15.9781 12.1206 18.9274 7.69238 20.4458V24.8427C7.69387 29.2397 14.5935 30.3951 17.4753 27.375Z" fill="#F8F4FC"/>
<path opacity="0.2017" d="M17.4718 27.364L29.3528 14.5793H24.6941C22.3863 15.9793 12.1172 18.9286 7.69336 20.447V24.8317C7.69336 29.2317 14.5915 30.3824 17.4718 27.364Z" fill="#F8F3FC"/>
<path opacity="0.2047" d="M17.4673 27.3532L29.338 14.5793H24.6941C22.3818 15.9778 12.1142 18.9286 7.69336 20.447V24.8209C7.69336 29.224 14.5885 30.3701 17.4673 27.3532Z" fill="#F8F3FC"/>
<path opacity="0.2076" d="M17.4644 27.3409L29.3246 14.5793H24.6941C22.3774 15.9778 12.1112 18.9286 7.69336 20.447V24.8086C7.69336 29.2147 14.5856 30.3593 17.4644 27.3409Z" fill="#F7F3FC"/>
<path opacity="0.2106" d="M17.4599 27.3301L29.3097 14.5793H24.6941C22.3729 15.9778 12.1082 18.927 7.69336 20.447V24.7978C7.69336 29.207 14.5826 30.347 17.4599 27.3301Z" fill="#F7F2FC"/>
<path opacity="0.2136" d="M17.456 27.3178L29.2954 14.5793H24.6931C22.3675 15.9763 12.1043 18.927 7.69238 20.447V24.7855C7.69387 29.1993 14.5816 30.3363 17.456 27.3178Z" fill="#F7F2FC"/>
<path opacity="0.2166" d="M17.452 27.3068L29.2824 14.5791H24.6951C22.365 15.976 12.1033 18.9268 7.69434 20.4468V24.7745C7.69285 29.1914 14.5776 30.3237 17.452 27.3068Z" fill="#F7F2FC"/>
<path opacity="0.2196" d="M17.448 27.2947L29.2681 14.5793H24.6941C22.3595 15.9747 12.0993 18.927 7.69336 20.447V24.7624C7.69336 29.184 14.5751 30.3132 17.448 27.2947Z" fill="#F6F1FB"/>
<path opacity="0.2226" d="M17.4435 27.284L29.2532 14.5793H24.6941C22.3551 15.9747 12.0948 18.927 7.69336 20.447V24.7517C7.69336 29.1747 14.5722 30.3009 17.4435 27.284Z" fill="#F6F1FB"/>
<path opacity="0.2256" d="M17.4406 27.272L29.2398 14.5781H24.6941C22.3506 15.972 12.0919 18.9258 7.69336 20.4458V24.7381C7.69336 29.1674 14.5692 30.2889 17.4406 27.272Z" fill="#F6F1FB"/>
<path opacity="0.2286" d="M17.4361 27.2609L29.225 14.5793H24.6941C22.3462 15.9732 12.0889 18.927 7.69336 20.447V24.7286C7.69336 29.1593 14.5677 30.2778 17.4361 27.2609Z" fill="#F6F0FB"/>
<path opacity="0.2316" d="M17.4322 27.2489L29.2106 14.5781H24.6931C22.3407 15.9704 12.085 18.9243 7.69238 20.4458V24.715C7.69387 29.152 14.5653 30.2658 17.4322 27.2489Z" fill="#F6F0FB"/>
<path opacity="0.2346" d="M17.4287 27.2378L29.1967 14.5793H24.6941C22.3372 15.9717 12.083 18.9255 7.69336 20.447V24.7055C7.69336 29.144 14.5618 30.2547 17.4287 27.2378Z" fill="#F5F0FB"/>
<path opacity="0.2375" d="M17.4247 27.2258L29.1823 14.5781H24.6931C22.3318 15.9704 12.079 18.9243 7.69238 20.4458V24.692C7.69387 29.1351 14.5593 30.2427 17.4247 27.2258Z" fill="#F5EFFB"/>
<path opacity="0.2405" d="M17.4212 27.2147L29.1684 14.5793H24.6941C22.3283 15.9701 12.0755 18.9255 7.69336 20.447V24.6824C7.69336 29.127 14.5558 30.2317 17.4212 27.2147Z" fill="#F5EFFB"/>
<path opacity="0.2435" d="M17.4173 27.204L29.1541 14.5793H24.6931C22.3229 15.9701 12.0716 18.9255 7.69238 20.447V24.6701C7.69387 29.1193 14.5548 30.2193 17.4173 27.204Z" fill="#F5EFFB"/>
<path opacity="0.2465" d="M17.4123 27.1917L29.1402 14.5793H24.6941C22.3194 15.9686 12.0696 18.9255 7.69336 20.447V24.6593C7.69336 29.1117 14.5514 30.207 17.4123 27.1917Z" fill="#F5EEFB"/>
<path opacity="0.2495" d="M17.4093 27.1809L29.1268 14.5793H24.6941C22.3149 15.9686 12.0666 18.9255 7.69336 20.447V24.647C7.69336 29.104 14.5484 30.1963 17.4093 27.1809Z" fill="#F4EEFB"/>
<path opacity="0.2525" d="M17.4049 27.1686L29.112 14.5793H24.6941C22.3105 15.967 12.0636 18.924 7.69336 20.447V24.6347C7.69336 29.0947 14.5454 30.184 17.4049 27.1686Z" fill="#F4EEFA"/>
<path opacity="0.2555" d="M17.4004 27.1578L29.0971 14.5793H24.6941C22.306 15.967 12.0606 18.924 7.69336 20.447V24.624C7.69336 29.087 14.5424 30.1732 17.4004 27.1578Z" fill="#F4EDFA"/>
<path opacity="0.2585" d="M17.3974 27.1458L29.0837 14.5781H24.6941C22.3015 15.9658 12.0562 18.9227 7.69336 20.4458V24.6104C7.69336 29.0797 14.5409 30.1612 17.3974 27.1458Z" fill="#F4EDFA"/>
<path opacity="0.2615" d="M17.393 27.1347L29.0688 14.5793H24.6941C22.2971 15.9655 12.0532 18.924 7.69336 20.447V24.6009C7.69336 29.0717 14.538 30.1501 17.393 27.1347Z" fill="#F4EDFA"/>
<path opacity="0.2645" d="M17.389 27.1227L29.0545 14.5781H24.6931C22.2916 15.9643 12.0493 18.9227 7.69238 20.4458V24.5874C7.69387 29.0643 14.5355 30.1381 17.389 27.1227Z" fill="#F3ECFA"/>
<path opacity="0.2674" d="M17.3856 27.1117L29.0406 14.5793H24.6941C22.2882 15.964 12.0473 18.924 7.69336 20.447V24.5778C7.69336 29.0547 14.532 30.1255 17.3856 27.1117Z" fill="#F3ECFA"/>
<path opacity="0.2704" d="M17.3816 27.0997L29.0262 14.5781H24.6931C22.2827 15.9627 12.0433 18.9227 7.69238 20.4458V24.5643C7.69387 29.0474 14.531 30.1151 17.3816 27.0997Z" fill="#F3EBFA"/>
<path opacity="0.2734" d="M17.3766 27.0886L29.0123 14.5793H24.6941C22.2792 15.9624 12.0413 18.9224 7.69336 20.447V24.5547C7.69336 29.0393 14.5276 30.1024 17.3766 27.0886Z" fill="#F3EBFA"/>
<path opacity="0.2764" d="M17.3737 27.0778L28.9989 14.5793H24.6941C22.2748 15.9624 12.0369 18.9224 7.69336 20.447V24.5424C7.69336 29.0317 14.5246 30.0917 17.3737 27.0778Z" fill="#F2EBFA"/>
<path opacity="0.2794" d="M17.3692 27.0655L28.9841 14.5793H24.6941C22.2703 15.9624 12.0339 18.9224 7.69336 20.447V24.5317C7.69336 29.0224 14.5216 30.0793 17.3692 27.0655Z" fill="#F2EAFA"/>
<path opacity="0.2824" d="M17.3662 27.0547L28.9707 14.5793H24.6941C22.2658 15.9609 12.0309 18.9224 7.69336 20.447V24.5193C7.69336 29.0147 14.5186 30.0686 17.3662 27.0547Z" fill="#F2EAFA"/>
<path opacity="0.2854" d="M17.3618 27.0424L28.9558 14.5793H24.6941C22.2614 15.9609 12.0279 18.9224 7.69336 20.447V24.5086C7.69336 29.007 14.5172 30.0563 17.3618 27.0424Z" fill="#F2EAF9"/>
<path opacity="0.2884" d="M17.3578 27.0317L28.9415 14.5793H24.6931C22.256 15.9593 12.024 18.9224 7.69238 20.447V24.4963C7.69387 28.9993 14.5147 30.044 17.3578 27.0317Z" fill="#F2E9F9"/>
<path opacity="0.2914" d="M17.3543 27.0197L28.9276 14.5781H24.6941C22.2525 15.9581 12.022 18.9212 7.69336 20.4458V24.4843C7.69336 28.992 14.5112 30.0335 17.3543 27.0197Z" fill="#F1E9F9"/>
<path opacity="0.2944" d="M17.3504 27.0086L28.9132 14.5793H24.6931C22.247 15.9578 12.018 18.9209 7.69238 20.447V24.4732C7.69387 28.9824 14.5087 30.0209 17.3504 27.0086Z" fill="#F1E9F9"/>
<path opacity="0.2973" d="M17.3459 26.9966L28.8983 14.5781H24.6931C22.2426 15.9566 12.0136 18.9197 7.69238 20.4458V24.4612C7.69387 28.975 14.5058 30.0104 17.3459 26.9966Z" fill="#F1E8F9"/>
<path opacity="0.3003" d="M17.3424 26.9855L28.8859 14.5793H24.6941C22.2391 15.9578 12.0116 18.9209 7.69336 20.447V24.4501C7.69336 28.967 14.5038 29.9978 17.3424 26.9855Z" fill="#F1E8F9"/>
<path opacity="0.3033" d="M17.338 26.9735L28.871 14.5781H24.6941C22.2346 15.955 12.0086 18.9197 7.69336 20.4458V24.4381C7.69336 28.9597 14.5008 29.9874 17.338 26.9735Z" fill="#F1E8F9"/>
<path opacity="0.3063" d="M17.3335 26.9624L28.8562 14.5793H24.6941C22.2302 15.9563 12.0056 18.9209 7.69336 20.447V24.427C7.69336 28.9516 14.4978 29.9747 17.3335 26.9624Z" fill="#F0E7F9"/>
<path opacity="0.3093" d="M17.3305 26.9516L28.8428 14.5793H24.6941C22.2257 15.9547 12.0027 18.9209 7.69336 20.447V24.4163C7.69336 28.9424 14.4948 29.9624 17.3305 26.9516Z" fill="#F0E7F9"/>
<path opacity="0.3123" d="M17.3261 26.9393L28.8279 14.5793H24.6941C22.2212 15.9547 11.9997 18.9193 7.69336 20.447V24.404C7.69336 28.9347 14.4919 29.9517 17.3261 26.9393Z" fill="#F0E7F9"/>
<path opacity="0.3153" d="M17.3231 26.9286L28.8146 14.5793H24.6941C22.2153 15.9532 11.9952 18.9193 7.69336 20.447V24.3917C7.69336 28.927 14.4904 29.9393 17.3231 26.9286Z" fill="#F0E6F9"/>
<path opacity="0.3183" d="M17.3186 26.9163L28.7997 14.5793H24.6941C22.2108 15.9532 11.9922 18.9193 7.69336 20.447V24.3809C7.69336 28.9193 14.4874 29.9286 17.3186 26.9163Z" fill="#EFE6F8"/>
<path opacity="0.3213" d="M17.3147 26.9055L28.7853 14.5793H24.6931C22.2054 15.9532 11.9883 18.9193 7.69238 20.447V24.3686C7.69387 28.9117 14.4849 29.9163 17.3147 26.9055Z" fill="#EFE6F8"/>
<path opacity="0.3243" d="M17.3112 26.8932L28.7714 14.5793H24.6941C22.2019 15.9517 11.9863 18.9193 7.69336 20.447V24.3578C7.69336 28.9024 14.4815 29.904 17.3112 26.8932Z" fill="#EFE5F8"/>
<path opacity="0.3272" d="M17.3073 26.8824L28.7571 14.5793H24.6931C22.1965 15.9517 11.9823 18.9193 7.69238 20.447V24.3455C7.69387 28.8947 14.4805 29.8932 17.3073 26.8824Z" fill="#EFE5F8"/>
<path opacity="0.3302" d="M17.3023 26.8704L28.7432 14.5781H24.6941C22.193 15.9489 11.9803 18.9181 7.69336 20.4458V24.3335C7.69336 28.8874 14.477 29.8812 17.3023 26.8704Z" fill="#EFE5F8"/>
<path opacity="0.3332" d="M17.2993 26.8593L28.7298 14.5793H24.6941C22.1885 15.9501 11.9759 18.9178 7.69336 20.447V24.3224C7.69336 28.8793 14.474 29.8701 17.2993 26.8593Z" fill="#EEE4F8"/>
<path opacity="0.3362" d="M17.2948 26.8474L28.7149 14.5781H24.6941C22.1841 15.9474 11.9729 18.9166 7.69336 20.4458V24.3104C7.69336 28.872 14.4711 29.8581 17.2948 26.8474Z" fill="#EEE4F8"/>
<path opacity="0.3392" d="M17.2909 26.8363L28.7006 14.5793H24.6931C22.1786 15.9486 11.969 18.9178 7.69238 20.447V24.2993C7.69387 28.8624 14.4686 29.847 17.2909 26.8363Z" fill="#EEE4F8"/>
<path opacity="0.3422" d="M17.2874 26.8243L28.6867 14.5781H24.6941C22.1752 15.9474 11.967 18.9166 7.69336 20.4458V24.2874C7.69336 28.8551 14.4666 29.8351 17.2874 26.8243Z" fill="#EEE3F8"/>
<path opacity="0.3452" d="M17.2835 26.8132L28.6723 14.5793H24.6931C22.1697 15.947 11.963 18.9178 7.69238 20.447V24.2763C7.69387 28.847 14.4641 29.8224 17.2835 26.8132Z" fill="#EEE3F8"/>
<path opacity="0.3482" d="M17.28 26.8024L28.6584 14.5793H24.6941C22.1662 15.947 11.961 18.9178 7.69336 20.447V24.2655C7.69336 28.8393 14.4606 29.8117 17.28 26.8024Z" fill="#EDE3F8"/>
<path opacity="0.3512" d="M17.276 26.7901L28.6441 14.5793H24.6931C22.1608 15.9455 11.9556 18.9178 7.69238 20.447V24.2532C7.69387 28.8317 14.4582 29.7994 17.276 26.7901Z" fill="#EDE2F7"/>
<path opacity="0.3542" d="M17.2716 26.7793L28.6292 14.5793H24.6931C22.1563 15.9455 11.9526 18.9163 7.69238 20.447V24.2424C7.69387 28.8224 14.4552 29.7886 17.2716 26.7793Z" fill="#EDE2F7"/>
<path opacity="0.3571" d="M17.2676 26.7668L28.6163 14.5791H24.6951C22.1538 15.9437 11.9516 18.916 7.69434 20.4468V24.2299C7.69285 28.8145 14.4527 29.776 17.2676 26.7668Z" fill="#EDE2F7"/>
<path opacity="0.3601" d="M17.2636 26.7563L28.6019 14.5793H24.6941C22.1484 15.944 11.9476 18.9163 7.69336 20.447V24.2193C7.69336 28.807 14.4502 29.7655 17.2636 26.7563Z" fill="#EDE1F7"/>
<path opacity="0.3631" d="M17.2592 26.7443L28.5871 14.5781H24.6941C22.1439 15.9412 11.9447 18.915 7.69336 20.4458V24.2058C7.69336 28.7997 14.4473 29.7535 17.2592 26.7443Z" fill="#ECE1F7"/>
<path opacity="0.3661" d="M17.2562 26.7332L28.5737 14.5793H24.6941C22.1395 15.9424 11.9417 18.9163 7.69336 20.447V24.1963C7.69336 28.7917 14.4443 29.7409 17.2562 26.7332Z" fill="#ECE1F7"/>
<path opacity="0.3691" d="M17.2517 26.7212L28.5588 14.5781H24.6941C22.135 15.9412 11.9387 18.915 7.69336 20.4458V24.1827C7.69336 28.7827 14.4428 29.7304 17.2517 26.7212Z" fill="#ECE0F7"/>
<path opacity="0.3721" d="M17.2478 26.7101L28.5444 14.5793H24.6931C22.1296 15.9409 11.9333 18.9163 7.69238 20.447V24.1732C7.69387 28.7747 14.4403 29.7178 17.2478 26.7101Z" fill="#ECE0F7"/>
<path opacity="0.3751" d="M17.2443 26.6981L28.5305 14.5781H24.6941C22.1261 15.9397 11.9313 18.9135 7.69336 20.4458V24.1597C7.69336 28.7674 14.4369 29.7074 17.2443 26.6981Z" fill="#EBE0F7"/>
<path opacity="0.3781" d="M17.2403 26.687L28.5162 14.5793H24.6931C22.1206 15.9393 11.9273 18.9147 7.69238 20.447V24.1501C7.69387 28.7593 14.4344 29.6947 17.2403 26.687Z" fill="#EBDFF7"/>
<path opacity="0.3811" d="M17.2369 26.6763L28.5023 14.5793H24.6941C22.1172 15.9393 11.9253 18.9147 7.69336 20.447V24.1378C7.69336 28.7517 14.4309 29.684 17.2369 26.6763Z" fill="#EBDFF7"/>
<path opacity="0.3841" d="M17.2324 26.664L28.4889 14.5793H24.6941C22.1127 15.9378 11.9224 18.9147 7.69336 20.447V24.1255C7.69336 28.7424 14.4294 29.6717 17.2324 26.664Z" fill="#EBDEF6"/>
<path opacity="0.387" d="M17.2279 26.6532L28.474 14.5793H24.6941C22.1082 15.9378 11.9194 18.9147 7.69336 20.447V24.1147C7.69336 28.7347 14.4264 29.6594 17.2279 26.6532Z" fill="#EBDEF6"/>
<path opacity="0.39" d="M17.225 26.6409L28.4606 14.5793H24.6941C22.1038 15.9378 11.9149 18.9147 7.69336 20.447V24.1024C7.69336 28.727 14.4235 29.6486 17.225 26.6409Z" fill="#EADEF6"/>
<path opacity="0.393" d="M17.2205 26.6301L28.4458 14.5793H24.6941C22.0993 15.9363 11.9119 18.9147 7.69336 20.447V24.0917C7.69336 28.7193 14.4205 29.6363 17.2205 26.6301Z" fill="#EADDF6"/>
<path opacity="0.396" d="M17.2165 26.6178L28.4314 14.5793H24.6931C22.0939 15.9363 11.908 18.9132 7.69238 20.447V24.0793C7.69387 28.7116 14.418 29.6255 17.2165 26.6178Z" fill="#EADDF6"/>
<path opacity="0.399" d="M17.2131 26.607L28.4175 14.5793H24.6941C22.0904 15.9347 11.906 18.9132 7.69336 20.447V24.0686C7.69336 28.7024 14.416 29.6132 17.2131 26.607Z" fill="#EADDF6"/>
<path opacity="0.402" d="M17.2091 26.595L28.4032 14.5781H24.6931C22.0849 15.9335 11.902 18.912 7.69238 20.4458V24.055C7.69387 28.695 14.4136 29.6027 17.2091 26.595Z" fill="#EADCF6"/>
<path opacity="0.405" d="M17.2046 26.584L28.3883 14.5793H24.6931C22.0805 15.9332 11.8991 18.9132 7.69238 20.447V24.0455C7.69387 28.687 14.4106 29.5901 17.2046 26.584Z" fill="#E9DCF6"/>
<path opacity="0.408" d="M17.2012 26.572L28.3744 14.5781H24.6941C22.077 15.932 11.8956 18.912 7.69336 20.4458V24.032C7.69336 28.6797 14.4071 29.5781 17.2012 26.572Z" fill="#E9DCF6"/>
<path opacity="0.411" d="M17.1967 26.5609L28.361 14.5793H24.6941C22.0725 15.9332 11.8926 18.9132 7.69336 20.447V24.0224C7.69336 28.6701 14.4041 29.567 17.1967 26.5609Z" fill="#E9DBF6"/>
<path opacity="0.414" d="M17.1932 26.5499L28.3471 14.5791H24.6951C22.069 15.9314 11.8906 18.9129 7.69434 20.4468V24.0099C7.69285 28.6622 14.4021 29.5545 17.1932 26.5499Z" fill="#E9DBF6"/>
<path opacity="0.4169" d="M17.1893 26.5378L28.3328 14.5793H24.6941C22.0636 15.9317 11.8867 18.9117 7.69336 20.447V23.9993C7.69336 28.6547 14.3997 29.544 17.1893 26.5378Z" fill="#E8DBF5"/>
<path opacity="0.4199" d="M17.1848 26.527L28.3179 14.5793H24.6941C22.0592 15.9301 11.8837 18.9117 7.69336 20.447V23.987C7.69336 28.647 14.3967 29.5317 17.1848 26.527Z" fill="#E8DAF5"/>
<path opacity="0.4229" d="M17.1818 26.5147L28.3045 14.5793H24.6941C22.0547 15.9301 11.8807 18.9117 7.69336 20.447V23.9763C7.69336 28.6393 14.3937 29.5209 17.1818 26.5147Z" fill="#E8DAF5"/>
<path opacity="0.4259" d="M17.1774 26.504L28.2896 14.5793H24.6941C22.0502 15.9286 11.8763 18.9117 7.69336 20.447V23.964C7.69336 28.6301 14.3922 29.5086 17.1774 26.504Z" fill="#E8DAF5"/>
<path opacity="0.4289" d="M17.1734 26.4917L28.2753 14.5793H24.6931C22.0448 15.9286 11.8723 18.9117 7.69238 20.447V23.9532C7.69387 28.6224 14.3898 29.4963 17.1734 26.4917Z" fill="#E8D9F5"/>
<path opacity="0.4319" d="M17.1699 26.4809L28.2614 14.5793H24.6941C22.0413 15.9286 11.8703 18.9117 7.69336 20.447V23.9409C7.69336 28.6147 14.3863 29.4855 17.1699 26.4809Z" fill="#E7D9F5"/>
<path opacity="0.4349" d="M17.166 26.4689L28.247 14.5781H24.6931C22.0359 15.9258 11.8664 18.9104 7.69238 20.4458V23.9289C7.69387 28.6074 14.3838 29.4735 17.166 26.4689Z" fill="#E7D9F5"/>
<path opacity="0.4379" d="M17.1615 26.4578L28.2322 14.5793H24.6931C22.0299 15.927 11.8634 18.9101 7.69238 20.447V23.9178C7.69387 28.5993 14.3809 29.4624 17.1615 26.4578Z" fill="#E7D8F5"/>
<path opacity="0.4409" d="M17.158 26.4458L28.2198 14.5781H24.6941C22.0265 15.9243 11.8614 18.9089 7.69336 20.4458V23.9058C7.69336 28.5904 14.3789 29.4504 17.158 26.4458Z" fill="#E7D8F5"/>
<path opacity="0.4439" d="M17.1536 26.4347L28.2049 14.5793H24.6941C22.022 15.9255 11.8584 18.9101 7.69336 20.447V23.8947C7.69336 28.5824 14.3759 29.4393 17.1536 26.4347Z" fill="#E7D8F5"/>
<path opacity="0.4468" d="M17.1496 26.4227L28.1905 14.5781H24.6931C22.0165 15.9227 11.853 18.9089 7.69238 20.4458V23.8812C7.69387 28.575 14.3734 29.4274 17.1496 26.4227Z" fill="#E6D7F5"/>
<path opacity="0.4498" d="M17.1461 26.4117L28.1766 14.5793H24.6941C22.0131 15.924 11.851 18.9101 7.69336 20.447V23.8717C7.69336 28.567 14.3699 29.4147 17.1461 26.4117Z" fill="#E6D7F5"/>
<path opacity="0.4528" d="M17.1417 26.4009L28.1618 14.5793H24.6941C22.0086 15.924 11.848 18.9101 7.69336 20.447V23.8593C7.69336 28.5593 14.367 29.404 17.1417 26.4009Z" fill="#E6D7F4"/>
<path opacity="0.4558" d="M17.1387 26.3886L28.1484 14.5793H24.6941C22.0041 15.9224 11.845 18.9101 7.69336 20.447V23.8486C7.69336 28.5501 14.3655 29.3917 17.1387 26.3886Z" fill="#E6D6F4"/>
<path opacity="0.4588" d="M17.1343 26.3778L28.1335 14.5793H24.6941C21.9997 15.9224 11.8421 18.9086 7.69336 20.447V23.8363C7.69336 28.5424 14.3625 29.3809 17.1343 26.3778Z" fill="#E5D6F4"/>
<path opacity="0.4618" d="M17.1303 26.3655L28.1192 14.5793H24.6931C21.9942 15.9209 11.8381 18.9086 7.69238 20.447V23.8255C7.69387 28.5347 14.36 29.3686 17.1303 26.3655Z" fill="#E5D6F4"/>
<path opacity="0.4648" d="M17.1268 26.3547L28.1053 14.5793H24.6941C21.9908 15.9209 11.8346 18.9086 7.69336 20.447V23.8132C7.69336 28.527 14.3566 29.3578 17.1268 26.3547Z" fill="#E5D5F4"/>
<path opacity="0.4678" d="M17.1224 26.3427L28.0919 14.5781H24.6941C21.9863 15.9181 11.8316 18.9074 7.69336 20.4458V23.8012C7.69336 28.5197 14.3551 29.3458 17.1224 26.3427Z" fill="#E5D5F4"/>
<path opacity="0.4708" d="M17.1179 26.3317L28.077 14.5793H24.6941C21.9818 15.9193 11.8287 18.9086 7.69336 20.447V23.7901C7.69336 28.5101 14.3521 29.3332 17.1179 26.3317Z" fill="#E5D5F4"/>
<path opacity="0.4738" d="M17.1149 26.3197L28.0636 14.5781H24.6941C21.9774 15.9166 11.8257 18.9074 7.69336 20.4458V23.7781C7.69336 28.5027 14.3491 29.3227 17.1149 26.3197Z" fill="#E4D4F4"/>
<path opacity="0.4767" d="M17.1105 26.3086L28.0487 14.5793H24.6941C21.9729 15.9178 11.8227 18.9086 7.69336 20.447V23.767C7.69336 28.4947 14.3461 29.3101 17.1105 26.3086Z" fill="#E4D4F4"/>
<path opacity="0.4797" d="M17.1065 26.2966L28.0344 14.5781H24.6931C21.9675 15.9166 11.8188 18.9058 7.69238 20.4458V23.755C7.69387 28.4874 14.3437 29.2997 17.1065 26.2966Z" fill="#E4D4F4"/>
<path opacity="0.4827" d="M17.103 26.2855L28.0205 14.5793H24.6941C21.964 15.9163 11.8153 18.907 7.69336 20.447V23.744C7.69336 28.4794 14.3417 29.287 17.103 26.2855Z" fill="#E4D3F4"/>
<path opacity="0.4857" d="M17.0991 26.2747L28.0061 14.5793H24.6931C21.9585 15.9163 11.8113 18.907 7.69238 20.447V23.7332C7.69387 28.4701 14.3392 29.2747 17.0991 26.2747Z" fill="#E4D3F3"/>
<path opacity="0.4887" d="M17.0956 26.2624L27.9922 14.5793H24.6941C21.9551 15.9147 11.8093 18.907 7.69336 20.447V23.7209C7.69336 28.4624 14.3357 29.264 17.0956 26.2624Z" fill="#E3D3F3"/>
<path opacity="0.4917" d="M17.0916 26.2516L27.9779 14.5793H24.6931C21.9496 15.9147 11.8054 18.907 7.69238 20.447V23.7101C7.69387 28.4547 14.3333 29.2516 17.0916 26.2516Z" fill="#E3D2F3"/>
<path opacity="0.4947" d="M17.0867 26.2393L27.964 14.5793H24.6941C21.9461 15.9132 11.8034 18.907 7.69336 20.447V23.6978C7.69336 28.447 14.3298 29.2409 17.0867 26.2393Z" fill="#E3D2F3"/>
<path opacity="0.4977" d="M17.0837 26.2286L27.9506 14.5793H24.6941C21.9417 15.9132 11.8004 18.907 7.69336 20.447V23.687C7.69336 28.4393 14.3283 29.2286 17.0837 26.2286Z" fill="#E3D1F3"/>
<path opacity="0.5007" d="M17.0792 26.2163L27.9357 14.5793H24.6941C21.9372 15.9132 11.796 18.9055 7.69336 20.447V23.6747C7.69336 28.4301 14.3253 29.2178 17.0792 26.2163Z" fill="#E3D1F3"/>
<path opacity="0.5037" d="M17.0748 26.2055L27.9209 14.5793H24.6941C21.9328 15.9117 11.793 18.9055 7.69336 20.447V23.664C7.69336 28.4224 14.3224 29.2055 17.0748 26.2055Z" fill="#E2D1F3"/>
<path opacity="0.5066" d="M17.0718 26.1935L27.9075 14.5781H24.6941C21.9283 15.9104 11.79 18.9043 7.69336 20.4458V23.6504C7.69336 28.4151 14.3194 29.1935 17.0718 26.1935Z" fill="#E2D0F3"/>
<path opacity="0.5096" d="M17.0673 26.1824L27.8926 14.5793H24.6941C21.9239 15.9101 11.787 18.9055 7.69336 20.447V23.6393C7.69336 28.407 14.3164 29.1824 17.0673 26.1824Z" fill="#E2D0F3"/>
<path opacity="0.5126" d="M17.0634 26.1704L27.8782 14.5781H24.6931C21.9184 15.9089 11.7831 18.9043 7.69238 20.4458V23.6274C7.69387 28.3981 14.3154 29.1704 17.0634 26.1704Z" fill="#E2D0F3"/>
<path opacity="0.5156" d="M17.0599 26.1593L27.8644 14.5793H24.6941C21.9149 15.9086 11.7811 18.9055 7.69336 20.447V23.6163C7.69336 28.3901 14.3119 29.1593 17.0599 26.1593Z" fill="#E1CFF3"/>
<path opacity="0.5186" d="M17.056 26.1474L27.85 14.5781H24.6931C21.9095 15.9074 11.7771 18.9043 7.69238 20.4458V23.6043C7.69387 28.3827 14.3095 29.1474 17.056 26.1474Z" fill="#E1CFF2"/>
<path opacity="0.5216" d="M17.0525 26.1363L27.8361 14.5793H24.6941C21.906 15.9086 11.7737 18.904 7.69336 20.447V23.5932C7.69336 28.3747 14.306 29.1363 17.0525 26.1363Z" fill="#E1CFF2"/>
<path opacity="0.5246" d="M17.048 26.1255L27.8227 14.5793H24.6941C21.9015 15.907 11.7707 18.904 7.69336 20.447V23.5824C7.69336 28.367 14.3045 29.124 17.048 26.1255Z" fill="#E1CEF2"/>
<path opacity="0.5276" d="M17.0435 26.1132L27.8079 14.5793H24.6941C21.8971 15.907 11.7677 18.904 7.69336 20.447V23.5701C7.69336 28.3578 14.3015 29.1117 17.0435 26.1132Z" fill="#E1CEF2"/>
<path opacity="0.5306" d="M17.0406 26.1024L27.7945 14.5793H24.6941C21.8926 15.9055 11.7647 18.904 7.69336 20.447V23.5593C7.69336 28.3501 14.2986 29.1009 17.0406 26.1024Z" fill="#E0CEF2"/>
<path opacity="0.5336" d="M17.0361 26.0901L27.7796 14.5793H24.6941C21.8882 15.9055 11.7618 18.904 7.69336 20.447V23.547C7.69336 28.3424 14.2956 29.0886 17.0361 26.0901Z" fill="#E0CDF2"/>
<path opacity="0.5365" d="M17.0322 26.0793L27.7653 14.5793H24.6931C21.8827 15.904 11.7578 18.904 7.69238 20.447V23.5363C7.69387 28.3347 14.2931 29.0778 17.0322 26.0793Z" fill="#E0CDF2"/>
<path opacity="0.5395" d="M17.0287 26.0674L27.7513 14.5781H24.6941C21.8792 15.9027 11.7543 18.9027 7.69336 20.4458V23.5227C7.69336 28.3274 14.2911 29.0658 17.0287 26.0674Z" fill="#E0CDF2"/>
<path opacity="0.5425" d="M17.0247 26.0563L27.737 14.5793H24.6931C21.8738 15.904 11.7504 18.9024 7.69238 20.447V23.5132C7.69387 28.3178 14.2887 29.0547 17.0247 26.0563Z" fill="#E0CCF2"/>
<path opacity="0.5455" d="M17.0203 26.0443L27.7221 14.5781H24.6931C21.8693 15.9012 11.7474 18.9012 7.69238 20.4458V23.4997C7.69387 28.3104 14.2857 29.0427 17.0203 26.0443Z" fill="#DFCCF2"/>
<path opacity="0.5485" d="M17.0173 26.0332L27.7087 14.5793H24.6931C21.8649 15.9024 11.7444 18.9024 7.69238 20.447V23.4901C7.69387 28.3024 14.2827 29.0301 17.0173 26.0332Z" fill="#DFCCF2"/>
<path opacity="0.5515" d="M17.0123 26.0212L27.6949 14.5781H24.6941C21.8614 15.8997 11.7424 18.9012 7.69336 20.4458V23.4766C7.69336 28.295 14.2792 29.0197 17.0123 26.0212Z" fill="#DFCBF1"/>
<path opacity="0.5545" d="M17.0088 26.0099L27.681 14.5791H24.6951C21.8579 15.9006 11.7404 18.9022 7.69434 20.4468V23.4668C7.69285 28.2868 14.2772 29.0068 17.0088 26.0099Z" fill="#DFCBF1"/>
<path opacity="0.5575" d="M17.0049 25.9993L27.6666 14.5793H24.6941C21.8525 15.8993 11.735 18.9024 7.69336 20.447V23.4547C7.69336 28.2778 14.2748 28.9963 17.0049 25.9993Z" fill="#DECBF1"/>
<path opacity="0.5605" d="M17.0004 25.987L27.6517 14.5793H24.6941C21.848 15.8993 11.732 18.9024 7.69336 20.447V23.444C7.69336 28.2701 14.2718 28.984 17.0004 25.987Z" fill="#DECAF1"/>
<path opacity="0.5635" d="M16.9974 25.9763L27.6383 14.5793H24.6941C21.8421 15.8993 11.729 18.9009 7.69336 20.447V23.4317C7.69336 28.2624 14.2688 28.9732 16.9974 25.9763Z" fill="#DECAF1"/>
<path opacity="0.5664" d="M16.993 25.964L27.6235 14.5793H24.6941C21.8376 15.8978 11.7261 18.9009 7.69336 20.447V23.4209C7.69336 28.2547 14.2659 28.9609 16.993 25.964Z" fill="#DECAF1"/>
<path opacity="0.5694" d="M16.989 25.9532L27.6091 14.5793H24.6931C21.8322 15.8978 11.7221 18.9009 7.69238 20.447V23.4086C7.69387 28.247 14.2649 28.9486 16.989 25.9532Z" fill="#DEC9F1"/>
<path opacity="0.5724" d="M16.9856 25.9409L27.5952 14.5793H24.6941C21.8287 15.8963 11.7201 18.9009 7.69336 20.447V23.3963C7.69336 28.2378 14.2614 28.9378 16.9856 25.9409Z" fill="#DDC9F1"/>
<path opacity="0.5754" d="M16.9816 25.9301L27.5809 14.5793H24.6931C21.8232 15.8963 11.7147 18.9009 7.69238 20.447V23.3855C7.69387 28.2301 14.2589 28.9255 16.9816 25.9301Z" fill="#DDC9F1"/>
<path opacity="0.5784" d="M16.9766 25.9181L27.567 14.5781H24.6941C21.8197 15.8935 11.7127 18.8997 7.69336 20.4458V23.372C7.69336 28.2227 14.2554 28.915 16.9766 25.9181Z" fill="#DDC8F1"/>
<path opacity="0.5814" d="M16.9737 25.907L27.5536 14.5793H24.6941C21.8153 15.8947 11.7097 18.9009 7.69336 20.447V23.3624C7.69336 28.2147 14.254 28.9024 16.9737 25.907Z" fill="#DDC8F1"/>
<path opacity="0.5844" d="M16.9692 25.8951L27.5387 14.5781H24.6941C21.8108 15.892 11.7067 18.8981 7.69336 20.4458V23.3489C7.69336 28.2074 14.251 28.892 16.9692 25.8951Z" fill="#DDC8F0"/>
<path opacity="0.5874" d="M16.9662 25.884L27.5253 14.5793H24.6941C21.8064 15.8932 11.7038 18.8993 7.69336 20.447V23.3393C7.69336 28.1978 14.248 28.8794 16.9662 25.884Z" fill="#DCC7F0"/>
<path opacity="0.5904" d="M16.9618 25.8732L27.5105 14.5793H24.6941C21.8019 15.8932 11.7008 18.8993 7.69336 20.447V23.327C7.69336 28.1901 14.245 28.867 16.9618 25.8732Z" fill="#DCC7F0"/>
<path opacity="0.5934" d="M16.9578 25.8609L27.4961 14.5793H24.6931C21.7965 15.8917 11.6968 18.8993 7.69238 20.447V23.3163C7.69387 28.1824 14.2426 28.8563 16.9578 25.8609Z" fill="#DCC7F0"/>
<path opacity="0.5963" d="M16.9543 25.8501L27.4822 14.5793H24.6941C21.793 15.8917 11.6934 18.8993 7.69336 20.447V23.304C7.69336 28.1747 14.2406 28.844 16.9543 25.8501Z" fill="#DCC6F0"/>
<path opacity="0.5993" d="M16.9504 25.8378L27.4679 14.5793H24.6931C21.7876 15.8901 11.6894 18.8993 7.69238 20.447V23.2932C7.69387 28.167 14.2381 28.8332 16.9504 25.8378Z" fill="#DBC6F0"/>
<path opacity="0.6023" d="M16.9459 25.827L27.453 14.5793H24.6931C21.7831 15.8901 11.6864 18.8993 7.69238 20.447V23.2809C7.69387 28.1578 14.2351 28.8209 16.9459 25.827Z" fill="#DBC6F0"/>
<path opacity="0.6053" d="M16.9419 25.8145L27.4401 14.5791H24.6951C21.7806 15.8883 11.6854 18.8976 7.69434 20.4468V23.2699C7.69285 28.1499 14.2311 28.8099 16.9419 25.8145Z" fill="#DBC5F0"/>
<path opacity="0.6083" d="M16.938 25.804L27.4257 14.5793H24.6941C21.7752 15.8886 11.6815 18.8978 7.69336 20.447V23.2578C7.69336 28.1424 14.2287 28.7978 16.938 25.804Z" fill="#DBC5F0"/>
<path opacity="0.6113" d="M16.9335 25.792L27.4108 14.5781H24.6941C21.7707 15.8874 11.6785 18.8966 7.69336 20.4458V23.2458C7.69336 28.135 14.2272 28.7858 16.9335 25.792Z" fill="#DBC4F0"/>
<path opacity="0.6143" d="M16.9305 25.7809L27.3974 14.5793H24.6941C21.7662 15.887 11.674 18.8978 7.69336 20.447V23.2347C7.69336 28.127 14.2242 28.7747 16.9305 25.7809Z" fill="#DAC4F0"/>
<path opacity="0.6173" d="M16.9261 25.7689L27.3826 14.5781H24.6941C21.7618 15.8858 11.6711 18.8966 7.69336 20.4458V23.2227C7.69336 28.1181 14.2212 28.7627 16.9261 25.7689Z" fill="#DAC4EF"/>
<path opacity="0.6203" d="M16.9221 25.7578L27.3682 14.5793H24.6931C21.7563 15.8855 11.6671 18.8978 7.69238 20.447V23.2117C7.69387 28.1101 14.2188 28.7516 16.9221 25.7578Z" fill="#DAC3EF"/>
<path opacity="0.6233" d="M16.9186 25.7458L27.3543 14.5781H24.6941C21.7528 15.8843 11.6651 18.8966 7.69336 20.4458V23.1997C7.69336 28.1027 14.2168 28.7397 16.9186 25.7458Z" fill="#DAC3EF"/>
<path opacity="0.6262" d="M16.9147 25.7347L27.34 14.5793H24.6931C21.7474 15.884 11.6612 18.8963 7.69238 20.447V23.1886C7.69387 28.0947 14.2143 28.727 16.9147 25.7347Z" fill="#DAC3EF"/>
<path opacity="0.6292" d="M16.9112 25.724L27.3261 14.5793H24.6941C21.7439 15.884 11.6592 18.8963 7.69336 20.447V23.1778C7.69336 28.0855 14.2108 28.7163 16.9112 25.724Z" fill="#D9C2EF"/>
<path opacity="0.6322" d="M16.9073 25.7117L27.3117 14.5793H24.6931C21.7385 15.884 11.6537 18.8963 7.69238 20.447V23.1655C7.69387 28.0778 14.2084 28.704 16.9073 25.7117Z" fill="#D9C2EF"/>
<path opacity="0.6352" d="M16.9023 25.7009L27.2978 14.5793H24.6941C21.735 15.8824 11.6517 18.8963 7.69336 20.447V23.1532C7.69336 28.0701 14.2049 28.6932 16.9023 25.7009Z" fill="#D9C2EF"/>
<path opacity="0.6382" d="M16.8993 25.6886L27.2844 14.5793H24.6941C21.7305 15.8824 11.6487 18.8963 7.69336 20.447V23.1424C7.69336 28.0624 14.2034 28.6809 16.8993 25.6886Z" fill="#D9C1EF"/>
<path opacity="0.6412" d="M16.8948 25.6778L27.2696 14.5793H24.6941C21.7261 15.8809 11.6458 18.8963 7.69336 20.447V23.1301C7.69336 28.0547 14.2004 28.6701 16.8948 25.6778Z" fill="#D9C1EF"/>
<path opacity="0.6442" d="M16.8909 25.6658L27.2552 14.5781H24.6931C21.7206 15.8797 11.6418 18.8935 7.69238 20.4458V23.1181C7.69387 28.0458 14.198 28.6581 16.8909 25.6658Z" fill="#D8C1EF"/>
<path opacity="0.6472" d="M16.8874 25.6547L27.2413 14.5793H24.6941C21.7172 15.8793 11.6398 18.8947 7.69336 20.447V23.107C7.69336 28.0378 14.1945 28.6455 16.8874 25.6547Z" fill="#D8C0EF"/>
<path opacity="0.6502" d="M16.883 25.6427L27.2264 14.5781H24.6941C21.7127 15.8781 11.6354 18.8935 7.69336 20.4458V23.095C7.69336 28.0304 14.1915 28.635 16.883 25.6427Z" fill="#D8C0EE"/>
<path opacity="0.6532" d="M16.879 25.6317L27.2121 14.5793H24.6931C21.7073 15.8793 11.6314 18.8947 7.69238 20.447V23.084C7.69387 28.0224 14.1905 28.6224 16.879 25.6317Z" fill="#D8C0EE"/>
<path opacity="0.6561" d="M16.8755 25.6197L27.1982 14.5781H24.6941C21.7038 15.8766 11.6294 18.8935 7.69336 20.4458V23.072C7.69336 28.015 14.187 28.612 16.8755 25.6197Z" fill="#D7BFEE"/>
<path opacity="0.6591" d="M16.8716 25.6086L27.1838 14.5793H24.6931C21.6983 15.8778 11.6255 18.8947 7.69238 20.447V23.0609C7.69387 28.0055 14.1846 28.5993 16.8716 25.6086Z" fill="#D7BFEE"/>
<path opacity="0.6621" d="M16.8676 25.5976L27.1709 14.5791H24.6951C21.6958 15.876 11.6244 18.8945 7.69434 20.4468V23.0499C7.69285 27.9976 14.1806 28.5883 16.8676 25.5976Z" fill="#D7BFEE"/>
<path opacity="0.6651" d="M16.8636 25.5855L27.1566 14.5793H24.6941C21.6904 15.8763 11.6205 18.8932 7.69336 20.447V23.0378C7.69336 27.9901 14.1781 28.5763 16.8636 25.5855Z" fill="#D7BEEE"/>
<path opacity="0.6681" d="M16.8592 25.5747L27.1417 14.5793H24.6941C21.6859 15.8747 11.616 18.8932 7.69336 20.447V23.027C7.69336 27.9824 14.1766 28.564 16.8592 25.5747Z" fill="#D7BEEE"/>
<path opacity="0.6711" d="M16.8562 25.5624L27.1283 14.5793H24.6941C21.6815 15.8747 11.6131 18.8932 7.69336 20.447V23.0147C7.69336 27.9747 14.1737 28.5532 16.8562 25.5624Z" fill="#D6BEEE"/>
<path opacity="0.6741" d="M16.8517 25.5517L27.1134 14.5793H24.6941C21.677 15.8747 11.6101 18.8932 7.69336 20.447V23.004C7.69336 27.9655 14.1707 28.5409 16.8517 25.5517Z" fill="#D6BDEE"/>
<path opacity="0.6771" d="M16.8478 25.5393L27.0991 14.5793H24.6931C21.6716 15.8732 11.6061 18.8932 7.69238 20.447V22.9917C7.69387 27.9578 14.1682 28.5301 16.8478 25.5393Z" fill="#D6BDEE"/>
<path opacity="0.6801" d="M16.8443 25.5286L27.0852 14.5793H24.6941C21.6681 15.8732 11.6041 18.8932 7.69336 20.447V22.9809C7.69336 27.9501 14.1662 28.5178 16.8443 25.5286Z" fill="#D6BDEE"/>
<path opacity="0.6831" d="M16.8403 25.5166L27.0708 14.5781H24.6931C21.6626 15.8704 11.6002 18.892 7.69238 20.4458V22.9674C7.69387 27.9427 14.1638 28.5074 16.8403 25.5166Z" fill="#D6BCEE"/>
<path opacity="0.686" d="M16.8359 25.5055L27.0559 14.5793H24.6931C21.6567 15.8717 11.5972 18.8917 7.69238 20.447V22.9578C7.69387 27.9347 14.1608 28.4947 16.8359 25.5055Z" fill="#D5BCED"/>
<path opacity="0.689" d="M16.8324 25.4935L27.0436 14.5781H24.6941C21.6532 15.8689 11.5937 18.8904 7.69336 20.4458V22.9443C7.69336 27.9258 14.1573 28.4827 16.8324 25.4935Z" fill="#D5BCED"/>
<path opacity="0.692" d="M16.8279 25.4824L27.0287 14.5793H24.6941C21.6488 15.8701 11.5908 18.8917 7.69336 20.447V22.9347C7.69336 27.9178 14.1543 28.4717 16.8279 25.4824Z" fill="#D5BBED"/>
<path opacity="0.695" d="M16.825 25.4717L27.0153 14.5793H24.6941C21.6443 15.8686 11.5878 18.8917 7.69336 20.447V22.9224C7.69336 27.9101 14.1528 28.4593 16.825 25.4717Z" fill="#D5BBED"/>
<path opacity="0.698" d="M16.8205 25.4593L27.0004 14.5793H24.6941C21.6398 15.8686 11.5848 18.8917 7.69336 20.447V22.9101C7.69336 27.9024 14.1499 28.4486 16.8205 25.4593Z" fill="#D4BBED"/>
<path opacity="0.701" d="M16.816 25.4486L26.9856 14.5793H24.6941C21.6354 15.8686 11.5818 18.8917 7.69336 20.447V22.8993C7.69336 27.8947 14.1469 28.4363 16.816 25.4486Z" fill="#D4BAED"/>
<path opacity="0.704" d="M16.8131 25.4363L26.9722 14.5793H24.6941C21.6309 15.867 11.5789 18.8917 7.69336 20.447V22.887C7.69336 27.8855 14.1439 28.4255 16.8131 25.4363Z" fill="#D4BAED"/>
<path opacity="0.707" d="M16.8086 25.4255L26.9573 14.5793H24.6941C21.6264 15.867 11.5744 18.8901 7.69336 20.447V22.8763C7.69336 27.8778 14.1409 28.4132 16.8086 25.4255Z" fill="#D4BAED"/>
<path opacity="0.71" d="M16.8047 25.4132L26.9429 14.5793H24.6931C21.621 15.8655 11.5705 18.8901 7.69238 20.447V22.864C7.69387 27.8701 14.14 28.4009 16.8047 25.4132Z" fill="#D4B9ED"/>
<path opacity="0.713" d="M16.8012 25.4024L26.929 14.5793H24.6941C21.6175 15.8655 11.5685 18.8901 7.69336 20.447V22.8532C7.69336 27.8624 14.1365 28.3901 16.8012 25.4024Z" fill="#D3B9ED"/>
<path opacity="0.7159" d="M16.7972 25.3904L26.9147 14.5781H24.6931C21.6121 15.8627 11.5645 18.8889 7.69238 20.4458V22.8397C7.69387 27.8551 14.134 28.3781 16.7972 25.3904Z" fill="#D3B9ED"/>
<path opacity="0.7189" d="M16.7922 25.3793L26.9008 14.5793H24.6941C21.6086 15.864 11.5625 18.8901 7.69336 20.447V22.8301C7.69336 27.8455 14.1305 28.367 16.7922 25.3793Z" fill="#D3B8EC"/>
<path opacity="0.7219" d="M16.7893 25.3674L26.8874 14.5781H24.6941C21.6041 15.8627 11.5595 18.8889 7.69336 20.4458V22.8166C7.69336 27.8381 14.1276 28.3551 16.7893 25.3674Z" fill="#D3B8EC"/>
<path opacity="0.7249" d="M16.7848 25.3563L26.8725 14.5793H24.6941C21.5997 15.8624 11.5551 18.8901 7.69336 20.447V22.807C7.69336 27.8301 14.1261 28.344 16.7848 25.3563Z" fill="#D3B7EC"/>
<path opacity="0.7279" d="M16.7818 25.3443L26.8592 14.5781H24.6941C21.5952 15.8612 11.5521 18.8874 7.69336 20.4458V22.7935C7.69336 27.8227 14.1231 28.332 16.7818 25.3443Z" fill="#D2B7EC"/>
<path opacity="0.7309" d="M16.7774 25.3332L26.8443 14.5793H24.6941C21.5908 15.8609 11.5491 18.8886 7.69336 20.447V22.784C7.69336 27.8147 14.1201 28.3194 16.7774 25.3332Z" fill="#D2B7EC"/>
<path opacity="0.7339" d="M16.7734 25.3224L26.8299 14.5793H24.6931C21.5853 15.8609 11.5452 18.8886 7.69238 20.447V22.7717C7.69387 27.8055 14.1177 28.3086 16.7734 25.3224Z" fill="#D2B6EC"/>
<path opacity="0.7369" d="M16.7699 25.3101L26.816 14.5793H24.6941C21.5818 15.8593 11.5432 18.8886 7.69336 20.447V22.7609C7.69336 27.7978 14.1157 28.2963 16.7699 25.3101Z" fill="#D2B6EC"/>
<path opacity="0.7399" d="M16.766 25.2993L26.8017 14.5793H24.6931C21.5764 15.8593 11.5392 18.8886 7.69238 20.447V22.7486C7.69387 27.7901 14.1132 28.2855 16.766 25.2993Z" fill="#D1B6EC"/>
<path opacity="0.7429" d="M16.7615 25.287L26.7868 14.5793H24.6931C21.5719 15.8593 11.5348 18.8886 7.69238 20.447V22.7378C7.69387 27.7824 14.1102 28.2732 16.7615 25.287Z" fill="#D1B5EC"/>
<path opacity="0.7458" d="M16.758 25.2763L26.7744 14.5793H24.6941C21.5684 15.8578 11.5328 18.8886 7.69336 20.447V22.7255C7.69336 27.7732 14.1067 28.2609 16.758 25.2763Z" fill="#D1B5EC"/>
<path opacity="0.7488" d="M16.7536 25.2643L26.7595 14.5781H24.6941C21.564 15.8566 11.5298 18.8858 7.69336 20.4458V22.7135C7.69336 27.7658 14.1038 28.2504 16.7536 25.2643Z" fill="#D1B5EC"/>
<path opacity="0.7518" d="M16.7491 25.2532L26.7447 14.5793H24.6941C21.5595 15.8563 11.5268 18.887 7.69336 20.447V22.7024C7.69336 27.7578 14.1023 28.2378 16.7491 25.2532Z" fill="#D1B4EB"/>
<path opacity="0.7548" d="M16.7462 25.2412L26.7313 14.5781H24.6941C21.5551 15.855 11.5238 18.8858 7.69336 20.4458V22.6904C7.69336 27.7504 14.0993 28.2274 16.7462 25.2412Z" fill="#D0B4EB"/>
<path opacity="0.7578" d="M16.7417 25.2301L26.7164 14.5793H24.6941C21.5506 15.8547 11.5209 18.887 7.69336 20.447V22.6793C7.69336 27.7424 14.0963 28.2147 16.7417 25.2301Z" fill="#D0B4EB"/>
<path opacity="0.7608" d="M16.7387 25.2181L26.703 14.5781H24.6941C21.5461 15.8535 11.5179 18.8858 7.69336 20.4458V22.6658C7.69336 27.7335 14.0934 28.2043 16.7387 25.2181Z" fill="#D0B3EB"/>
<path opacity="0.7638" d="M16.7343 25.207L26.6882 14.5793H24.6941C21.5417 15.8547 11.5134 18.887 7.69336 20.447V22.6563C7.69336 27.7255 14.0904 28.1916 16.7343 25.207Z" fill="#D0B3EB"/>
<path opacity="0.7668" d="M16.7303 25.1963L26.6738 14.5793H24.6931C21.5362 15.8532 11.5095 18.887 7.69238 20.447V22.644C7.69387 27.7178 14.0894 28.1793 16.7303 25.1963Z" fill="#D0B3EB"/>
<path opacity="0.7698" d="M16.7268 25.184L26.6599 14.5793H24.6941C21.5328 15.8532 11.5075 18.8855 7.69336 20.447V22.6332C7.69336 27.7101 14.0859 28.1686 16.7268 25.184Z" fill="#CFB2EB"/>
<path opacity="0.7728" d="M16.7224 25.1732L26.6465 14.5793H24.6941C21.5283 15.8517 11.5045 18.8855 7.69336 20.447V22.6209C7.69336 27.7024 14.083 28.1563 16.7224 25.1732Z" fill="#CFB2EB"/>
<path opacity="0.7757" d="M16.7179 25.1609L26.6316 14.5793H24.6941C21.5238 15.8517 11.5015 18.8855 7.69336 20.447V22.6101C7.69336 27.6932 14.08 28.1455 16.7179 25.1609Z" fill="#CFB2EB"/>
<path opacity="0.7787" d="M16.7149 25.1501L26.6183 14.5793H24.6941C21.5194 15.8501 11.4986 18.8855 7.69336 20.447V22.5978C7.69336 27.6855 14.0785 28.1332 16.7149 25.1501Z" fill="#CFB1EB"/>
<path opacity="0.7817" d="M16.7105 25.1378L26.6034 14.5793H24.6941C21.5149 15.8501 11.4941 18.8855 7.69336 20.447V22.587C7.69336 27.6778 14.0755 28.1224 16.7105 25.1378Z" fill="#CFB1EB"/>
<path opacity="0.7847" d="M16.7065 25.127L26.589 14.5793H24.6931C21.5095 15.8501 11.4902 18.8855 7.69238 20.447V22.5747C7.69387 27.6701 14.073 28.1101 16.7065 25.127Z" fill="#CEB1EA"/>
<path opacity="0.7877" d="M16.703 25.1151L26.5751 14.5781H24.6941C21.506 15.8474 11.4882 18.8843 7.69336 20.4458V22.5627C7.69336 27.6627 14.0696 28.0981 16.703 25.1151Z" fill="#CEB0EA"/>
<path opacity="0.7907" d="M16.6991 25.104L26.5608 14.5793H24.6931C21.5006 15.8486 11.4842 18.884 7.69238 20.447V22.5517C7.69387 27.6532 14.0671 28.087 16.6991 25.104Z" fill="#CEB0EA"/>
<path opacity="0.7937" d="M16.6946 25.092L26.5459 14.5781H24.6931C21.4961 15.8458 11.4812 18.8827 7.69238 20.4458V22.5397C7.69387 27.6458 14.0656 28.075 16.6946 25.092Z" fill="#CEB0EA"/>
<path opacity="0.7967" d="M16.6916 25.0809L26.5325 14.5793H24.6931C21.4916 15.847 11.4783 18.884 7.69238 20.447V22.5286C7.69387 27.6378 14.0626 28.064 16.6916 25.0809Z" fill="#CDAFEA"/>
<path opacity="0.7997" d="M16.6867 25.0689L26.5186 14.5781H24.6941C21.4882 15.8443 11.4748 18.8827 7.69336 20.4458V22.5166C7.69336 27.6304 14.0592 28.052 16.6867 25.0689Z" fill="#CDAFEA"/>
<path opacity="0.8027" d="M16.6832 25.0576L26.5047 14.5791H24.6951C21.4847 15.8453 11.4728 18.8837 7.69434 20.4468V22.5053C7.69285 27.6222 14.0557 28.0406 16.6832 25.0576Z" fill="#CDAFEA"/>
<path opacity="0.8056" d="M16.6792 25.047L26.4904 14.5793H24.6941C21.4792 15.8455 11.4688 18.884 7.69336 20.447V22.4947C7.69336 27.6132 14.0532 28.0286 16.6792 25.047Z" fill="#CDAEEA"/>
<path opacity="0.8086" d="M16.6748 25.0347L26.4755 14.5793H24.6941C21.4748 15.844 11.4659 18.884 7.69336 20.447V22.4824C7.69336 27.6055 14.0517 28.0163 16.6748 25.0347Z" fill="#CDAEEA"/>
<path opacity="0.8116" d="M16.6718 25.024L26.4621 14.5793H24.6941C21.4688 15.844 11.4629 18.8824 7.69336 20.447V22.4717C7.69336 27.5978 14.0487 28.0055 16.6718 25.024Z" fill="#CCAEEA"/>
<path opacity="0.8146" d="M16.6673 25.0117L26.4473 14.5793H24.6941C21.4644 15.8424 11.4599 18.8824 7.69336 20.447V22.4593C7.69336 27.5901 14.0458 27.9932 16.6673 25.0117Z" fill="#CCADEA"/>
<path opacity="0.8176" d="M16.6634 25.0009L26.4329 14.5793H24.6931C21.4589 15.8424 11.4545 18.8824 7.69238 20.447V22.4486C7.69387 27.5824 14.0433 27.9824 16.6634 25.0009Z" fill="#CCADE9"/>
<path opacity="0.8206" d="M16.6599 24.9889L26.419 14.5781H24.6941C21.4554 15.8397 11.4525 18.8812 7.69336 20.4458V22.435C7.69336 27.5735 14.0398 27.9704 16.6599 24.9889Z" fill="#CCADE9"/>
<path opacity="0.8236" d="M16.656 24.9778L26.4046 14.5793H24.6931C21.45 15.8409 11.4485 18.8824 7.69238 20.447V22.4255C7.69387 27.5655 14.0389 27.9594 16.656 24.9778Z" fill="#CCACE9"/>
<path opacity="0.8266" d="M16.6515 24.9658L26.3898 14.5781H24.6931C21.4455 15.8381 11.4455 18.8812 7.69238 20.4458V22.412C7.69387 27.5581 14.0359 27.9474 16.6515 24.9658Z" fill="#CBACE9"/>
<path opacity="0.8296" d="M16.648 24.9547L26.3774 14.5793H24.6941C21.4421 15.8393 11.4435 18.8824 7.69336 20.447V22.4009C7.69336 27.5501 14.0324 27.9347 16.648 24.9547Z" fill="#CBACE9"/>
<path opacity="0.8326" d="M16.6435 24.9427L26.3625 14.5781H24.6941C21.4376 15.8381 11.4406 18.8797 7.69336 20.4458V22.3889C7.69336 27.5427 14.0294 27.9243 16.6435 24.9427Z" fill="#CBABE9"/>
<path opacity="0.8355" d="M16.6406 24.9317L26.3491 14.5793H24.6941C21.4331 15.8378 11.4376 18.8809 7.69336 20.447V22.3778C7.69336 27.5332 14.0279 27.9117 16.6406 24.9317Z" fill="#CBABE9"/>
<path opacity="0.8385" d="M16.6361 24.9209L26.3343 14.5793H24.6941C21.4287 15.8378 11.4331 18.8809 7.69336 20.447V22.367C7.69336 27.5255 14.025 27.9009 16.6361 24.9209Z" fill="#CAAAE9"/>
<path opacity="0.8415" d="M16.6322 24.9086L26.3199 14.5793H24.6931C21.4232 15.8363 11.4292 18.8809 7.69238 20.447V22.3547C7.69387 27.5178 14.0225 27.8886 16.6322 24.9086Z" fill="#CAAAE9"/>
<path opacity="0.8445" d="M16.6287 24.8978L26.306 14.5793H24.6941C21.4198 15.8363 11.4272 18.8809 7.69336 20.447V22.344C7.69336 27.5101 14.019 27.8778 16.6287 24.8978Z" fill="#CAAAE9"/>
<path opacity="0.8475" d="M16.6247 24.8855L26.2916 14.5793H24.6931C21.4143 15.8347 11.4232 18.8809 7.69238 20.447V22.3317C7.69387 27.5024 14.0165 27.8655 16.6247 24.8855Z" fill="#CAA9E9"/>
<path opacity="0.8505" d="M16.6203 24.8747L26.2768 14.5793H24.6931C21.4099 15.8347 11.4203 18.8809 7.69238 20.447V22.3209C7.69387 27.4932 14.0151 27.8532 16.6203 24.8747Z" fill="#CAA9E8"/>
<path opacity="0.8535" d="M16.6168 24.8627L26.2629 14.5781H24.6941C21.4064 15.8335 11.4183 18.8781 7.69336 20.4458V22.3074C7.69336 27.4858 14.0116 27.8427 16.6168 24.8627Z" fill="#C9A9E8"/>
<path opacity="0.8565" d="M16.6123 24.8517L26.2495 14.5793H24.6941C21.4019 15.8332 11.4138 18.8793 7.69336 20.447V22.2978C7.69336 27.4778 14.0086 27.8301 16.6123 24.8517Z" fill="#C9A8E8"/>
<path opacity="0.8595" d="M16.6079 24.8397L26.2346 14.5781H24.6941C21.3974 15.832 11.4108 18.8781 7.69336 20.4458V22.2843C7.69336 27.4704 14.0056 27.8197 16.6079 24.8397Z" fill="#C9A8E8"/>
<path opacity="0.8625" d="M16.6049 24.8286L26.2212 14.5793H24.6941C21.393 15.8317 11.4079 18.8793 7.69336 20.447V22.2747C7.69336 27.4624 14.0027 27.807 16.6049 24.8286Z" fill="#C9A8E8"/>
<path opacity="0.8654" d="M16.6004 24.8166L26.2064 14.5781H24.6941C21.3885 15.8304 11.4049 18.8781 7.69336 20.4458V22.2612C7.69336 27.4535 14.0012 27.7966 16.6004 24.8166Z" fill="#C9A7E8"/>
<path opacity="0.8684" d="M16.5974 24.8055L26.193 14.5793H24.6941C21.3841 15.8301 11.4019 18.8793 7.69336 20.447V22.2517C7.69336 27.4455 13.9982 27.784 16.5974 24.8055Z" fill="#C8A7E8"/>
<path opacity="0.8714" d="M16.593 24.7947L26.1781 14.5793H24.6941C21.3796 15.8301 11.3989 18.8793 7.69336 20.447V22.2393C7.69336 27.4378 13.9952 27.7717 16.593 24.7947Z" fill="#C8A7E8"/>
<path opacity="0.8744" d="M16.589 24.7824L26.1638 14.5793H24.6931C21.3742 15.8301 11.3935 18.8778 7.69238 20.447V22.2286C7.69387 27.4301 13.9928 27.7609 16.589 24.7824Z" fill="#C8A6E8"/>
<path opacity="0.8774" d="M16.5856 24.7717L26.1499 14.5793H24.6941C21.3707 15.8286 11.3915 18.8778 7.69336 20.447V22.2163C7.69336 27.4209 13.9893 27.7486 16.5856 24.7717Z" fill="#C8A6E8"/>
<path opacity="0.8804" d="M16.5816 24.7593L26.1355 14.5793H24.6931C21.3653 15.8286 11.3876 18.8778 7.69238 20.447V22.2055C7.69387 27.4132 13.9883 27.7378 16.5816 24.7593Z" fill="#C8A6E8"/>
<path opacity="0.8834" d="M16.5766 24.7486L26.1216 14.5793H24.6941C21.3618 15.827 11.3856 18.8778 7.69336 20.447V22.1932C7.69336 27.4055 13.9848 27.7255 16.5766 24.7486Z" fill="#C7A5E7"/>
<path opacity="0.8864" d="M16.5737 24.7363L26.1082 14.5793H24.6941C21.3573 15.827 11.3826 18.8778 7.69336 20.447V22.1824C7.69336 27.3978 13.9818 27.7132 16.5737 24.7363Z" fill="#C7A5E7"/>
<path opacity="0.8894" d="M16.5692 24.7255L26.0934 14.5793H24.6941C21.3528 15.8255 11.3796 18.8778 7.69336 20.447V22.1701C7.69336 27.3901 13.9789 27.7024 16.5692 24.7255Z" fill="#C7A5E7"/>
<path opacity="0.8924" d="M16.5652 24.7135L26.079 14.5781H24.6931C21.3474 15.8243 11.3742 18.8766 7.69238 20.4458V22.1597C7.69387 27.3812 13.9779 27.6904 16.5652 24.7135Z" fill="#C7A4E7"/>
<path opacity="0.8953" d="M16.5618 24.7024L26.0651 14.5793H24.6941C21.3439 15.8255 11.3722 18.8763 7.69336 20.447V22.147C7.69336 27.3732 13.9744 27.6793 16.5618 24.7024Z" fill="#C6A4E7"/>
<path opacity="0.8983" d="M16.5573 24.6904L26.0502 14.5781H24.6941C21.3395 15.8227 11.3692 18.875 7.69336 20.4458V22.1335C7.69336 27.3658 13.9714 27.6674 16.5573 24.6904Z" fill="#C6A4E7"/>
<path opacity="0.9013" d="M16.5543 24.6793L26.0369 14.5793H24.6941C21.335 15.824 11.3662 18.8763 7.69336 20.447V22.124C7.69336 27.3578 13.9685 27.6563 16.5543 24.6793Z" fill="#C6A3E7"/>
<path opacity="0.9043" d="M16.5499 24.6674L26.022 14.5781H24.6941C21.3305 15.8212 11.3632 18.875 7.69336 20.4458V22.1104C7.69336 27.3504 13.9655 27.6443 16.5499 24.6674Z" fill="#C6A3E7"/>
<path opacity="0.9073" d="M16.5459 24.6563L26.0076 14.5793H24.6931C21.3251 15.8224 11.3593 18.8763 7.69238 20.447V22.1009C7.69387 27.3409 13.9645 27.6317 16.5459 24.6563Z" fill="#C6A3E7"/>
<path opacity="0.9103" d="M16.5419 24.6453L25.9947 14.5791H24.6951C21.3226 15.8206 11.3583 18.876 7.69434 20.4468V22.0883C7.69285 27.333 13.9605 27.6206 16.5419 24.6453Z" fill="#C5A2E7"/>
<path opacity="0.9133" d="M16.538 24.6332L25.9803 14.5793H24.6941C21.3171 15.8209 11.3528 18.8763 7.69336 20.447V22.0778C7.69336 27.3255 13.958 27.6086 16.538 24.6332Z" fill="#C5A2E7"/>
<path opacity="0.9163" d="M16.5335 24.6224L25.9655 14.5793H24.6941C21.3127 15.8209 11.3499 18.8747 7.69336 20.447V22.0655C7.69336 27.3178 13.9551 27.5978 16.5335 24.6224Z" fill="#C5A2E7"/>
<path opacity="0.9193" d="M16.5305 24.6101L25.9521 14.5793H24.6941C21.3082 15.8193 11.3469 18.8747 7.69336 20.447V22.0547C7.69336 27.3101 13.9521 27.5855 16.5305 24.6101Z" fill="#C5A1E6"/>
<path opacity="0.9223" d="M16.5261 24.5993L25.9372 14.5793H24.6941C21.3038 15.8193 11.3439 18.8747 7.69336 20.447V22.0424C7.69336 27.3009 13.9506 27.5747 16.5261 24.5993Z" fill="#C5A1E6"/>
<path opacity="0.9252" d="M16.5221 24.5874L25.9229 14.5781H24.6931C21.2983 15.8166 11.34 18.8735 7.69238 20.4458V22.0304C7.69387 27.2935 13.9481 27.5627 16.5221 24.5874Z" fill="#C4A1E6"/>
<path opacity="0.9282" d="M16.5186 24.5763L25.909 14.5793H24.6941C21.2948 15.8178 11.338 18.8747 7.69336 20.447V22.0193C7.69336 27.2855 13.9447 27.5501 16.5186 24.5763Z" fill="#C4A0E6"/>
<path opacity="0.9312" d="M16.5147 24.5643L25.8946 14.5781H24.6931C21.2894 15.815 11.3325 18.8735 7.69238 20.4458V22.0074C7.69387 27.2781 13.9422 27.5397 16.5147 24.5643Z" fill="#C4A0E6"/>
<path opacity="0.9342" d="M16.5112 24.5532L25.8807 14.5793H24.6941C21.2844 15.8163 11.3305 18.8747 7.69336 20.447V21.9963C7.69336 27.2701 13.9402 27.527 16.5112 24.5532Z" fill="#C4A0E6"/>
<path opacity="0.9372" d="M16.5073 24.5412L25.8664 14.5781H24.6931C21.279 15.815 11.3266 18.872 7.69238 20.4458V21.9843C7.69387 27.2612 13.9377 27.5166 16.5073 24.5412Z" fill="#C39FE6"/>
<path opacity="0.9402" d="M16.5023 24.5301L25.8525 14.5793H24.6941C21.2755 15.8147 11.3246 18.8732 7.69336 20.447V21.9732C7.69336 27.2532 13.9343 27.504 16.5023 24.5301Z" fill="#C39FE6"/>
<path opacity="0.9432" d="M16.4993 24.5193L25.8391 14.5793H24.6941C21.2711 15.8147 11.3216 18.8732 7.69336 20.447V21.9624C7.69336 27.2455 13.9313 27.4932 16.4993 24.5193Z" fill="#C39FE6"/>
<path opacity="0.9462" d="M16.4948 24.507L25.8242 14.5793H24.6941C21.2666 15.8132 11.3186 18.8732 7.69336 20.447V21.9501C7.69336 27.2378 13.9283 27.4809 16.4948 24.507Z" fill="#C39EE6"/>
<path opacity="0.9492" d="M16.4904 24.4963L25.8094 14.5793H24.6941C21.2621 15.8132 11.3142 18.8732 7.69336 20.447V21.9394C7.69336 27.2301 13.9268 27.4686 16.4904 24.4963Z" fill="#C39EE6"/>
<path opacity="0.9522" d="M16.4874 24.484L25.796 14.5793H24.6941C21.2577 15.8117 11.3112 18.8732 7.69336 20.447V21.927C7.69336 27.2209 13.9238 27.4578 16.4874 24.484Z" fill="#C29DE5"/>
<path opacity="0.9552" d="M16.483 24.4732L25.7811 14.5793H24.6941C21.2532 15.8117 11.3082 18.8732 7.69336 20.447V21.9147C7.69336 27.2132 13.9209 27.4455 16.483 24.4732Z" fill="#C29DE5"/>
<path opacity="0.9581" d="M16.479 24.4609L25.7667 14.5793H24.6931C21.2478 15.8101 11.3043 18.8717 7.69238 20.447V21.904C7.69387 27.2055 13.9184 27.4347 16.479 24.4609Z" fill="#C29DE5"/>
<path opacity="0.9611" d="M16.4755 24.4501L25.7528 14.5793H24.6941C21.2443 15.8101 11.3023 18.8717 7.69336 20.447V21.8917C7.69336 27.1978 13.9149 27.4224 16.4755 24.4501Z" fill="#C29CE5"/>
<path opacity="0.9641" d="M16.4716 24.4381L25.7385 14.5781H24.6931C21.2389 15.8089 11.2983 18.8704 7.69238 20.4458V21.8797C7.69387 27.1904 13.9139 27.412 16.4716 24.4381Z" fill="#C29CE5"/>
<path opacity="0.9671" d="M16.4666 24.427L25.7246 14.5793H24.6941C21.2354 15.8086 11.2948 18.8717 7.69336 20.447V21.8686C7.69336 27.1809 13.9105 27.3993 16.4666 24.427Z" fill="#C19CE5"/>
<path opacity="0.9701" d="M16.4636 24.415L25.7112 14.5781H24.6941C21.2309 15.8074 11.2919 18.8704 7.69336 20.4458V21.8566C7.69336 27.1735 13.9075 27.3874 16.4636 24.415Z" fill="#C19BE5"/>
<path opacity="0.9731" d="M16.4592 24.404L25.6963 14.5793H24.6941C21.2264 15.807 11.2889 18.8717 7.69336 20.447V21.8455C7.69336 27.1655 13.9045 27.3763 16.4592 24.404Z" fill="#C19BE5"/>
<path opacity="0.9761" d="M16.4562 24.3932L25.683 14.5793H24.6941C21.222 15.807 11.2859 18.8717 7.69336 20.447V21.8347C7.69336 27.1578 13.9015 27.364 16.4562 24.3932Z" fill="#C19BE5"/>
<path opacity="0.9791" d="M16.4517 24.3809L25.6681 14.5793H24.6941C21.2175 15.8055 11.2829 18.8701 7.69336 20.447V21.8224C7.69336 27.1501 13.9 27.3532 16.4517 24.3809Z" fill="#C09AE5"/>
<path opacity="0.9821" d="M16.4478 24.3701L25.6537 14.5793H24.6931C21.2121 15.8055 11.279 18.8701 7.69238 20.447V21.8117C7.69387 27.1409 13.8976 27.3409 16.4478 24.3701Z" fill="#C09AE5"/>
<path opacity="0.9851" d="M16.4443 24.3578L25.6398 14.5793H24.6941C21.2086 15.8055 11.277 18.8701 7.69336 20.447V21.7993C7.69336 27.1332 13.8941 27.3301 16.4443 24.3578Z" fill="#C09AE4"/>
<path opacity="0.988" d="M16.4403 24.347L25.6255 14.5793H24.6931C21.2032 15.804 11.2716 18.8701 7.69238 20.447V21.7886C7.69387 27.1255 13.8916 27.3178 16.4403 24.347Z" fill="#C099E4"/>
<path opacity="0.991" d="M16.4359 24.3347L25.6106 14.5793H24.6931C21.1987 15.804 11.2686 18.8701 7.69238 20.447V21.7763C7.69387 27.1178 13.8902 27.3055 16.4359 24.3347Z" fill="#C099E4"/>
<path opacity="0.994" d="M16.4324 24.324L25.5982 14.5793H24.6941C21.1952 15.8024 11.2666 18.8701 7.69336 20.447V21.7655C7.69336 27.1086 13.8867 27.2947 16.4324 24.324Z" fill="#BF99E4"/>
<path opacity="0.997" d="M16.4279 24.312L25.5833 14.5781H24.6941C21.1908 15.8012 11.2636 18.8674 7.69336 20.4458V21.752C7.69336 27.1012 13.8837 27.2827 16.4279 24.312Z" fill="#BF98E4"/>
<path d="M16.4235 24.3009L25.5685 14.5793H24.6941C21.1863 15.8009 11.2606 18.8686 7.69336 20.447V21.7424C7.69336 27.0932 13.8807 27.2717 16.4235 24.3009Z" fill="#BF98E4"/>
</g>
<path fill-rule="evenodd" clip-rule="evenodd" d="M7.69336 6.40154V20.5769C7.69336 23.1832 9.54977 24.997 11.6616 25.332C11.7039 25.3387 11.7463 25.3449 11.7888 25.3504C13.1063 25.5216 14.5101 25.1171 15.6165 23.9724L24.6946 14.5801H24.694L30.8636 8.19692C33.787 5.17231 31.7157 0 27.5818 0H13.8807C10.4636 0 7.69336 2.86615 7.69336 6.40154Z" fill="url(#paint1_linear_6257_11508)"/>
<path d="M49.8963 31V9.18182H64.3423V12.9851H54.5092V18.1839H63.3835V21.9872H54.5092V31H49.8963ZM67.3599 31V14.6364H71.8983V31H67.3599ZM69.6397 12.527C68.965 12.527 68.3862 12.3033 67.9032 11.8558C67.4274 11.4013 67.1895 10.858 67.1895 10.2259C67.1895 9.60085 67.4274 9.06463 67.9032 8.61719C68.3862 8.16264 68.965 7.93537 69.6397 7.93537C70.3145 7.93537 70.8897 8.16264 71.3656 8.61719C71.8485 9.06463 72.09 9.60085 72.09 10.2259C72.09 10.858 71.8485 11.4013 71.3656 11.8558C70.8897 12.3033 70.3145 12.527 69.6397 12.527ZM80.0721 21.5398V31H75.5337V14.6364H79.859V17.5234H80.0508C80.413 16.5717 81.0202 15.8189 81.8725 15.2649C82.7248 14.7038 83.7582 14.4233 84.9727 14.4233C86.109 14.4233 87.0998 14.6719 87.945 15.169C88.7901 15.6662 89.4471 16.3764 89.9158 17.2997C90.3846 18.2159 90.619 19.3097 90.619 20.581V31H86.0806V21.3906C86.0877 20.3892 85.832 19.608 85.3136 19.0469C84.7951 18.4787 84.0813 18.1946 83.1722 18.1946C82.5614 18.1946 82.0217 18.326 81.5529 18.5888C81.0913 18.8516 80.729 19.2351 80.4663 19.7393C80.2106 20.2365 80.0792 20.8366 80.0721 21.5398ZM98.862 31.3089C97.818 31.3089 96.8876 31.1278 96.0708 30.7656C95.2541 30.3963 94.6078 29.853 94.1319 29.1357C93.6632 28.4112 93.4288 27.5092 93.4288 26.4297C93.4288 25.5206 93.5957 24.7571 93.9295 24.1392C94.2633 23.5213 94.7179 23.0241 95.2931 22.6477C95.8684 22.2713 96.5218 21.9872 97.2534 21.7955C97.992 21.6037 98.7662 21.4688 99.5758 21.3906C100.528 21.2912 101.295 21.1989 101.877 21.1136C102.459 21.0213 102.882 20.8864 103.145 20.7088C103.407 20.5312 103.539 20.2685 103.539 19.9205V19.8565C103.539 19.1818 103.326 18.6598 102.9 18.2905C102.481 17.9212 101.884 17.7365 101.11 17.7365C100.293 17.7365 99.6433 17.9176 99.1603 18.2798C98.6774 18.6349 98.3578 19.0824 98.2015 19.6222L94.0041 19.2812C94.2172 18.2869 94.6362 17.4276 95.2612 16.7031C95.8862 15.9716 96.6923 15.4105 97.6795 15.0199C98.6738 14.6222 99.8244 14.4233 101.131 14.4233C102.04 14.4233 102.91 14.5298 103.741 14.7429C104.579 14.956 105.322 15.2862 105.968 15.7337C106.621 16.1811 107.136 16.7564 107.513 17.4595C107.889 18.1555 108.077 18.9901 108.077 19.9631V31H103.773V28.7308H103.645C103.383 29.2422 103.031 29.6932 102.591 30.0838C102.15 30.4673 101.621 30.7692 101.003 30.9893C100.385 31.2024 99.6717 31.3089 98.862 31.3089ZM100.162 28.1768C100.829 28.1768 101.419 28.0455 101.93 27.7827C102.442 27.5128 102.843 27.1506 103.134 26.696C103.425 26.2415 103.571 25.7266 103.571 25.1513V23.4148C103.429 23.5071 103.233 23.5923 102.985 23.6705C102.743 23.7415 102.47 23.8089 102.165 23.8729C101.859 23.9297 101.554 23.983 101.248 24.0327C100.943 24.0753 100.666 24.1143 100.417 24.1499C99.8848 24.228 99.4196 24.3523 99.0218 24.5227C98.6241 24.6932 98.3152 24.924 98.095 25.2152C97.8748 25.4993 97.7647 25.8544 97.7647 26.2805C97.7647 26.8984 97.9885 27.3707 98.4359 27.6974C98.8904 28.017 99.4657 28.1768 100.162 28.1768ZM120.302 14.6364V18.0455H110.448V14.6364H120.302ZM112.685 10.7159H117.223V25.9716C117.223 26.3906 117.287 26.7173 117.415 26.9517C117.543 27.179 117.72 27.3388 117.948 27.4311C118.182 27.5234 118.452 27.5696 118.757 27.5696C118.97 27.5696 119.183 27.5518 119.396 27.5163C119.61 27.4737 119.773 27.4418 119.887 27.4205L120.6 30.7976C120.373 30.8686 120.053 30.9503 119.642 31.0426C119.23 31.142 118.729 31.2024 118.139 31.2237C117.046 31.2663 116.087 31.1207 115.263 30.7869C114.446 30.4531 113.811 29.9347 113.356 29.2315C112.901 28.5284 112.678 27.6406 112.685 26.5682V10.7159ZM130.54 31.3196C128.857 31.3196 127.408 30.9787 126.193 30.2969C124.986 29.608 124.056 28.6349 123.402 27.3778C122.749 26.1136 122.422 24.6186 122.422 22.8928C122.422 21.2095 122.749 19.7322 123.402 18.4609C124.056 17.1896 124.975 16.1989 126.161 15.4886C127.355 14.7784 128.754 14.4233 130.359 14.4233C131.438 14.4233 132.443 14.5973 133.374 14.9453C134.311 15.2862 135.128 15.8011 135.824 16.4901C136.527 17.179 137.074 18.0455 137.465 19.0895C137.855 20.1264 138.051 21.3409 138.051 22.733V23.9794H124.233V21.1669H133.779C133.779 20.5135 133.637 19.9347 133.352 19.4304C133.068 18.9261 132.674 18.532 132.17 18.2479C131.673 17.9567 131.094 17.8111 130.433 17.8111C129.744 17.8111 129.134 17.9709 128.601 18.2905C128.075 18.603 127.664 19.0256 127.365 19.5582C127.067 20.0838 126.914 20.6697 126.907 21.3161V23.9901C126.907 24.7997 127.056 25.4993 127.355 26.0888C127.66 26.6783 128.09 27.1328 128.644 27.4524C129.198 27.772 129.855 27.9318 130.615 27.9318C131.119 27.9318 131.58 27.8608 131.999 27.7188C132.419 27.5767 132.777 27.3636 133.075 27.0795C133.374 26.7955 133.601 26.4474 133.757 26.0355L137.955 26.3125C137.742 27.321 137.305 28.2017 136.644 28.9545C135.991 29.7003 135.146 30.2827 134.109 30.7017C133.079 31.1136 131.889 31.3196 130.54 31.3196ZM144.512 14.6364L147.516 20.3572L150.595 14.6364H155.251L150.51 22.8182L155.378 31H150.744L147.516 25.343L144.341 31H139.654L144.512 22.8182L139.824 14.6364H144.512Z" fill="white"/>
<defs>
<linearGradient id="paint0_linear_6257_11508" x1="31.2944" y1="27.2739" x2="7.6731" y2="27.2739" gradientUnits="userSpaceOnUse">
<stop stop-color="#9676F2"/>
<stop offset="1" stop-color="#377AFB"/>
</linearGradient>
<linearGradient id="paint1_linear_6257_11508" x1="16.1938" y1="14.7347" x2="16.1938" y2="25.4344" gradientUnits="userSpaceOnUse">
<stop stop-color="#18CCF0"/>
<stop offset="1" stop-color="#01A9F6"/>
</linearGradient>
</defs>
</svg>
