<svg width="149" height="40" viewBox="0 0 149 40" fill="none" xmlns="http://www.w3.org/2000/svg">
<path d="M0.00195312 35.1726V21.8803L17.0027 14.5957H19.8919C24.0257 14.5957 26.0971 19.768 23.1737 22.7926L7.92463 38.568C5.00121 41.5926 0.00195312 39.4511 0.00195312 35.1726Z" fill="url(#paint0_linear_6903_14654)"/>
<g style="mix-blend-mode:multiply">
<path opacity="0.1" d="M9.91325 27.7701L22.1422 14.5947H17.0017C14.8471 16.0178 4.53481 18.9516 0.000976562 20.4624V25.2409C0.000976562 29.5193 6.98834 30.7947 9.91325 27.7701Z" fill="white"/>
<path opacity="0.103" d="M9.9093 27.7578L22.1279 14.5947H17.0008C14.8416 16.0163 4.53086 18.9516 0 20.4624V25.2301C0.00148699 29.5116 6.98737 30.7824 9.9093 27.7578Z" fill="white"/>
<path opacity="0.106" d="M9.90433 27.747L22.114 14.5947H17.0017C14.8382 16.0163 4.52886 18.9501 0.000976562 20.4624V25.2178C0.000976562 29.5024 6.98388 30.7701 9.90433 27.747Z" fill="#FFFEFF"/>
<path opacity="0.109" d="M9.90084 27.7347L22.1001 14.5947H17.0027C14.8347 16.0147 4.52537 18.9501 0.00195336 20.4624V25.207C0.000466374 29.4947 6.98039 30.7593 9.90084 27.7347Z" fill="#FEFEFF"/>
<path opacity="0.112" d="M9.89688 27.724L22.0857 14.5947H17.0017C14.8292 16.0147 4.52142 18.9501 0.000976562 20.4624V25.1947C0.000976562 29.487 6.97792 30.747 9.89688 27.724Z" fill="#FEFEFF"/>
<path opacity="0.115" d="M9.89242 27.7117L22.0709 14.5947H17.0017C14.8248 16.0132 4.51845 18.9501 0.000976563 20.4624V25.184C0.000976562 29.4793 6.97644 30.7363 9.89242 27.7117Z" fill="#FEFDFF"/>
<path opacity="0.1179" d="M9.88945 27.7009L22.0575 14.5947H17.0017C14.8203 16.0132 4.51548 18.9501 0.000976562 20.4624V25.1717C0.000976562 29.4717 6.97347 30.724 9.88945 27.7009Z" fill="#FEFDFE"/>
<path opacity="0.1209" d="M9.88499 27.6891L22.0426 14.5938H17.0017C14.8158 16.0107 4.5125 18.9491 0.000976562 20.4614V25.1599C0.000976563 29.463 6.97049 30.7137 9.88499 27.6891Z" fill="#FEFDFE"/>
<path opacity="0.1239" d="M9.88104 27.6778L22.0283 14.5947H17.0007C14.8104 16.0116 4.50855 18.9501 0 20.4624V25.1486C0.00148699 29.4547 6.96803 30.7009 9.88104 27.6778Z" fill="#FDFCFE"/>
<path opacity="0.1269" d="M9.87756 27.6661L22.0144 14.5938H17.0017C14.8069 16.0107 4.50507 18.9476 0.000976563 20.4614V25.1353C0.000976562 29.4476 6.96455 30.6891 9.87756 27.6661Z" fill="#FDFCFE"/>
<path opacity="0.1299" d="M9.8736 27.6547L22 14.5947H17.0007C14.8015 16.0101 4.50111 18.9486 0 20.4624V25.1255C0.00148699 29.4393 6.96356 30.6778 9.8736 27.6547Z" fill="#FDFCFE"/>
<path opacity="0.1329" d="M9.86915 27.643L21.9851 14.5938H17.0008C14.797 16.0091 4.49815 18.9476 0 20.4614V25.1122C0.00148699 29.4322 6.9606 30.6661 9.86915 27.643Z" fill="#FDFBFE"/>
<path opacity="0.1359" d="M9.86566 27.6316L21.9727 14.5947H17.0017C14.7935 16.0086 4.49614 18.9486 0.000976562 20.4624V25.1024C0.000976562 29.4224 6.95711 30.6547 9.86566 27.6316Z" fill="#FCFBFE"/>
<path opacity="0.1389" d="M9.8612 27.6209L21.9579 14.5947H17.0017C14.7891 16.0086 4.49317 18.9486 0.000976562 20.4624V25.0901C0.000976562 29.4147 6.95414 30.6424 9.8612 27.6209Z" fill="#FCFBFE"/>
<path opacity="0.1419" d="M9.85823 27.6086L21.9445 14.5947H17.0017C14.7846 16.007 4.4902 18.9486 0.000976562 20.4624V25.0793C0.000976562 29.407 6.95117 30.6317 9.85823 27.6086Z" fill="#FCFAFE"/>
<path opacity="0.1449" d="M9.85377 27.5978L21.9296 14.5947H17.0017C14.7802 16.007 4.48722 18.9486 0.000976562 20.4624V25.067C0.000976562 29.3993 6.94968 30.6193 9.85377 27.5978Z" fill="#FCFAFE"/>
<path opacity="0.1478" d="M9.84981 27.5855L21.9152 14.5947H17.0007C14.7747 16.007 4.48178 18.947 0 20.4624V25.0563C0.00148699 29.3916 6.94721 30.607 9.84981 27.5855Z" fill="#FCFAFE"/>
<path opacity="0.1508" d="M9.84632 27.5747L21.9013 14.5947H17.0017C14.7712 16.0055 4.47978 18.947 0.000976562 20.4624V25.044C0.000976562 29.3824 6.94372 30.5963 9.84632 27.5747Z" fill="#FBF9FD"/>
<path opacity="0.1538" d="M9.84238 27.563L21.887 14.5938H17.0007C14.7658 16.0045 4.47583 18.9461 0 20.4614V25.0322C0.00148699 29.3753 6.94126 30.5845 9.84238 27.563Z" fill="#FBF9FD"/>
<path opacity="0.1568" d="M9.83792 27.5517L21.8721 14.5947H17.0007C14.7613 16.004 4.47286 18.947 0 20.4624V25.0209C0.00148699 29.367 6.93829 30.5732 9.83792 27.5517Z" fill="#FBF8FD"/>
<path opacity="0.1598" d="M9.83443 27.5399L21.8582 14.5938H17.0017C14.7578 16.003 4.47086 18.9461 0.000976562 20.4614V25.0091C0.000976563 29.3599 6.93629 30.5614 9.83443 27.5399Z" fill="#FBF8FD"/>
<path opacity="0.1628" d="M9.82997 27.5286L21.8448 14.5947H17.0017C14.7534 16.0024 4.46789 18.947 0.000976562 20.4624V24.9978C0.000976562 29.3501 6.93332 30.5501 9.82997 27.5286Z" fill="#FBF8FD"/>
<path opacity="0.1658" d="M9.82551 27.5168L21.83 14.5938H17.0017C14.7489 16.0014 4.46343 18.9461 0.000976563 20.4614V24.9861C0.000976562 29.343 6.93034 30.5384 9.82551 27.5168Z" fill="#FAF7FD"/>
<path opacity="0.1688" d="M9.82253 27.5055L21.8166 14.5947H17.0017C14.7445 16.0024 4.46045 18.9455 0.000976562 20.4624V24.9747C0.000976562 29.3347 6.92736 30.5255 9.82253 27.5055Z" fill="#FAF7FD"/>
<path opacity="0.1718" d="M9.81808 27.4947L21.8017 14.5947H17.0017C14.74 16.0009 4.45748 18.9455 0.000976562 20.4624V24.964C0.000976563 29.327 6.92589 30.5147 9.81808 27.4947Z" fill="#FAF7FD"/>
<path opacity="0.1748" d="M9.8151 27.4824L21.7883 14.5947H17.0017C14.7355 16.0009 4.45451 18.9455 0.000976562 20.4624V24.9516C0.000976562 29.3193 6.92291 30.5024 9.8151 27.4824Z" fill="#FAF6FD"/>
<path opacity="0.1777" d="M9.81064 27.4717L21.7735 14.5947H17.0017C14.7311 15.9993 4.45153 18.9455 0.000976562 20.4624V24.9409C0.000976563 29.3101 6.91993 30.4916 9.81064 27.4717Z" fill="#F9F6FD"/>
<path opacity="0.1807" d="M9.80669 27.4593L21.7591 14.5947H17.0007C14.7257 15.9993 4.44758 18.9455 0 20.4624V24.9286C0.00148699 29.3024 6.91747 30.4793 9.80669 27.4593Z" fill="#F9F6FD"/>
<path opacity="0.1837" d="M9.8032 27.4486L21.7452 14.5947H17.0017C14.7222 15.9978 4.4441 18.9455 0.000976562 20.4624V24.9178C0.000976563 29.2947 6.91399 30.467 9.8032 27.4486Z" fill="#F9F5FC"/>
<path opacity="0.1867" d="M9.79926 27.4368L21.7309 14.5938H17.0007C14.7167 15.9968 4.44015 18.9445 0 20.4614V24.9045C0.00148699 29.2876 6.91301 30.4568 9.79926 27.4368Z" fill="#F9F5FC"/>
<path opacity="0.1897" d="M9.79429 27.4255L21.717 14.5947H17.0017C14.7118 15.9978 4.43815 18.944 0.000976563 20.4624V24.8932C0.000976562 29.2793 6.90953 30.444 9.79429 27.4255Z" fill="#F9F5FC"/>
<path opacity="0.1927" d="M9.79131 27.4138L21.7036 14.5938H17.0017C14.7073 15.9953 4.43517 18.943 0.000976562 20.4614V24.8814C0.000976562 29.2707 6.90655 30.4338 9.79131 27.4138Z" fill="#F8F4FC"/>
<path opacity="0.1957" d="M9.78685 27.4024L21.6887 14.5947H17.0017C14.7028 15.9963 4.4322 18.944 0.000976562 20.4624V24.8701C0.000976563 29.2624 6.90358 30.4209 9.78685 27.4024Z" fill="#F8F4FC"/>
<path opacity="0.1987" d="M9.7829 27.3907L21.6744 14.5938H17.0007C14.6974 15.9938 4.42825 18.943 0 20.4614V24.8584C0.00148699 29.2553 6.90112 30.4107 9.7829 27.3907Z" fill="#F8F4FC"/>
<path opacity="0.2017" d="M9.77941 27.3793L21.6605 14.5947H17.0017C14.6939 15.9947 4.42477 18.944 0.000976562 20.4624V24.847C0.000976562 29.247 6.89912 30.3978 9.77941 27.3793Z" fill="#F8F3FC"/>
<path opacity="0.2047" d="M9.77495 27.3686L21.6456 14.5947H17.0017C14.6894 15.9932 4.42179 18.944 0.000976563 20.4624V24.8363C0.000976562 29.2393 6.89614 30.3855 9.77495 27.3686Z" fill="#F8F3FC"/>
<path opacity="0.2076" d="M9.77198 27.3563L21.6322 14.5947H17.0017C14.685 15.9932 4.41882 18.944 0.000976562 20.4624V24.824C0.000976562 29.2301 6.89317 30.3747 9.77198 27.3563Z" fill="#F7F3FC"/>
<path opacity="0.2106" d="M9.76752 27.3455L21.6173 14.5947H17.0017C14.6805 15.9932 4.41585 18.9424 0.000976562 20.4624V24.8132C0.000976562 29.2224 6.8902 30.3624 9.76752 27.3455Z" fill="#F7F2FC"/>
<path opacity="0.2136" d="M9.76358 27.3332L21.603 14.5947H17.0008C14.6751 15.9916 4.4119 18.9424 0 20.4624V24.8009C0.00148699 29.2147 6.88922 30.3517 9.76358 27.3332Z" fill="#F7F2FC"/>
<path opacity="0.2166" d="M9.75958 27.3224L21.5901 14.5947H17.0027C14.6726 15.9916 4.41088 18.9424 0.00195337 20.4624V24.7901C0.000466377 29.207 6.88523 30.3393 9.75958 27.3224Z" fill="#F7F2FC"/>
<path opacity="0.2196" d="M9.75562 27.3101L21.5757 14.5947H17.0017C14.6671 15.9901 4.40692 18.9424 0.000976562 20.4624V24.7778C0.000976562 29.1993 6.88276 30.3286 9.75562 27.3101Z" fill="#F6F1FB"/>
<path opacity="0.2226" d="M9.75116 27.2993L21.5608 14.5947H17.0017C14.6627 15.9901 4.40246 18.9424 0.000976563 20.4624V24.767C0.000976562 29.1901 6.87978 30.3163 9.75116 27.2993Z" fill="#F6F1FB"/>
<path opacity="0.2256" d="M9.74819 27.2876L21.5474 14.5938H17.0017C14.6582 15.9876 4.39949 18.9414 0.000976562 20.4614V24.7537C0.000976562 29.183 6.87681 30.3045 9.74819 27.2876Z" fill="#F6F1FB"/>
<path opacity="0.2286" d="M9.74373 27.2763L21.5326 14.5947H17.0017C14.6538 15.9886 4.39652 18.9424 0.000976562 20.4624V24.744C0.000976562 29.1747 6.87533 30.2932 9.74373 27.2763Z" fill="#F6F0FB"/>
<path opacity="0.2316" d="M9.73978 27.2645L21.5182 14.5938H17.0008C14.6483 15.9861 4.39257 18.9399 0 20.4614V24.7307C0.00148699 29.1676 6.87287 30.2814 9.73978 27.2645Z" fill="#F6F0FB"/>
<path opacity="0.2346" d="M9.7363 27.2532L21.5043 14.5947H17.0017C14.6448 15.987 4.39057 18.9409 0.000976562 20.4624V24.7209C0.000976563 29.1593 6.86938 30.2701 9.7363 27.2532Z" fill="#F5F0FB"/>
<path opacity="0.2375" d="M9.73234 27.2414L21.49 14.5938H17.0007C14.6394 15.9861 4.38662 18.9399 0 20.4614V24.7076C0.00148699 29.1507 6.86691 30.2584 9.73234 27.2414Z" fill="#F5EFFB"/>
<path opacity="0.2405" d="M9.72885 27.2301L21.4761 14.5947H17.0017C14.6359 15.9855 4.38313 18.9409 0.000976562 20.4624V24.6978C0.000976562 29.1424 6.86343 30.247 9.72885 27.2301Z" fill="#F5EFFB"/>
<path opacity="0.2435" d="M9.72491 27.2193L21.4617 14.5947H17.0007C14.6305 15.9855 4.37918 18.9409 0 20.4624V24.6855C0.00148699 29.1347 6.86245 30.2347 9.72491 27.2193Z" fill="#F5EFFB"/>
<path opacity="0.2465" d="M9.71993 27.207L21.4478 14.5947H17.0017C14.627 15.984 4.37718 18.9409 0.000976562 20.4624V24.6747C0.000976562 29.127 6.85897 30.2224 9.71993 27.207Z" fill="#F5EEFB"/>
<path opacity="0.2495" d="M9.71695 27.1963L21.4344 14.5947H17.0017C14.6225 15.984 4.37421 18.9409 0.000976562 20.4624V24.6624C0.000976562 29.1193 6.85599 30.2116 9.71695 27.1963Z" fill="#F4EEFB"/>
<path opacity="0.2525" d="M9.71251 27.184L21.4196 14.5947H17.0017C14.6181 15.9824 4.37124 18.9393 0.000976562 20.4624V24.6501C0.000976563 29.1101 6.85303 30.1993 9.71251 27.184Z" fill="#F4EEFA"/>
<path opacity="0.2555" d="M9.70804 27.1732L21.4047 14.5947H17.0017C14.6136 15.9824 4.36826 18.9393 0.000976562 20.4624V24.6393C0.000976562 29.1024 6.85005 30.1886 9.70804 27.1732Z" fill="#F4EDFA"/>
<path opacity="0.2585" d="M9.70506 27.1614L21.3913 14.5938H17.0017C14.6091 15.9814 4.3638 18.9384 0.000976562 20.4614V24.6261C0.000976562 29.0953 6.84856 30.1768 9.70506 27.1614Z" fill="#F4EDFA"/>
<path opacity="0.2615" d="M9.7006 27.1501L21.3764 14.5947H17.0017C14.6047 15.9809 4.36082 18.9393 0.000976562 20.4624V24.6163C0.000976562 29.087 6.84558 30.1655 9.7006 27.1501Z" fill="#F4EDFA"/>
<path opacity="0.2645" d="M9.69665 27.1384L21.3621 14.5938H17.0007C14.5993 15.9799 4.35688 18.9384 0 20.4614V24.603C0.00148699 29.0799 6.84312 30.1537 9.69665 27.1384Z" fill="#F3ECFA"/>
<path opacity="0.2674" d="M9.69317 27.127L21.3482 14.5947H17.0017C14.5958 15.9793 4.35488 18.9393 0.000976562 20.4624V24.5932C0.000976562 29.0701 6.83964 30.1409 9.69317 27.127Z" fill="#F3ECFA"/>
<path opacity="0.2704" d="M9.68922 27.1153L21.3338 14.5938H17.0008C14.5903 15.9784 4.35093 18.9384 0 20.4614V24.5799C0.00148699 29.063 6.83867 30.1307 9.68922 27.1153Z" fill="#F3EBFA"/>
<path opacity="0.2734" d="M9.68425 27.104L21.3199 14.5947H17.0017C14.5869 15.9778 4.34893 18.9378 0.000976562 20.4624V24.5701C0.000976562 29.0547 6.83518 30.1178 9.68425 27.104Z" fill="#F3EBFA"/>
<path opacity="0.2764" d="M9.68127 27.0932L21.3065 14.5947H17.0017C14.5824 15.9778 4.34447 18.9378 0.000976562 20.4624V24.5578C0.000976562 29.047 6.8322 30.107 9.68127 27.0932Z" fill="#F2EBFA"/>
<path opacity="0.2794" d="M9.67681 27.0809L21.2917 14.5947H17.0017C14.5779 15.9778 4.34149 18.9378 0.000976563 20.4624V24.547C0.000976562 29.0378 6.82923 30.0947 9.67681 27.0809Z" fill="#F2EAFA"/>
<path opacity="0.2824" d="M9.67384 27.0701L21.2783 14.5947H17.0017C14.5735 15.9763 4.33852 18.9378 0.000976562 20.4624V24.5347C0.000976562 29.0301 6.82625 30.084 9.67384 27.0701Z" fill="#F2EAFA"/>
<path opacity="0.2854" d="M9.66938 27.0578L21.2634 14.5947H17.0017C14.569 15.9763 4.33555 18.9378 0.000976562 20.4624V24.524C0.000976562 29.0224 6.82477 30.0717 9.66938 27.0578Z" fill="#F2EAF9"/>
<path opacity="0.2884" d="M9.66543 27.047L21.2491 14.5947H17.0008C14.5636 15.9747 4.3316 18.9378 0 20.4624V24.5117C0.00148699 29.0147 6.82231 30.0593 9.66543 27.047Z" fill="#F2E9F9"/>
<path opacity="0.2914" d="M9.66194 27.0353L21.2352 14.5938H17.0017C14.5601 15.9737 4.3296 18.9368 0.000976562 20.4614V24.4999C0.000976563 29.0076 6.81882 30.0491 9.66194 27.0353Z" fill="#F1E9F9"/>
<path opacity="0.2944" d="M9.658 27.024L21.2208 14.5947H17.0008C14.5547 15.9732 4.32565 18.9363 0 20.4624V24.4886C0.00148699 28.9978 6.81636 30.0363 9.658 27.024Z" fill="#F1E9F9"/>
<path opacity="0.2973" d="M9.65353 27.0122L21.206 14.5938H17.0007C14.5502 15.9722 4.32119 18.9353 0 20.4614V24.4768C0.00148699 28.9907 6.81338 30.0261 9.65353 27.0122Z" fill="#F1E8F9"/>
<path opacity="0.3003" d="M9.65004 27.0009L21.1935 14.5947H17.0017C14.5467 15.9732 4.31919 18.9363 0.000976562 20.4624V24.4655C0.000976562 28.9824 6.81138 30.0132 9.65004 27.0009Z" fill="#F1E8F9"/>
<path opacity="0.3033" d="M9.64558 26.9891L21.1787 14.5938H17.0017C14.5422 15.9707 4.31622 18.9353 0.000976562 20.4614V24.4538C0.000976562 28.9753 6.80841 30.003 9.64558 26.9891Z" fill="#F1E8F9"/>
<path opacity="0.3063" d="M9.64112 26.9778L21.1638 14.5947H17.0017C14.5378 15.9716 4.31324 18.9363 0.000976562 20.4624V24.4424C0.000976562 28.967 6.80544 29.9901 9.64112 26.9778Z" fill="#F0E7F9"/>
<path opacity="0.3093" d="M9.63815 26.967L21.1504 14.5947H17.0017C14.5333 15.9701 4.31027 18.9363 0.000976562 20.4624V24.4316C0.000976563 28.9578 6.80247 29.9778 9.63815 26.967Z" fill="#F0E7F9"/>
<path opacity="0.3123" d="M9.63369 26.9547L21.1355 14.5947H17.0017C14.5289 15.9701 4.3073 18.9347 0.000976562 20.4624V24.4193C0.000976563 28.9501 6.79949 29.967 9.63369 26.9547Z" fill="#F0E7F9"/>
<path opacity="0.3153" d="M9.63072 26.944L21.1222 14.5947H17.0017C14.5229 15.9686 4.30284 18.9347 0.000976562 20.4624V24.407C0.000976562 28.9424 6.798 29.9547 9.63072 26.944Z" fill="#F0E6F9"/>
<path opacity="0.3183" d="M9.62626 26.9316L21.1073 14.5947H17.0017C14.5184 15.9686 4.29986 18.9347 0.000976562 20.4624V24.3963C0.000976562 28.9347 6.79503 29.944 9.62626 26.9316Z" fill="#EFE6F8"/>
<path opacity="0.3213" d="M9.6223 26.9209L21.0929 14.5947H17.0007C14.513 15.9686 4.29591 18.9347 0 20.4624V24.384C0.00148699 28.927 6.79256 29.9317 9.6223 26.9209Z" fill="#EFE6F8"/>
<path opacity="0.3243" d="M9.61883 26.9086L21.0791 14.5947H17.0017C14.5095 15.967 4.29392 18.9347 0.000976562 20.4624V24.3732C0.000976562 28.9178 6.78909 29.9193 9.61883 26.9086Z" fill="#EFE5F8"/>
<path opacity="0.3272" d="M9.61487 26.8978L21.0647 14.5947H17.0007C14.5041 15.967 4.28996 18.9347 0 20.4624V24.3609C0.00148699 28.9101 6.78811 29.9086 9.61487 26.8978Z" fill="#EFE5F8"/>
<path opacity="0.3302" d="M9.6099 26.8861L21.0508 14.5938H17.0017C14.5006 15.9645 4.28797 18.9337 0.000976562 20.4614V24.3491C0.000976562 28.903 6.78462 29.8968 9.6099 26.8861Z" fill="#EFE5F8"/>
<path opacity="0.3332" d="M9.60693 26.8747L21.0374 14.5947H17.0017C14.4961 15.9655 4.28351 18.9332 0.000976562 20.4624V24.3378C0.000976562 28.8947 6.78165 29.8855 9.60693 26.8747Z" fill="#EEE4F8"/>
<path opacity="0.3362" d="M9.60246 26.863L21.0225 14.5938H17.0017C14.4917 15.963 4.28053 18.9322 0.000976563 20.4614V24.3261C0.000976562 28.8876 6.77867 29.8737 9.60246 26.863Z" fill="#EEE4F8"/>
<path opacity="0.3392" d="M9.59851 26.8517L21.0082 14.5947H17.0007C14.4862 15.964 4.27658 18.9332 0 20.4624V24.3147C0.00148699 28.8778 6.77621 29.8624 9.59851 26.8517Z" fill="#EEE4F8"/>
<path opacity="0.3422" d="M9.59504 26.8399L20.9943 14.5938H17.0017C14.4828 15.963 4.27459 18.9322 0.000976562 20.4614V24.303C0.000976562 28.8707 6.77422 29.8507 9.59504 26.8399Z" fill="#EEE3F8"/>
<path opacity="0.3452" d="M9.59108 26.8286L20.9799 14.5947H17.0007C14.4773 15.9624 4.27063 18.9332 0 20.4624V24.2916C0.00148699 28.8624 6.77175 29.8378 9.59108 26.8286Z" fill="#EEE3F8"/>
<path opacity="0.3482" d="M9.58759 26.8178L20.966 14.5947H17.0017C14.4738 15.9624 4.26863 18.9332 0.000976562 20.4624V24.2809C0.000976563 28.8547 6.76826 29.827 9.58759 26.8178Z" fill="#EDE3F8"/>
<path opacity="0.3512" d="M9.58365 26.8055L20.9517 14.5947H17.0008C14.4684 15.9609 4.2632 18.9332 0 20.4624V24.2686C0.00148699 28.847 6.7658 29.8147 9.58365 26.8055Z" fill="#EDE2F7"/>
<path opacity="0.3542" d="M9.57918 26.7947L20.9368 14.5947H17.0007C14.4639 15.9609 4.26022 18.9316 0 20.4624V24.2578C0.00148699 28.8378 6.76282 29.804 9.57918 26.7947Z" fill="#EDE2F7"/>
<path opacity="0.3571" d="M9.57519 26.7824L20.9239 14.5947H17.0027C14.4614 15.9593 4.2592 18.9317 0.00195337 20.4624V24.2455C0.000466381 28.8301 6.76032 29.7917 9.57519 26.7824Z" fill="#EDE2F7"/>
<path opacity="0.3601" d="M9.57123 26.7717L20.9095 14.5947H17.0017C14.456 15.9593 4.25525 18.9317 0.000976562 20.4624V24.2347C0.000976562 28.8224 6.75785 29.7809 9.57123 26.7717Z" fill="#EDE1F7"/>
<path opacity="0.3631" d="M9.56678 26.7599L20.8947 14.5938H17.0017C14.4515 15.9568 4.25228 18.9307 0.000976562 20.4614V24.2214C0.000976562 28.8153 6.75488 29.7691 9.56678 26.7599Z" fill="#ECE1F7"/>
<path opacity="0.3661" d="M9.5638 26.7486L20.8813 14.5947H17.0017C14.4471 15.9578 4.2493 18.9316 0.000976562 20.4624V24.2116C0.000976563 28.807 6.75191 29.7563 9.5638 26.7486Z" fill="#ECE1F7"/>
<path opacity="0.3691" d="M9.55934 26.7368L20.8664 14.5938H17.0017C14.4426 15.9568 4.24633 18.9307 0.000976562 20.4614V24.1984C0.000976562 28.7984 6.75042 29.7461 9.55934 26.7368Z" fill="#ECE0F7"/>
<path opacity="0.3721" d="M9.55539 26.7255L20.852 14.5947H17.0007C14.4372 15.9563 4.24089 18.9317 0 20.4624V24.1886C0.00148699 28.7901 6.74796 29.7332 9.55539 26.7255Z" fill="#ECE0F7"/>
<path opacity="0.3751" d="M9.5519 26.7138L20.8381 14.5938H17.0017C14.4337 15.9553 4.23889 18.9291 0.000976562 20.4614V24.1753C0.000976562 28.783 6.74447 29.723 9.5519 26.7138Z" fill="#EBE0F7"/>
<path opacity="0.3781" d="M9.54796 26.7024L20.8238 14.5947H17.0007C14.4283 15.9547 4.23494 18.9301 0 20.4624V24.1655C0.00148699 28.7747 6.74201 29.7101 9.54796 26.7024Z" fill="#EBDFF7"/>
<path opacity="0.3811" d="M9.54448 26.6917L20.8099 14.5947H17.0017C14.4248 15.9547 4.23295 18.9301 0.000976562 20.4624V24.1532C0.000976562 28.767 6.73853 29.6993 9.54448 26.6917Z" fill="#EBDFF7"/>
<path opacity="0.3841" d="M9.54001 26.6793L20.7965 14.5947H17.0017C14.4203 15.9532 4.22997 18.9301 0.000976562 20.4624V24.1409C0.000976563 28.7578 6.73704 29.687 9.54001 26.6793Z" fill="#EBDEF6"/>
<path opacity="0.387" d="M9.53555 26.6686L20.7816 14.5947H17.0017C14.4158 15.9532 4.227 18.9301 0.000976562 20.4624V24.1301C0.000976562 28.7501 6.73406 29.6747 9.53555 26.6686Z" fill="#EBDEF6"/>
<path opacity="0.39" d="M9.53258 26.6563L20.7683 14.5947H17.0017C14.4114 15.9532 4.22254 18.9301 0.000976562 20.4624V24.1178C0.000976562 28.7424 6.73109 29.664 9.53258 26.6563Z" fill="#EADEF6"/>
<path opacity="0.393" d="M9.52811 26.6455L20.7534 14.5947H17.0017C14.4069 15.9516 4.21956 18.9301 0.000976563 20.4624V24.107C0.000976562 28.7347 6.72811 29.6516 9.52811 26.6455Z" fill="#EADDF6"/>
<path opacity="0.396" d="M9.52417 26.6332L20.739 14.5947H17.0007C14.4015 15.9516 4.21561 18.9286 0 20.4624V24.0947C0.00148699 28.727 6.72565 29.6409 9.52417 26.6332Z" fill="#EADDF6"/>
<path opacity="0.399" d="M9.52068 26.6224L20.7252 14.5947H17.0017C14.398 15.9501 4.21362 18.9286 0.000976562 20.4624V24.084C0.000976562 28.7178 6.72366 29.6286 9.52068 26.6224Z" fill="#EADDF6"/>
<path opacity="0.402" d="M9.51672 26.6107L20.7108 14.5938H17.0007C14.3926 15.9491 4.20966 18.9276 0 20.4614V24.0707C0.00148699 28.7107 6.72119 29.6184 9.51672 26.6107Z" fill="#EADCF6"/>
<path opacity="0.405" d="M9.51227 26.5993L20.6959 14.5947H17.0007C14.3881 15.9486 4.20669 18.9286 0 20.4624V24.0609C0.00148699 28.7024 6.71821 29.6055 9.51227 26.5993Z" fill="#E9DCF6"/>
<path opacity="0.408" d="M9.50878 26.5876L20.682 14.5938H17.0017C14.3846 15.9476 4.2032 18.9276 0.000976562 20.4614V24.0476C0.000976562 28.6953 6.71473 29.5937 9.50878 26.5876Z" fill="#E9DCF6"/>
<path opacity="0.411" d="M9.50432 26.5763L20.6686 14.5947H17.0017C14.3802 15.9486 4.20023 18.9286 0.000976562 20.4624V24.0378C0.000976563 28.6855 6.71175 29.5824 9.50432 26.5763Z" fill="#E9DBF6"/>
<path opacity="0.414" d="M9.50083 26.5655L20.6547 14.5947H17.0027C14.3767 15.947 4.19823 18.9286 0.00195337 20.4624V24.0255C0.000466384 28.6778 6.70975 29.5701 9.50083 26.5655Z" fill="#E9DBF6"/>
<path opacity="0.4169" d="M9.49688 26.5532L20.6404 14.5947H17.0017C14.3712 15.947 4.19428 18.927 0.000976562 20.4624V24.0147C0.000976562 28.6701 6.70729 29.5593 9.49688 26.5532Z" fill="#E8DBF5"/>
<path opacity="0.4199" d="M9.49243 26.5424L20.6255 14.5947H17.0017C14.3668 15.9455 4.19131 18.927 0.000976562 20.4624V24.0024C0.000976562 28.6624 6.70432 29.547 9.49243 26.5424Z" fill="#E8DAF5"/>
<path opacity="0.4229" d="M9.48946 26.5301L20.6121 14.5947H17.0017C14.3623 15.9455 4.18834 18.927 0.000976562 20.4624V23.9917C0.000976563 28.6547 6.70135 29.5363 9.48946 26.5301Z" fill="#E8DAF5"/>
<path opacity="0.4259" d="M9.48499 26.5193L20.5973 14.5947H17.0017C14.3579 15.944 4.18388 18.927 0.000976562 20.4624V23.9793C0.000976562 28.6455 6.69986 29.524 9.48499 26.5193Z" fill="#E8DAF5"/>
<path opacity="0.4289" d="M9.48104 26.507L20.5829 14.5947H17.0007C14.3524 15.944 4.17993 18.927 0 20.4624V23.9686C0.00148699 28.6378 6.6974 29.5117 9.48104 26.507Z" fill="#E8D9F5"/>
<path opacity="0.4319" d="M9.47755 26.4963L20.569 14.5947H17.0017C14.3489 15.944 4.17793 18.927 0.000976562 20.4624V23.9563C0.000976562 28.6301 6.69391 29.5009 9.47755 26.4963Z" fill="#E7D9F5"/>
<path opacity="0.4349" d="M9.47361 26.4845L20.5546 14.5938H17.0007C14.3435 15.9414 4.17398 18.9261 0 20.4614V23.9445C0.00148699 28.623 6.69145 29.4891 9.47361 26.4845Z" fill="#E7D9F5"/>
<path opacity="0.4379" d="M9.46915 26.4732L20.5398 14.5947H17.0007C14.3376 15.9424 4.171 18.9255 0 20.4624V23.9332C0.00148699 28.6147 6.68848 29.4778 9.46915 26.4732Z" fill="#E7D8F5"/>
<path opacity="0.4409" d="M9.46567 26.4614L20.5274 14.5938H17.0017C14.3341 15.9399 4.16901 18.9245 0.000976562 20.4614V23.9214C0.000976563 28.6061 6.68648 29.4661 9.46567 26.4614Z" fill="#E7D8F5"/>
<path opacity="0.4439" d="M9.4612 26.4501L20.5125 14.5947H17.0017C14.3296 15.9409 4.16603 18.9255 0.000976562 20.4624V23.9101C0.000976562 28.5978 6.68351 29.4547 9.4612 26.4501Z" fill="#E7D8F5"/>
<path opacity="0.4468" d="M9.45725 26.4384L20.4981 14.5938H17.0007C14.3242 15.9384 4.16059 18.9245 0 20.4614V23.8968C0.00148699 28.5907 6.68104 29.443 9.45725 26.4384Z" fill="#E6D7F5"/>
<path opacity="0.4498" d="M9.45376 26.427L20.4842 14.5947H17.0017C14.3207 15.9393 4.1586 18.9255 0.000976562 20.4624V23.887C0.000976562 28.5824 6.67755 29.4301 9.45376 26.427Z" fill="#E6D7F5"/>
<path opacity="0.4528" d="M9.44931 26.4163L20.4694 14.5947H17.0017C14.3162 15.9393 4.15563 18.9255 0.000976562 20.4624V23.8747C0.000976562 28.5747 6.67459 29.4193 9.44931 26.4163Z" fill="#E6D7F4"/>
<path opacity="0.4558" d="M9.44633 26.404L20.456 14.5947H17.0017C14.3118 15.9378 4.15265 18.9255 0.000976563 20.4624V23.864C0.000976562 28.5655 6.67309 29.407 9.44633 26.404Z" fill="#E6D6F4"/>
<path opacity="0.4588" d="M9.44187 26.3932L20.4411 14.5947H17.0017C14.3073 15.9378 4.14968 18.924 0.000976562 20.4624V23.8517C0.000976562 28.5578 6.67012 29.3963 9.44187 26.3932Z" fill="#E5D6F4"/>
<path opacity="0.4618" d="M9.43792 26.3809L20.4268 14.5947H17.0007C14.3019 15.9363 4.14573 18.924 0 20.4624V23.8409C0.00148699 28.5501 6.66766 29.384 9.43792 26.3809Z" fill="#E5D6F4"/>
<path opacity="0.4648" d="M9.43443 26.3701L20.4129 14.5947H17.0017C14.2984 15.9363 4.14224 18.924 0.000976562 20.4624V23.8286C0.000976562 28.5424 6.66417 29.3732 9.43443 26.3701Z" fill="#E5D5F4"/>
<path opacity="0.4678" d="M9.42997 26.3584L20.3995 14.5938H17.0017C14.2939 15.9338 4.13926 18.923 0.000976562 20.4614V23.8168C0.000976563 28.5353 6.66268 29.3614 9.42997 26.3584Z" fill="#E5D5F4"/>
<path opacity="0.4708" d="M9.4255 26.347L20.3846 14.5947H17.0017C14.2894 15.9347 4.13629 18.924 0.000976562 20.4624V23.8055C0.000976562 28.5255 6.65971 29.3486 9.4255 26.347Z" fill="#E5D5F4"/>
<path opacity="0.4738" d="M9.42253 26.3353L20.3712 14.5938H17.0017C14.285 15.9322 4.13332 18.923 0.000976562 20.4614V23.7938C0.000976562 28.5184 6.65673 29.3384 9.42253 26.3353Z" fill="#E4D4F4"/>
<path opacity="0.4767" d="M9.41808 26.324L20.3564 14.5947H17.0017C14.2805 15.9332 4.13034 18.924 0.000976562 20.4624V23.7824C0.000976562 28.5101 6.65376 29.3255 9.41808 26.324Z" fill="#E4D4F4"/>
<path opacity="0.4797" d="M9.41413 26.3122L20.342 14.5938H17.0007C14.2751 15.9322 4.1264 18.9214 0 20.4614V23.7707C0.00148699 28.503 6.6513 29.3153 9.41413 26.3122Z" fill="#E4D4F4"/>
<path opacity="0.4827" d="M9.41064 26.3009L20.3281 14.5947H17.0017C14.2716 15.9317 4.12291 18.9224 0.000976562 20.4624V23.7593C0.000976562 28.4947 6.64931 29.3024 9.41064 26.3009Z" fill="#E4D3F4"/>
<path opacity="0.4857" d="M9.40669 26.2901L20.3137 14.5947H17.0007C14.2662 15.9316 4.11896 18.9224 0 20.4624V23.7486C0.00148699 28.4855 6.64684 29.2901 9.40669 26.2901Z" fill="#E4D3F3"/>
<path opacity="0.4887" d="M9.4032 26.2778L20.2998 14.5947H17.0017C14.2627 15.9301 4.11696 18.9224 0.000976562 20.4624V23.7363C0.000976562 28.4778 6.64335 29.2793 9.4032 26.2778Z" fill="#E3D3F3"/>
<path opacity="0.4917" d="M9.39925 26.267L20.2855 14.5947H17.0007C14.2572 15.9301 4.11301 18.9224 0 20.4624V23.7255C0.00148699 28.4701 6.64089 29.267 9.39925 26.267Z" fill="#E3D2F3"/>
<path opacity="0.4947" d="M9.39429 26.2547L20.2716 14.5947H17.0017C14.2538 15.9286 4.11101 18.9224 0.000976562 20.4624V23.7132C0.000976562 28.4624 6.63741 29.2563 9.39429 26.2547Z" fill="#E3D2F3"/>
<path opacity="0.4977" d="M9.39132 26.244L20.2582 14.5947H17.0017C14.2493 15.9286 4.10804 18.9224 0.000976562 20.4624V23.7024C0.000976563 28.4547 6.63592 29.244 9.39132 26.244Z" fill="#E3D1F3"/>
<path opacity="0.5007" d="M9.38685 26.2317L20.2434 14.5947H17.0017C14.2448 15.9286 4.10358 18.9209 0.000976562 20.4624V23.6901C0.000976562 28.4455 6.63295 29.2332 9.38685 26.2317Z" fill="#E3D1F3"/>
<path opacity="0.5037" d="M9.38239 26.2209L20.2285 14.5947H17.0017C14.2404 15.927 4.1006 18.9209 0.000976562 20.4624V23.6793C0.000976562 28.4378 6.62997 29.2209 9.38239 26.2209Z" fill="#E2D1F3"/>
<path opacity="0.5066" d="M9.37942 26.2091L20.2151 14.5938H17.0017C14.2359 15.9261 4.09763 18.9199 0.000976562 20.4614V23.6661C0.000976562 28.4307 6.627 29.2091 9.37942 26.2091Z" fill="#E2D0F3"/>
<path opacity="0.5096" d="M9.37496 26.1978L20.2002 14.5947H17.0017C14.2315 15.9255 4.09466 18.9209 0.000976562 20.4624V23.6547C0.000976562 28.4224 6.62403 29.1978 9.37496 26.1978Z" fill="#E2D0F3"/>
<path opacity="0.5126" d="M9.371 26.1861L20.1859 14.5938H17.0007C14.226 15.9245 4.0907 18.9199 0 20.4614V23.643C0.00148699 28.4137 6.62304 29.1861 9.371 26.1861Z" fill="#E2D0F3"/>
<path opacity="0.5156" d="M9.36752 26.1747L20.172 14.5947H17.0017C14.2225 15.924 4.08871 18.9209 0.000976562 20.4624V23.6316C0.000976562 28.4055 6.61956 29.1747 9.36752 26.1747Z" fill="#E1CFF3"/>
<path opacity="0.5186" d="M9.36357 26.163L20.1576 14.5938H17.0007C14.2171 15.923 4.08476 18.9199 0 20.4614V23.6199C0.00148699 28.3984 6.6171 29.163 9.36357 26.163Z" fill="#E1CFF2"/>
<path opacity="0.5216" d="M9.36008 26.1517L20.1437 14.5947H17.0017C14.2136 15.924 4.08127 18.9193 0.000976562 20.4624V23.6086C0.000976562 28.3901 6.61361 29.1517 9.36008 26.1517Z" fill="#E1CFF2"/>
<path opacity="0.5246" d="M9.35563 26.1409L20.1304 14.5947H17.0017C14.2092 15.9224 4.0783 18.9193 0.000976562 20.4624V23.5978C0.000976563 28.3824 6.61213 29.1393 9.35563 26.1409Z" fill="#E1CEF2"/>
<path opacity="0.5276" d="M9.35116 26.1286L20.1155 14.5947H17.0017C14.2047 15.9224 4.07533 18.9193 0.000976562 20.4624V23.5855C0.000976562 28.3732 6.60915 29.127 9.35116 26.1286Z" fill="#E1CEF2"/>
<path opacity="0.5306" d="M9.34818 26.1178L20.1021 14.5947H17.0017C14.2002 15.9209 4.07235 18.9193 0.000976562 20.4624V23.5747C0.000976562 28.3655 6.60618 29.1163 9.34818 26.1178Z" fill="#E0CEF2"/>
<path opacity="0.5336" d="M9.34373 26.1055L20.0872 14.5947H17.0017C14.1958 15.9209 4.06938 18.9193 0.000976562 20.4624V23.5624C0.000976562 28.3578 6.60321 29.104 9.34373 26.1055Z" fill="#E0CDF2"/>
<path opacity="0.5365" d="M9.33978 26.0947L20.0729 14.5947H17.0007C14.1903 15.9193 4.06543 18.9193 0 20.4624V23.5516C0.00148699 28.3501 6.60075 29.0932 9.33978 26.0947Z" fill="#E0CDF2"/>
<path opacity="0.5395" d="M9.33629 26.083L20.059 14.5938H17.0017C14.1868 15.9184 4.06194 18.9184 0.000976562 20.4614V23.5384C0.000976562 28.343 6.59875 29.0814 9.33629 26.083Z" fill="#E0CDF2"/>
<path opacity="0.5425" d="M9.33235 26.0717L20.0446 14.5947H17.0007C14.1814 15.9193 4.05799 18.9178 0 20.4624V23.5286C0.00148699 28.3332 6.59628 29.0701 9.33235 26.0717Z" fill="#E0CCF2"/>
<path opacity="0.5455" d="M9.32788 26.0599L20.0297 14.5938H17.0007C14.177 15.9168 4.05502 18.9168 0 20.4614V23.5153C0.00148699 28.3261 6.59331 29.0584 9.32788 26.0599Z" fill="#DFCCF2"/>
<path opacity="0.5485" d="M9.3249 26.0486L20.0163 14.5947H17.0007C14.1725 15.9178 4.05204 18.9178 0 20.4624V23.5055C0.00148699 28.3178 6.59033 29.0455 9.3249 26.0486Z" fill="#DFCCF2"/>
<path opacity="0.5515" d="M9.31994 26.0368L20.0025 14.5938H17.0017C14.169 15.9153 4.05005 18.9168 0.000976562 20.4614V23.4922C0.000976562 28.3107 6.58686 29.0353 9.31994 26.0368Z" fill="#DFCBF1"/>
<path opacity="0.5545" d="M9.31645 26.0255L19.9886 14.5947H17.0027C14.1655 15.9163 4.04805 18.9178 0.00195338 20.4624V23.4824C0.000466387 28.3024 6.58486 29.0224 9.31645 26.0255Z" fill="#DFCBF1"/>
<path opacity="0.5575" d="M9.3125 26.0147L19.9742 14.5947H17.0017C14.1601 15.9147 4.04261 18.9178 0.000976562 20.4624V23.4701C0.000976562 28.2932 6.58239 29.0116 9.3125 26.0147Z" fill="#DECBF1"/>
<path opacity="0.5605" d="M9.30804 26.0024L19.9593 14.5947H17.0017C14.1556 15.9147 4.03964 18.9178 0.000976562 20.4624V23.4593C0.000976562 28.2855 6.57941 28.9993 9.30804 26.0024Z" fill="#DECAF1"/>
<path opacity="0.5635" d="M9.30507 25.9917L19.946 14.5947H17.0017C14.1497 15.9147 4.03666 18.9163 0.000976562 20.4624V23.447C0.000976562 28.2778 6.57644 28.9886 9.30507 25.9917Z" fill="#DECAF1"/>
<path opacity="0.5664" d="M9.30061 25.9793L19.9311 14.5947H17.0017C14.1452 15.9132 4.03369 18.9163 0.000976562 20.4624V23.4363C0.000976562 28.2701 6.57347 28.9763 9.30061 25.9793Z" fill="#DECAF1"/>
<path opacity="0.5694" d="M9.29665 25.9686L19.9167 14.5947H17.0007C14.1398 15.9132 4.02974 18.9163 0 20.4624V23.424C0.00148699 28.2624 6.57249 28.964 9.29665 25.9686Z" fill="#DEC9F1"/>
<path opacity="0.5724" d="M9.29317 25.9563L19.9028 14.5947H17.0017C14.1363 15.9116 4.02774 18.9163 0.000976562 20.4624V23.4116C0.000976562 28.2532 6.56901 28.9532 9.29317 25.9563Z" fill="#DDC9F1"/>
<path opacity="0.5754" d="M9.28922 25.9455L19.8885 14.5947H17.0007C14.1309 15.9116 4.02231 18.9163 0 20.4624V23.4009C0.00148699 28.2455 6.56654 28.9409 9.28922 25.9455Z" fill="#DDC9F1"/>
<path opacity="0.5784" d="M9.28425 25.9337L19.8746 14.5938H17.0017C14.1274 15.9091 4.02031 18.9153 0.000976562 20.4614V23.3876C0.000976562 28.2384 6.56306 28.9307 9.28425 25.9337Z" fill="#DDC8F1"/>
<path opacity="0.5814" d="M9.28127 25.9224L19.8612 14.5947H17.0017C14.1229 15.9101 4.01733 18.9163 0.000976562 20.4624V23.3778C0.000976562 28.2301 6.56157 28.9178 9.28127 25.9224Z" fill="#DDC8F1"/>
<path opacity="0.5844" d="M9.27681 25.9107L19.8463 14.5938H17.0017C14.1184 15.9076 4.01436 18.9138 0.000976562 20.4614V23.3645C0.000976562 28.223 6.55859 28.9076 9.27681 25.9107Z" fill="#DDC8F0"/>
<path opacity="0.5874" d="M9.27383 25.8993L19.8329 14.5947H17.0017C14.114 15.9086 4.01138 18.9147 0.000976562 20.4624V23.3547C0.000976562 28.2132 6.55562 28.8947 9.27383 25.8993Z" fill="#DCC7F0"/>
<path opacity="0.5904" d="M9.26938 25.8886L19.8181 14.5947H17.0017C14.1095 15.9086 4.00841 18.9147 0.000976562 20.4624V23.3424C0.000976562 28.2055 6.55265 28.8824 9.26938 25.8886Z" fill="#DCC7F0"/>
<path opacity="0.5934" d="M9.26543 25.8763L19.8037 14.5947H17.0007C14.1041 15.907 4.00446 18.9147 0 20.4624V23.3317C0.00148699 28.1978 6.55019 28.8716 9.26543 25.8763Z" fill="#DCC7F0"/>
<path opacity="0.5963" d="M9.26194 25.8655L19.7898 14.5947H17.0017C14.1006 15.907 4.00098 18.9147 0.000976562 20.4624V23.3193C0.000976562 28.1901 6.54819 28.8593 9.26194 25.8655Z" fill="#DCC6F0"/>
<path opacity="0.5993" d="M9.25799 25.8532L19.7755 14.5947H17.0007C14.0952 15.9055 3.99703 18.9147 0 20.4624V23.3086C0.00148699 28.1824 6.54573 28.8486 9.25799 25.8532Z" fill="#DBC6F0"/>
<path opacity="0.6023" d="M9.25353 25.8424L19.7606 14.5947H17.0007C14.0907 15.9055 3.99405 18.9147 0 20.4624V23.2963C0.00148699 28.1732 6.54275 28.8363 9.25353 25.8424Z" fill="#DBC6F0"/>
<path opacity="0.6053" d="M9.24954 25.8301L19.7477 14.5947H17.0027C14.0882 15.904 3.99303 18.9132 0.00195338 20.4624V23.2855C0.000466389 28.1655 6.53876 28.8255 9.24954 25.8301Z" fill="#DBC5F0"/>
<path opacity="0.6083" d="M9.24559 25.8193L19.7333 14.5947H17.0017C14.0828 15.904 3.98908 18.9132 0.000976562 20.4624V23.2732C0.000976562 28.1578 6.5363 28.8132 9.24559 25.8193Z" fill="#DBC5F0"/>
<path opacity="0.6113" d="M9.24113 25.8076L19.7185 14.5938H17.0017C14.0783 15.903 3.98611 18.9122 0.000976562 20.4614V23.2614C0.000976563 28.1507 6.53481 28.8014 9.24113 25.8076Z" fill="#DBC4F0"/>
<path opacity="0.6143" d="M9.23815 25.7963L19.7051 14.5947H17.0017C14.0738 15.9024 3.98164 18.9132 0.000976562 20.4624V23.2501C0.000976562 28.1424 6.53183 28.7901 9.23815 25.7963Z" fill="#DAC4F0"/>
<path opacity="0.6173" d="M9.23369 25.7845L19.6902 14.5938H17.0017C14.0694 15.9014 3.97867 18.9122 0.000976562 20.4614V23.2384C0.000976562 28.1338 6.52885 28.7784 9.23369 25.7845Z" fill="#DAC4EF"/>
<path opacity="0.6203" d="M9.22974 25.7732L19.6758 14.5947H17.0007C14.0639 15.9009 3.97472 18.9132 0 20.4624V23.227C0.00148699 28.1255 6.52639 28.767 9.22974 25.7732Z" fill="#DAC3EF"/>
<path opacity="0.6233" d="M9.22625 25.7614L19.6619 14.5938H17.0017C14.0604 15.8999 3.97272 18.9122 0.000976562 20.4614V23.2153C0.000976562 28.1184 6.52439 28.7553 9.22625 25.7614Z" fill="#DAC3EF"/>
<path opacity="0.6262" d="M9.2223 25.7501L19.6476 14.5947H17.0007C14.055 15.8993 3.96877 18.9117 0 20.4624V23.204C0.00148699 28.1101 6.52193 28.7424 9.2223 25.7501Z" fill="#DAC3EF"/>
<path opacity="0.6292" d="M9.21882 25.7393L19.6337 14.5947H17.0017C14.0515 15.8993 3.96678 18.9116 0.000976562 20.4624V23.1932C0.000976562 28.1009 6.51845 28.7317 9.21882 25.7393Z" fill="#D9C2EF"/>
<path opacity="0.6322" d="M9.21487 25.727L19.6193 14.5947H17.0008C14.0461 15.8993 3.96134 18.9116 0 20.4624V23.1809C0.00148699 28.0932 6.51599 28.7193 9.21487 25.727Z" fill="#D9C2EF"/>
<path opacity="0.6352" d="M9.2099 25.7163L19.6054 14.5947H17.0017C14.0426 15.8978 3.95934 18.9116 0.000976562 20.4624V23.1686C0.000976562 28.0855 6.5125 28.7086 9.2099 25.7163Z" fill="#D9C2EF"/>
<path opacity="0.6382" d="M9.20692 25.704L19.5921 14.5947H17.0017C14.0381 15.8978 3.95637 18.9116 0.000976562 20.4624V23.1578C0.000976562 28.0778 6.51101 28.6963 9.20692 25.704Z" fill="#D9C1EF"/>
<path opacity="0.6412" d="M9.20246 25.6932L19.5772 14.5947H17.0017C14.0337 15.8963 3.95339 18.9116 0.000976562 20.4624V23.1455C0.000976562 28.0701 6.50804 28.6855 9.20246 25.6932Z" fill="#D9C1EF"/>
<path opacity="0.6442" d="M9.19851 25.6814L19.5628 14.5938H17.0007C14.0283 15.8953 3.94944 18.9091 0 20.4614V23.1337C0.00148699 28.0614 6.50558 28.6737 9.19851 25.6814Z" fill="#D8C1EF"/>
<path opacity="0.6472" d="M9.19503 25.6701L19.5489 14.5947H17.0017C14.0248 15.8947 3.94745 18.9101 0.000976562 20.4624V23.1224C0.000976562 28.0532 6.50209 28.6609 9.19503 25.6701Z" fill="#D8C0EF"/>
<path opacity="0.6502" d="M9.19057 25.6584L19.5341 14.5938H17.0017C14.0203 15.8937 3.94298 18.9091 0.000976562 20.4614V23.1107C0.000976562 28.0461 6.49912 28.6507 9.19057 25.6584Z" fill="#D8C0EE"/>
<path opacity="0.6532" d="M9.18662 25.647L19.5197 14.5947H17.0007C14.0149 15.8947 3.93903 18.9101 0 20.4624V23.0993C0.00148699 28.0378 6.49814 28.6378 9.18662 25.647Z" fill="#D8C0EE"/>
<path opacity="0.6561" d="M9.18313 25.6353L19.5058 14.5938H17.0017C14.0114 15.8922 3.93704 18.9091 0.000976562 20.4614V23.0876C0.000976563 28.0307 6.49466 28.6276 9.18313 25.6353Z" fill="#D7BFEE"/>
<path opacity="0.6591" d="M9.17918 25.624L19.4914 14.5947H17.0007C14.0059 15.8932 3.93308 18.9101 0 20.4624V23.0763C0.00148699 28.0209 6.49219 28.6147 9.17918 25.624Z" fill="#D7BFEE"/>
<path opacity="0.6621" d="M9.17519 25.6132L19.4785 14.5947H17.0027C14.0034 15.8916 3.93206 18.9101 0.00195338 20.4624V23.0655C0.000466392 28.0132 6.4882 28.604 9.17519 25.6132Z" fill="#D7BFEE"/>
<path opacity="0.6651" d="M9.17124 25.6009L19.4642 14.5947H17.0017C13.998 15.8916 3.92811 18.9086 0.000976562 20.4624V23.0532C0.000976562 28.0055 6.48574 28.5917 9.17124 25.6009Z" fill="#D7BEEE"/>
<path opacity="0.6681" d="M9.16677 25.5901L19.4493 14.5947H17.0017C13.9935 15.8901 3.92365 18.9086 0.000976562 20.4624V23.0424C0.000976562 27.9978 6.48425 28.5793 9.16677 25.5901Z" fill="#D7BEEE"/>
<path opacity="0.6711" d="M9.16381 25.5778L19.4359 14.5947H17.0017C13.9891 15.8901 3.92068 18.9086 0.000976562 20.4624V23.0301C0.000976562 27.9901 6.48128 28.5686 9.16381 25.5778Z" fill="#D6BEEE"/>
<path opacity="0.6741" d="M9.15934 25.567L19.421 14.5947H17.0017C13.9846 15.8901 3.9177 18.9086 0.000976562 20.4624V23.0193C0.000976563 27.9809 6.4783 28.5563 9.15934 25.567Z" fill="#D6BDEE"/>
<path opacity="0.6771" d="M9.15539 25.5547L19.4067 14.5947H17.0007C13.9792 15.8886 3.91375 18.9086 0 20.4624V23.007C0.00148699 27.9732 6.47584 28.5455 9.15539 25.5547Z" fill="#D6BDEE"/>
<path opacity="0.6801" d="M9.1519 25.544L19.3928 14.5947H17.0017C13.9757 15.8886 3.91176 18.9086 0.000976562 20.4624V22.9963C0.000976562 27.9655 6.47384 28.5332 9.1519 25.544Z" fill="#D6BDEE"/>
<path opacity="0.6831" d="M9.14795 25.5322L19.3784 14.5938H17.0007C13.9703 15.8861 3.90781 18.9076 0 20.4614V22.983C0.00148699 27.9584 6.47138 28.523 9.14795 25.5322Z" fill="#D6BCEE"/>
<path opacity="0.686" d="M9.14349 25.5209L19.3636 14.5947H17.0007C13.9643 15.887 3.90483 18.907 0 20.4624V22.9732C0.00148699 27.9501 6.4684 28.5101 9.14349 25.5209Z" fill="#D5BCED"/>
<path opacity="0.689" d="M9.14001 25.5091L19.3512 14.5938H17.0017C13.9608 15.8845 3.90135 18.9061 0.000976562 20.4614V22.9599C0.000976562 27.9414 6.46492 28.4984 9.14001 25.5091Z" fill="#D5BCED"/>
<path opacity="0.692" d="M9.13555 25.4978L19.3363 14.5947H17.0017C13.9564 15.8855 3.89837 18.907 0.000976562 20.4624V22.9501C0.000976562 27.9332 6.46194 28.487 9.13555 25.4978Z" fill="#D5BBED"/>
<path opacity="0.695" d="M9.13257 25.487L19.3229 14.5947H17.0017C13.9519 15.884 3.8954 18.907 0.000976562 20.4624V22.9378C0.000976562 27.9255 6.46045 28.4747 9.13257 25.487Z" fill="#D5BBED"/>
<path opacity="0.698" d="M9.12812 25.4747L19.308 14.5947H17.0017C13.9474 15.884 3.89243 18.907 0.000976562 20.4624V22.9255C0.000976562 27.9178 6.45748 28.464 9.12812 25.4747Z" fill="#D4BBED"/>
<path opacity="0.701" d="M9.12366 25.464L19.2932 14.5947H17.0017C13.943 15.884 3.88945 18.907 0.000976562 20.4624V22.9147C0.000976563 27.9101 6.45451 28.4516 9.12366 25.464Z" fill="#D4BAED"/>
<path opacity="0.704" d="M9.12068 25.4516L19.2798 14.5947H17.0017C13.9385 15.8824 3.88648 18.907 0.000976562 20.4624V22.9024C0.000976562 27.9009 6.45153 28.4409 9.12068 25.4516Z" fill="#D4BAED"/>
<path opacity="0.707" d="M9.11622 25.4409L19.2649 14.5947H17.0017C13.9341 15.8824 3.88202 18.9055 0.000976562 20.4624V22.8917C0.000976562 27.8932 6.44856 28.4286 9.11622 25.4409Z" fill="#D4BAED"/>
<path opacity="0.71" d="M9.11227 25.4286L19.2506 14.5947H17.0007C13.9286 15.8809 3.87807 18.9055 0 20.4624V22.8793C0.00148699 27.8855 6.44758 28.4163 9.11227 25.4286Z" fill="#D4B9ED"/>
<path opacity="0.713" d="M9.10878 25.4178L19.2367 14.5947H17.0017C13.9251 15.8809 3.87607 18.9055 0.000976562 20.4624V22.8686C0.000976563 27.8778 6.4441 28.4055 9.10878 25.4178Z" fill="#D3B9ED"/>
<path opacity="0.7159" d="M9.10483 25.4061L19.2223 14.5938H17.0007C13.9197 15.8784 3.87212 18.9045 0 20.4614V22.8553C0.00148699 27.8707 6.44164 28.3938 9.10483 25.4061Z" fill="#D3B9ED"/>
<path opacity="0.7189" d="M9.09986 25.3947L19.2084 14.5947H17.0017C13.9162 15.8793 3.87012 18.9055 0.000976562 20.4624V22.8455C0.000976563 27.8609 6.43815 28.3824 9.09986 25.3947Z" fill="#D3B8EC"/>
<path opacity="0.7219" d="M9.09689 25.383L19.195 14.5938H17.0017C13.9118 15.8784 3.86715 18.9045 0.000976562 20.4614V22.8322C0.000976562 27.8538 6.43518 28.3707 9.09689 25.383Z" fill="#D3B8EC"/>
<path opacity="0.7249" d="M9.09242 25.3716L19.1802 14.5947H17.0017C13.9073 15.8778 3.86269 18.9055 0.000976562 20.4624V22.8224C0.000976562 27.8455 6.43369 28.3593 9.09242 25.3716Z" fill="#D3B7EC"/>
<path opacity="0.7279" d="M9.08946 25.3599L19.1668 14.5938H17.0017C13.9028 15.8768 3.85971 18.903 0.000976562 20.4614V22.8091C0.000976562 27.8384 6.43072 28.3476 9.08946 25.3599Z" fill="#D2B7EC"/>
<path opacity="0.7309" d="M9.08499 25.3486L19.1519 14.5947H17.0017C13.8984 15.8763 3.85674 18.904 0.000976562 20.4624V22.7993C0.000976563 27.8301 6.42774 28.3347 9.08499 25.3486Z" fill="#D2B7EC"/>
<path opacity="0.7339" d="M9.08104 25.3378L19.1376 14.5947H17.0007C13.8929 15.8763 3.85279 18.904 0 20.4624V22.787C0.00148699 27.8209 6.42528 28.324 9.08104 25.3378Z" fill="#D2B6EC"/>
<path opacity="0.7369" d="M9.07756 25.3255L19.1237 14.5947H17.0017C13.8895 15.8747 3.85079 18.904 0.000976562 20.4624V22.7763C0.000976562 27.8132 6.42328 28.3117 9.07756 25.3255Z" fill="#D2B6EC"/>
<path opacity="0.7399" d="M9.07361 25.3147L19.1093 14.5947H17.0007C13.884 15.8747 3.84684 18.904 0 20.4624V22.764C0.00148699 27.8055 6.42082 28.3009 9.07361 25.3147Z" fill="#D1B6EC"/>
<path opacity="0.7429" d="M9.06914 25.3024L19.0944 14.5947H17.0007C13.8795 15.8747 3.84238 18.904 0 20.4624V22.7532C0.00148699 27.7978 6.41784 28.2886 9.06914 25.3024Z" fill="#D1B5EC"/>
<path opacity="0.7458" d="M9.06566 25.2916L19.082 14.5947H17.0017C13.8761 15.8732 3.84038 18.904 0.000976562 20.4624V22.7409C0.000976562 27.7886 6.41436 28.2763 9.06566 25.2916Z" fill="#D1B5EC"/>
<path opacity="0.7488" d="M9.0612 25.2799L19.0671 14.5938H17.0017C13.8716 15.8722 3.83741 18.9014 0.000976562 20.4614V22.7291C0.000976562 27.7814 6.41138 28.2661 9.0612 25.2799Z" fill="#D1B5EC"/>
<path opacity="0.7518" d="M9.05674 25.2686L19.0523 14.5947H17.0017C13.8671 15.8716 3.83443 18.9024 0.000976562 20.4624V22.7178C0.000976562 27.7732 6.4099 28.2532 9.05674 25.2686Z" fill="#D1B4EB"/>
<path opacity="0.7548" d="M9.05377 25.2568L19.0389 14.5938H17.0017C13.8627 15.8707 3.83146 18.9014 0.000976562 20.4614V22.7061C0.000976562 27.7661 6.40693 28.243 9.05377 25.2568Z" fill="#D0B4EB"/>
<path opacity="0.7578" d="M9.0493 25.2455L19.024 14.5947H17.0017C13.8582 15.8701 3.82849 18.9024 0.000976562 20.4624V22.6947C0.000976563 27.7578 6.40395 28.2301 9.0493 25.2455Z" fill="#D0B4EB"/>
<path opacity="0.7608" d="M9.04632 25.2338L19.0106 14.5938H17.0017C13.8538 15.8691 3.82551 18.9014 0.000976562 20.4614V22.6814C0.000976562 27.7491 6.40097 28.2199 9.04632 25.2338Z" fill="#D0B3EB"/>
<path opacity="0.7638" d="M9.04187 25.2224L18.9958 14.5947H17.0017C13.8493 15.8701 3.82105 18.9024 0.000976562 20.4624V22.6716C0.000976562 27.7409 6.398 28.207 9.04187 25.2224Z" fill="#D0B3EB"/>
<path opacity="0.7668" d="M9.03792 25.2117L18.9814 14.5947H17.0007C13.8439 15.8686 3.8171 18.9024 0 20.4624V22.6593C0.00148699 27.7332 6.39703 28.1947 9.03792 25.2117Z" fill="#D0B3EB"/>
<path opacity="0.7698" d="M9.03443 25.1993L18.9675 14.5947H17.0017C13.8404 15.8686 3.8151 18.9009 0.000976562 20.4624V22.6486C0.000976563 27.7255 6.39354 28.184 9.03443 25.1993Z" fill="#CFB2EB"/>
<path opacity="0.7728" d="M9.02997 25.1886L18.9541 14.5947H17.0017C13.8359 15.867 3.81213 18.9009 0.000976562 20.4624V22.6363C0.000976562 27.7178 6.39057 28.1717 9.02997 25.1886Z" fill="#CFB2EB"/>
<path opacity="0.7757" d="M9.02551 25.1763L18.9393 14.5947H17.0017C13.8315 15.867 3.80916 18.9009 0.000976562 20.4624V22.6255C0.000976563 27.7086 6.38759 28.1609 9.02551 25.1763Z" fill="#CFB2EB"/>
<path opacity="0.7787" d="M9.02254 25.1655L18.9259 14.5947H17.0017C13.827 15.8655 3.80618 18.9009 0.000976562 20.4624V22.6132C0.000976562 27.7009 6.38611 28.1486 9.02254 25.1655Z" fill="#CFB1EB"/>
<path opacity="0.7817" d="M9.01808 25.1532L18.911 14.5947H17.0017C13.8225 15.8655 3.80172 18.9009 0.000976562 20.4624V22.6024C0.000976562 27.6932 6.38313 28.1378 9.01808 25.1532Z" fill="#CFB1EB"/>
<path opacity="0.7847" d="M9.01412 25.1424L18.8966 14.5947H17.0007C13.8171 15.8655 3.79777 18.9009 0 20.4624V22.5901C0.00148699 27.6855 6.38067 28.1255 9.01412 25.1424Z" fill="#CEB1EA"/>
<path opacity="0.7877" d="M9.01064 25.1307L18.8828 14.5938H17.0017C13.8136 15.863 3.79577 18.8999 0.000976562 20.4614V22.5784C0.000976563 27.6784 6.37718 28.1138 9.01064 25.1307Z" fill="#CEB0EA"/>
<path opacity="0.7907" d="M9.00669 25.1193L18.8684 14.5947H17.0007C13.8082 15.864 3.79182 18.8993 0 20.4624V22.567C0.00148699 27.6686 6.37472 28.1024 9.00669 25.1193Z" fill="#CEB0EA"/>
<path opacity="0.7937" d="M9.00223 25.1076L18.8535 14.5938H17.0007C13.8037 15.8614 3.78885 18.8984 0 20.4614V22.5553C0.00148699 27.6614 6.37324 28.0907 9.00223 25.1076Z" fill="#CEB0EA"/>
<path opacity="0.7967" d="M8.99926 25.0963L18.8402 14.5947H17.0008C13.7993 15.8624 3.78588 18.8993 0 20.4624V22.544C0.00148699 27.6532 6.37026 28.0793 8.99926 25.0963Z" fill="#CDAFEA"/>
<path opacity="0.7997" d="M8.99429 25.0845L18.8263 14.5938H17.0017C13.7958 15.8599 3.78239 18.8984 0.000976562 20.4614V22.5322C0.000976562 27.6461 6.36678 28.0676 8.99429 25.0845Z" fill="#CDAFEA"/>
<path opacity="0.8027" d="M8.9908 25.0732L18.8124 14.5947H17.0027C13.7923 15.8609 3.78039 18.8993 0.00195339 20.4624V22.5209C0.000466397 27.6378 6.36329 28.0563 8.9908 25.0732Z" fill="#CDAFEA"/>
<path opacity="0.8056" d="M8.98685 25.0624L18.798 14.5947H17.0017C13.7868 15.8609 3.77644 18.8993 0.000976562 20.4624V22.5101C0.000976563 27.6286 6.36083 28.044 8.98685 25.0624Z" fill="#CDAEEA"/>
<path opacity="0.8086" d="M8.98239 25.0501L18.7831 14.5947H17.0017C13.7824 15.8593 3.77347 18.8993 0.000976562 20.4624V22.4978C0.000976562 27.6209 6.35934 28.0317 8.98239 25.0501Z" fill="#CDAEEA"/>
<path opacity="0.8116" d="M8.97941 25.0393L18.7697 14.5947H17.0017C13.7764 15.8593 3.77049 18.8978 0.000976562 20.4624V22.487C0.000976562 27.6132 6.35637 28.0209 8.97941 25.0393Z" fill="#CCAEEA"/>
<path opacity="0.8146" d="M8.97495 25.027L18.7549 14.5947H17.0017C13.772 15.8578 3.76752 18.8978 0.000976562 20.4624V22.4747C0.000976563 27.6055 6.35339 28.0086 8.97495 25.027Z" fill="#CCADEA"/>
<path opacity="0.8176" d="M8.97101 25.0163L18.7405 14.5947H17.0007C13.7665 15.8578 3.76208 18.8978 0 20.4624V22.464C0.00148699 27.5978 6.35093 27.9978 8.97101 25.0163Z" fill="#CCADE9"/>
<path opacity="0.8206" d="M8.96752 25.0045L18.7266 14.5938H17.0017C13.7631 15.8553 3.76009 18.8968 0.000976562 20.4614V22.4507C0.000976562 27.5891 6.34745 27.9861 8.96752 25.0045Z" fill="#CCADE9"/>
<path opacity="0.8236" d="M8.96357 24.9932L18.7123 14.5947H17.0007C13.7576 15.8563 3.75613 18.8978 0 20.4624V22.4409C0.00148699 27.5809 6.34647 27.9747 8.96357 24.9932Z" fill="#CCACE9"/>
<path opacity="0.8266" d="M8.95911 24.9814L18.6974 14.5938H17.0007C13.7532 15.8537 3.75316 18.8968 0 20.4614V22.4276C0.00148699 27.5737 6.3435 27.963 8.95911 24.9814Z" fill="#CBACE9"/>
<path opacity="0.8296" d="M8.95562 24.9701L18.685 14.5947H17.0017C13.7497 15.8547 3.75116 18.8978 0.000976562 20.4624V22.4163C0.000976562 27.5655 6.34001 27.9501 8.95562 24.9701Z" fill="#CBACE9"/>
<path opacity="0.8326" d="M8.95116 24.9584L18.6701 14.5938H17.0017C13.7452 15.8537 3.74819 18.8953 0.000976562 20.4614V22.4045C0.000976563 27.5584 6.33703 27.9399 8.95116 24.9584Z" fill="#CBABE9"/>
<path opacity="0.8355" d="M8.94819 24.947L18.6567 14.5947H17.0017C13.7408 15.8532 3.74522 18.8963 0.000976562 20.4624V22.3932C0.000976562 27.5486 6.33555 27.927 8.94819 24.947Z" fill="#CBABE9"/>
<path opacity="0.8385" d="M8.94373 24.9363L18.6419 14.5947H17.0017C13.7363 15.8532 3.74075 18.8963 0.000976562 20.4624V22.3824C0.000976562 27.5409 6.33258 27.9163 8.94373 24.9363Z" fill="#CAAAE9"/>
<path opacity="0.8415" d="M8.93977 24.924L18.6275 14.5947H17.0007C13.7308 15.8516 3.7368 18.8963 0 20.4624V22.3701C0.00148699 27.5332 6.33011 27.904 8.93977 24.924Z" fill="#CAAAE9"/>
<path opacity="0.8445" d="M8.93629 24.9132L18.6136 14.5947H17.0017C13.7274 15.8517 3.73481 18.8963 0.000976562 20.4624V22.3593C0.000976563 27.5255 6.32663 27.8932 8.93629 24.9132Z" fill="#CAAAE9"/>
<path opacity="0.8475" d="M8.93234 24.9009L18.5993 14.5947H17.0007C13.7219 15.8501 3.73085 18.8963 0 20.4624V22.347C0.00148699 27.5178 6.32416 27.8809 8.93234 24.9009Z" fill="#CAA9E9"/>
<path opacity="0.8505" d="M8.92788 24.8901L18.5844 14.5947H17.0007C13.7175 15.8501 3.72788 18.8963 0 20.4624V22.3363C0.00148699 27.5086 6.32268 27.8686 8.92788 24.8901Z" fill="#CAA9E8"/>
<path opacity="0.8535" d="M8.92439 24.8784L18.5705 14.5938H17.0017C13.714 15.8491 3.72588 18.8937 0.000976562 20.4614V22.323C0.000976562 27.5014 6.31919 27.8584 8.92439 24.8784Z" fill="#C9A9E8"/>
<path opacity="0.8565" d="M8.91994 24.867L18.5571 14.5947H17.0017C13.7095 15.8486 3.72142 18.8947 0.000976562 20.4624V22.3132C0.000976562 27.4932 6.31622 27.8455 8.91994 24.867Z" fill="#C9A8E8"/>
<path opacity="0.8595" d="M8.91547 24.8553L18.5422 14.5938H17.0017C13.7051 15.8476 3.71845 18.8937 0.000976562 20.4614V22.2999C0.000976562 27.4861 6.31324 27.8353 8.91547 24.8553Z" fill="#C9A8E8"/>
<path opacity="0.8625" d="M8.9125 24.844L18.5289 14.5947H17.0017C13.7006 15.847 3.71548 18.8947 0.000976562 20.4624V22.2901C0.000976563 27.4778 6.31027 27.8224 8.9125 24.844Z" fill="#C9A8E8"/>
<path opacity="0.8654" d="M8.90804 24.8322L18.514 14.5938H17.0017C13.6961 15.8461 3.7125 18.8937 0.000976562 20.4614V22.2768C0.000976562 27.4691 6.30879 27.8122 8.90804 24.8322Z" fill="#C9A7E8"/>
<path opacity="0.8684" d="M8.90506 24.8209L18.5006 14.5947H17.0017C13.6917 15.8455 3.70952 18.8947 0.000976562 20.4624V22.267C0.000976563 27.4609 6.30581 27.7993 8.90506 24.8209Z" fill="#C8A7E8"/>
<path opacity="0.8714" d="M8.9006 24.8101L18.4857 14.5947H17.0017C13.6872 15.8455 3.70655 18.8947 0.000976562 20.4624V22.2547C0.000976563 27.4532 6.30283 27.787 8.9006 24.8101Z" fill="#C8A7E8"/>
<path opacity="0.8744" d="M8.89666 24.7978L18.4714 14.5947H17.0007C13.6818 15.8455 3.70112 18.8932 0 20.4624V22.244C0.00148699 27.4455 6.30037 27.7763 8.89666 24.7978Z" fill="#C8A6E8"/>
<path opacity="0.8774" d="M8.89317 24.787L18.4575 14.5947H17.0017C13.6783 15.844 3.69912 18.8932 0.000976562 20.4624V22.2317C0.000976562 27.4363 6.29689 27.764 8.89317 24.787Z" fill="#C8A6E8"/>
<path opacity="0.8804" d="M8.88922 24.7747L18.4431 14.5947H17.0008C13.6729 15.844 3.69517 18.8932 0 20.4624V22.2209C0.00148699 27.4286 6.29591 27.7532 8.88922 24.7747Z" fill="#C8A6E8"/>
<path opacity="0.8834" d="M8.88425 24.764L18.4292 14.5947H17.0017C13.6694 15.8424 3.69317 18.8932 0.000976562 20.4624V22.2086C0.000976562 27.4209 6.29242 27.7409 8.88425 24.764Z" fill="#C7A5E7"/>
<path opacity="0.8864" d="M8.88127 24.7516L18.4158 14.5947H17.0017C13.6649 15.8424 3.6902 18.8932 0.000976562 20.4624V22.1978C0.000976562 27.4132 6.28945 27.7286 8.88127 24.7516Z" fill="#C7A5E7"/>
<path opacity="0.8894" d="M8.87682 24.7409L18.401 14.5947H17.0017C13.6605 15.8409 3.68722 18.8932 0.000976562 20.4624V22.1855C0.000976563 27.4055 6.28648 27.7178 8.87682 24.7409Z" fill="#C7A5E7"/>
<path opacity="0.8924" d="M8.87286 24.7291L18.3866 14.5938H17.0007C13.655 15.8399 3.68178 18.8922 0 20.4614V22.1753C0.00148699 27.3968 6.2855 27.7061 8.87286 24.7291Z" fill="#C7A4E7"/>
<path opacity="0.8953" d="M8.86937 24.7178L18.3727 14.5947H17.0017C13.6515 15.8409 3.67979 18.8916 0.000976562 20.4624V22.1624C0.000976562 27.3886 6.28201 27.6947 8.86937 24.7178Z" fill="#C6A4E7"/>
<path opacity="0.8983" d="M8.86491 24.7061L18.3578 14.5938H17.0017C13.6471 15.8384 3.67681 18.8907 0.000976562 20.4614V22.1491C0.000976562 27.3814 6.27904 27.683 8.86491 24.7061Z" fill="#C6A4E7"/>
<path opacity="0.9013" d="M8.86195 24.6947L18.3445 14.5947H17.0017C13.6426 15.8393 3.67384 18.8917 0.000976562 20.4624V22.1393C0.000976562 27.3732 6.27607 27.6717 8.86195 24.6947Z" fill="#C6A3E7"/>
<path opacity="0.9043" d="M8.85748 24.683L18.3296 14.5938H17.0017C13.6382 15.8368 3.67087 18.8907 0.000976562 20.4614V22.1261C0.000976562 27.3661 6.2731 27.6599 8.85748 24.683Z" fill="#C6A3E7"/>
<path opacity="0.9073" d="M8.85354 24.6717L18.3152 14.5947H17.0007C13.6327 15.8378 3.66692 18.8917 0 20.4624V22.1163C0.00148699 27.3563 6.27212 27.647 8.85354 24.6717Z" fill="#C6A3E7"/>
<path opacity="0.9103" d="M8.84954 24.6609L18.3023 14.5947H17.0027C13.6302 15.8363 3.66589 18.8917 0.00195339 20.4624V22.104C0.000466401 27.3486 6.26812 27.6363 8.84954 24.6609Z" fill="#C5A2E7"/>
<path opacity="0.9133" d="M8.84558 24.6486L18.288 14.5947H17.0017C13.6248 15.8363 3.66045 18.8916 0.000976562 20.4624V22.0932C0.000976562 27.3409 6.26566 27.624 8.84558 24.6486Z" fill="#C5A2E7"/>
<path opacity="0.9163" d="M8.84113 24.6378L18.2731 14.5947H17.0017C13.6203 15.8363 3.65748 18.8901 0.000976562 20.4624V22.0809C0.000976562 27.3332 6.26269 27.6132 8.84113 24.6378Z" fill="#C5A2E7"/>
<path opacity="0.9193" d="M8.83815 24.6255L18.2597 14.5947H17.0017C13.6158 15.8347 3.65451 18.8901 0.000976562 20.4624V22.0701C0.000976563 27.3255 6.25971 27.6009 8.83815 24.6255Z" fill="#C5A1E6"/>
<path opacity="0.9223" d="M8.83369 24.6147L18.2448 14.5947H17.0017C13.6114 15.8347 3.65153 18.8901 0.000976562 20.4624V22.0578C0.000976562 27.3163 6.25823 27.5901 8.83369 24.6147Z" fill="#C5A1E6"/>
<path opacity="0.9252" d="M8.82974 24.603L18.2305 14.5938H17.0007C13.6059 15.8322 3.64758 18.8891 0 20.4614V22.0461C0.00148699 27.3091 6.25576 27.5784 8.82974 24.603Z" fill="#C4A1E6"/>
<path opacity="0.9282" d="M8.82625 24.5917L18.2166 14.5947H17.0017C13.6025 15.8332 3.64559 18.8901 0.000976562 20.4624V22.0347C0.000976562 27.3009 6.25228 27.5655 8.82625 24.5917Z" fill="#C4A0E6"/>
<path opacity="0.9312" d="M8.82231 24.5799L18.2022 14.5938H17.0007C13.597 15.8307 3.64015 18.8891 0 20.4614V22.023C0.00148699 27.2937 6.24981 27.5553 8.82231 24.5799Z" fill="#C4A0E6"/>
<path opacity="0.9342" d="M8.81882 24.5686L18.1883 14.5947H17.0017C13.5921 15.8317 3.63815 18.8901 0.000976562 20.4624V22.0117C0.000976562 27.2855 6.24782 27.5424 8.81882 24.5686Z" fill="#C4A0E6"/>
<path opacity="0.9372" d="M8.81487 24.5568L18.174 14.5938H17.0007C13.5866 15.8307 3.6342 18.8876 0 20.4614V21.9999C0.00148699 27.2768 6.24535 27.5322 8.81487 24.5568Z" fill="#C39FE6"/>
<path opacity="0.9402" d="M8.8099 24.5455L18.1601 14.5947H17.0017C13.5831 15.8301 3.6322 18.8886 0.000976562 20.4624V21.9886C0.000976562 27.2686 6.24187 27.5193 8.8099 24.5455Z" fill="#C39FE6"/>
<path opacity="0.9432" d="M8.80692 24.5347L18.1467 14.5947H17.0017C13.5787 15.8301 3.62923 18.8886 0.000976562 20.4624V21.9778C0.000976562 27.2609 6.23889 27.5086 8.80692 24.5347Z" fill="#C39FE6"/>
<path opacity="0.9462" d="M8.80246 24.5224L18.1318 14.5947H17.0017C13.5742 15.8286 3.62626 18.8886 0.000976562 20.4624V21.9655C0.000976562 27.2532 6.23592 27.4963 8.80246 24.5224Z" fill="#C39EE6"/>
<path opacity="0.9492" d="M8.79801 24.5117L18.117 14.5947H17.0017C13.5698 15.8286 3.6218 18.8886 0.000976562 20.4624V21.9547C0.000976562 27.2455 6.23444 27.484 8.79801 24.5117Z" fill="#C39EE6"/>
<path opacity="0.9522" d="M8.79502 24.4993L18.1036 14.5947H17.0017C13.5653 15.827 3.61882 18.8886 0.000976562 20.4624V21.9424C0.000976562 27.2363 6.23146 27.4732 8.79502 24.4993Z" fill="#C29DE5"/>
<path opacity="0.9552" d="M8.79057 24.4886L18.0887 14.5947H17.0017C13.5608 15.827 3.61585 18.8886 0.000976562 20.4624V21.9301C0.000976562 27.2286 6.22849 27.4609 8.79057 24.4886Z" fill="#C29DE5"/>
<path opacity="0.9581" d="M8.78662 24.4763L18.0743 14.5947H17.0007C13.5554 15.8255 3.6119 18.887 0 20.4624V21.9193C0.00148699 27.2209 6.22602 27.4501 8.78662 24.4763Z" fill="#C29DE5"/>
<path opacity="0.9611" d="M8.78313 24.4655L18.0605 14.5947H17.0017C13.5519 15.8255 3.6099 18.887 0.000976562 20.4624V21.907C0.000976562 27.2132 6.22254 27.4378 8.78313 24.4655Z" fill="#C29CE5"/>
<path opacity="0.9641" d="M8.77919 24.4538L18.0461 14.5938H17.0007C13.5465 15.8245 3.60595 18.8861 0 20.4614V21.8953C0.00148699 27.2061 6.22156 27.4276 8.77919 24.4538Z" fill="#C29CE5"/>
<path opacity="0.9671" d="M8.77421 24.4424L18.0322 14.5947H17.0017C13.543 15.824 3.60246 18.887 0.000976562 20.4624V21.884C0.000976563 27.1963 6.21807 27.4147 8.77421 24.4424Z" fill="#C19CE5"/>
<path opacity="0.9701" d="M8.77123 24.4307L18.0188 14.5938H17.0017C13.5385 15.823 3.59949 18.8861 0.000976562 20.4614V21.8722C0.000976562 27.1891 6.2151 27.403 8.77123 24.4307Z" fill="#C19BE5"/>
<path opacity="0.9731" d="M8.76678 24.4193L18.004 14.5947H17.0017C13.5341 15.8224 3.59652 18.887 0.000976562 20.4624V21.8609C0.000976562 27.1809 6.21213 27.3917 8.76678 24.4193Z" fill="#C19BE5"/>
<path opacity="0.9761" d="M8.7638 24.4086L17.9906 14.5947H17.0017C13.5296 15.8224 3.59354 18.887 0.000976562 20.4624V21.8501C0.000976563 27.1732 6.20916 27.3793 8.7638 24.4086Z" fill="#C19BE5"/>
<path opacity="0.9791" d="M8.75934 24.3963L17.9757 14.5947H17.0017C13.5251 15.8209 3.59057 18.8855 0.000976562 20.4624V21.8378C0.000976563 27.1655 6.20767 27.3686 8.75934 24.3963Z" fill="#C09AE5"/>
<path opacity="0.9821" d="M8.75539 24.3855L17.9613 14.5947H17.0007C13.5197 15.8209 3.58662 18.8855 0 20.4624V21.827C0.00148699 27.1563 6.2052 27.3563 8.75539 24.3855Z" fill="#C09AE5"/>
<path opacity="0.9851" d="M8.75191 24.3732L17.9474 14.5947H17.0017C13.5162 15.8209 3.58462 18.8855 0.000976562 20.4624V21.8147C0.000976563 27.1486 6.20172 27.3455 8.75191 24.3732Z" fill="#C09AE4"/>
<path opacity="0.988" d="M8.74796 24.3624L17.9331 14.5947H17.0007C13.5108 15.8193 3.57918 18.8855 0 20.4624V21.804C0.00148699 27.1409 6.19926 27.3332 8.74796 24.3624Z" fill="#C099E4"/>
<path opacity="0.991" d="M8.7435 24.3501L17.9182 14.5947H17.0007C13.5063 15.8193 3.57621 18.8855 0 20.4624V21.7917C0.00148699 27.1332 6.19777 27.3209 8.7435 24.3501Z" fill="#C099E4"/>
<path opacity="0.994" d="M8.74001 24.3393L17.9058 14.5947H17.0017C13.5028 15.8178 3.57421 18.8855 0.000976562 20.4624V21.7809C0.000976563 27.124 6.19428 27.3101 8.74001 24.3393Z" fill="#BF99E4"/>
<path opacity="0.997" d="M8.73555 24.3276L17.8909 14.5938H17.0017C13.4984 15.8168 3.57124 18.883 0.000976562 20.4614V21.7676C0.000976562 27.1168 6.19131 27.2984 8.73555 24.3276Z" fill="#BF98E4"/>
<path d="M8.73109 24.3163L17.8761 14.5947H17.0017C13.4939 15.8163 3.56826 18.884 0.000976562 20.4624V21.7578C0.000976562 27.1086 6.18834 27.287 8.73109 24.3163Z" fill="#BF98E4"/>
</g>
<path fill-rule="evenodd" clip-rule="evenodd" d="M0.000976562 6.41716V20.5925C0.000976562 23.1988 1.85739 25.0127 3.96924 25.3477C4.01154 25.3544 4.05395 25.3605 4.09645 25.366C5.41392 25.5372 6.81769 25.1327 7.92412 23.988L17.0022 14.5957H17.0016L23.1712 8.21255C26.0947 5.18793 24.0233 0.015625 19.8895 0.015625H6.18834C2.77124 0.015625 0.000976562 2.88178 0.000976562 6.41716Z" fill="url(#paint1_linear_6903_14654)"/>
<path d="M34.4383 31V9.18182H48.8843V12.9851H39.0512V18.1839H47.9255V21.9872H39.0512V31H34.4383ZM51.9019 31V14.6364H56.4403V31H51.9019ZM54.1817 12.527C53.507 12.527 52.9282 12.3033 52.4452 11.8558C51.9694 11.4013 51.7314 10.858 51.7314 10.2259C51.7314 9.60085 51.9694 9.06463 52.4452 8.61719C52.9282 8.16264 53.507 7.93537 54.1817 7.93537C54.8564 7.93537 55.4317 8.16264 55.9076 8.61719C56.3905 9.06463 56.632 9.60085 56.632 10.2259C56.632 10.858 56.3905 11.4013 55.9076 11.8558C55.4317 12.3033 54.8564 12.527 54.1817 12.527ZM64.6141 21.5398V31H60.0757V14.6364H64.401V17.5234H64.5928C64.955 16.5717 65.5622 15.8189 66.4145 15.2649C67.2668 14.7038 68.3002 14.4233 69.5146 14.4233C70.651 14.4233 71.6418 14.6719 72.4869 15.169C73.3321 15.6662 73.9891 16.3764 74.4578 17.2997C74.9266 18.2159 75.161 19.3097 75.161 20.581V31H70.6226V21.3906C70.6297 20.3892 70.374 19.608 69.8556 19.0469C69.3371 18.4787 68.6233 18.1946 67.7142 18.1946C67.1034 18.1946 66.5637 18.326 66.0949 18.5888C65.6333 18.8516 65.271 19.2351 65.0083 19.7393C64.7526 20.2365 64.6212 20.8366 64.6141 21.5398ZM83.404 31.3089C82.36 31.3089 81.4296 31.1278 80.6128 30.7656C79.7961 30.3963 79.1498 29.853 78.6739 29.1357C78.2052 28.4112 77.9708 27.5092 77.9708 26.4297C77.9708 25.5206 78.1377 24.7571 78.4715 24.1392C78.8053 23.5213 79.2599 23.0241 79.8351 22.6477C80.4104 22.2713 81.0638 21.9872 81.7954 21.7955C82.534 21.6037 83.3081 21.4688 84.1178 21.3906C85.0695 21.2912 85.8366 21.1989 86.4189 21.1136C87.0013 21.0213 87.4239 20.8864 87.6867 20.7088C87.9495 20.5312 88.0809 20.2685 88.0809 19.9205V19.8565C88.0809 19.1818 87.8678 18.6598 87.4417 18.2905C87.0226 17.9212 86.426 17.7365 85.6519 17.7365C84.8351 17.7365 84.1853 17.9176 83.7023 18.2798C83.2194 18.6349 82.8998 19.0824 82.7435 19.6222L78.5461 19.2812C78.7591 18.2869 79.1782 17.4276 79.8032 16.7031C80.4282 15.9716 81.2343 15.4105 82.2215 15.0199C83.2158 14.6222 84.3664 14.4233 85.6732 14.4233C86.5823 14.4233 87.4523 14.5298 88.2833 14.7429C89.1214 14.956 89.8635 15.2862 90.5099 15.7337C91.1633 16.1811 91.6782 16.7564 92.0546 17.4595C92.431 18.1555 92.6192 18.9901 92.6192 19.9631V31H88.3153V28.7308H88.1874C87.9246 29.2422 87.5731 29.6932 87.1327 30.0838C86.6924 30.4673 86.1633 30.7692 85.5454 30.9893C84.9275 31.2024 84.2137 31.3089 83.404 31.3089ZM84.7037 28.1768C85.3714 28.1768 85.9608 28.0455 86.4722 27.7827C86.9836 27.5128 87.3849 27.1506 87.676 26.696C87.9672 26.2415 88.1128 25.7266 88.1128 25.1513V23.4148C87.9708 23.5071 87.7755 23.5923 87.5269 23.6705C87.2854 23.7415 87.012 23.8089 86.7066 23.8729C86.4012 23.9297 86.0958 23.983 85.7904 24.0327C85.485 24.0753 85.208 24.1143 84.9594 24.1499C84.4268 24.228 83.9616 24.3523 83.5638 24.5227C83.1661 24.6932 82.8572 24.924 82.637 25.2152C82.4168 25.4993 82.3067 25.8544 82.3067 26.2805C82.3067 26.8984 82.5305 27.3707 82.9779 27.6974C83.4324 28.017 84.0077 28.1768 84.7037 28.1768ZM104.844 14.6364V18.0455H94.9896V14.6364H104.844ZM97.2268 10.7159H101.765V25.9716C101.765 26.3906 101.829 26.7173 101.957 26.9517C102.085 27.179 102.262 27.3388 102.49 27.4311C102.724 27.5234 102.994 27.5696 103.299 27.5696C103.512 27.5696 103.725 27.5518 103.938 27.5163C104.152 27.4737 104.315 27.4418 104.429 27.4205L105.142 30.7976C104.915 30.8686 104.595 30.9503 104.184 31.0426C103.772 31.142 103.271 31.2024 102.681 31.2237C101.588 31.2663 100.629 31.1207 99.805 30.7869C98.9882 30.4531 98.3525 29.9347 97.898 29.2315C97.4434 28.5284 97.2197 27.6406 97.2268 26.5682V10.7159ZM115.082 31.3196C113.399 31.3196 111.95 30.9787 110.735 30.2969C109.528 29.608 108.598 28.6349 107.944 27.3778C107.291 26.1136 106.964 24.6186 106.964 22.8928C106.964 21.2095 107.291 19.7322 107.944 18.4609C108.598 17.1896 109.517 16.1989 110.703 15.4886C111.897 14.7784 113.296 14.4233 114.901 14.4233C115.98 14.4233 116.985 14.5973 117.916 14.9453C118.853 15.2862 119.67 15.8011 120.366 16.4901C121.069 17.179 121.616 18.0455 122.007 19.0895C122.397 20.1264 122.593 21.3409 122.593 22.733V23.9794H108.775V21.1669H118.321C118.321 20.5135 118.179 19.9347 117.894 19.4304C117.61 18.9261 117.216 18.532 116.712 18.2479C116.215 17.9567 115.636 17.8111 114.975 17.8111C114.286 17.8111 113.676 17.9709 113.143 18.2905C112.617 18.603 112.206 19.0256 111.907 19.5582C111.609 20.0838 111.456 20.6697 111.449 21.3161V23.9901C111.449 24.7997 111.598 25.4993 111.897 26.0888C112.202 26.6783 112.632 27.1328 113.186 27.4524C113.74 27.772 114.397 27.9318 115.157 27.9318C115.661 27.9318 116.122 27.8608 116.541 27.7188C116.96 27.5767 117.319 27.3636 117.617 27.0795C117.916 26.7955 118.143 26.4474 118.299 26.0355L122.497 26.3125C122.284 27.321 121.847 28.2017 121.186 28.9545C120.533 29.7003 119.688 30.2827 118.651 30.7017C117.621 31.1136 116.431 31.3196 115.082 31.3196ZM129.054 14.6364L132.058 20.3572L135.137 14.6364H139.793L135.052 22.8182L139.92 31H135.286L132.058 25.343L128.883 31H124.196L129.054 22.8182L124.366 14.6364H129.054Z" fill="#121212"/>
<defs>
<linearGradient id="paint0_linear_6903_14654" x1="23.602" y1="27.2895" x2="-0.0192814" y2="27.2895" gradientUnits="userSpaceOnUse">
<stop stop-color="#9676F2"/>
<stop offset="1" stop-color="#377AFB"/>
</linearGradient>
<linearGradient id="paint1_linear_6903_14654" x1="8.50138" y1="14.7503" x2="8.50138" y2="25.45" gradientUnits="userSpaceOnUse">
<stop stop-color="#18CCF0"/>
<stop offset="1" stop-color="#01A9F6"/>
</linearGradient>
</defs>
</svg>
